M48
;Layer_Color=9474304
;FILE_FORMAT=4:4
METRIC,LZ
;TYPE=PLATED
T1F00S00C0.2000
T2F00S00C0.9200
T3F00S00C1.1000
T4F00S00C2.3000
T5F00S00C2.8500
%
T01
X00525Y0003025
Y0010975
X00426Y00089
X004385Y0003
X001715
X00184Y00089
X000285Y005485
X000741Y006301
X000715Y0064125
Y006631
X000385Y00681
X000546Y00708
X000774Y00708
X0018175Y00677
X00193Y006545
X00181Y0061975
X00191Y005365
X00199
X00207
X00215
X00223
X00231
X00239
X00247
X00255
X00263
X00271
X00279
X00287
X00295
X00303
X00311
X00319
X00327
X00327Y0049925
Y0049175
X00323Y004235
X00283
X00243
X00187
X00181Y0050625
X00367Y005365
X00375
X00383
X00391
X00399
X004315Y00541
X00423Y005055
X0046Y0057
X0047
Y0058
Y0059
X0046
Y0058
X0045
Y0059
X0044
Y006
X0045
X0046
X0047
Y0061
X0046
Y0062
X0045
X0044
Y0061
X0045
X00406Y00591
X00394Y005895
X003715Y0058925
X0038975Y0065275
X00387Y004235
X00363
X004155Y00404
X004325
X0048Y0057
Y0058
Y0059
Y006
Y0061
X00522Y00613
X00522Y00622
Y00604
X00522Y00595
Y00586
Y00577
Y00568
X0052575Y0056275
X0053325
X0051825
X005125Y0056625
X00508808Y0065775
X0050875Y00681
X004845Y00704
X00554Y006715
X0002825Y0082975
T02
X004799Y0081
X0048Y0083
X005049
Y0081
T03
X0055Y001644
Y001898
Y002152
Y002406
Y00266
X005754
Y002406
Y002152
Y001898
Y001644
Y002914
X0055
Y003168
X005754
Y003422
X0055
Y003676
X005754
X0006
X000346
Y003422
X0006
Y003168
X000346
Y002914
X0006
Y00266
X000346
Y002406
X0006
Y002152
X000346
Y001898
X0006
Y001644
X000346
Y00393
Y004184
X0006
Y004438
X000346
Y004692
X0006
Y004946
X000346
Y0052
X0006
Y00393
X0055
X005754
Y004184
X0055
Y004438
X005754
Y004692
X0055
Y004946
X005754
Y0052
X0055
X00502Y00519
Y004936
Y005444
X00575Y005696
Y00595
Y006204
X005754Y00694
X0055
X005246
T04
X005526Y008571
X004322
T05
X0049Y0004
X0004
X0057Y0075
X0004Y0092
M30
