G04*
G04 #@! TF.GenerationSoftware,Altium Limited,Altium Designer,19.0.15 (446)*
G04*
G04 Layer_Physical_Order=2*
G04 Layer_Color=36540*
%FSLAX44Y44*%
%MOMM*%
G71*
G01*
G75*
%ADD63C,0.1250*%
%ADD65C,0.4500*%
G36*
X240730Y406853D02*
X239460Y406174D01*
X238873Y406566D01*
X237500Y406839D01*
X236127Y406566D01*
X234962Y405788D01*
X234184Y404623D01*
X233911Y403250D01*
X234184Y401877D01*
X234962Y400712D01*
X236127Y399934D01*
X237500Y399661D01*
X238873Y399934D01*
X239460Y400326D01*
X240730Y399647D01*
Y396853D01*
X239460Y396174D01*
X238873Y396566D01*
X237500Y396839D01*
X236127Y396566D01*
X234962Y395788D01*
X234184Y394623D01*
X233911Y393250D01*
X234184Y391877D01*
X234962Y390712D01*
X236127Y389934D01*
X237500Y389661D01*
X238873Y389934D01*
X239460Y390326D01*
X240730Y389647D01*
Y386853D01*
X239460Y386174D01*
X238873Y386566D01*
X237500Y386839D01*
X236127Y386566D01*
X234962Y385788D01*
X234184Y384623D01*
X233911Y383250D01*
X234184Y381877D01*
X234962Y380712D01*
X236127Y379934D01*
X237500Y379661D01*
X238873Y379934D01*
X239460Y380326D01*
X240730Y379647D01*
Y376853D01*
X239460Y376174D01*
X238873Y376566D01*
X237500Y376839D01*
X236127Y376566D01*
X234962Y375788D01*
X234184Y374623D01*
X233911Y373250D01*
X234184Y371876D01*
X234962Y370712D01*
X236127Y369934D01*
X237500Y369661D01*
X238873Y369934D01*
X239460Y370326D01*
X240730Y369730D01*
Y369730D01*
X241959D01*
X242344Y368460D01*
X241712Y368038D01*
X240934Y366873D01*
X240661Y365500D01*
X240934Y364127D01*
X241712Y362962D01*
X242877Y362184D01*
X244250Y361911D01*
X245623Y362184D01*
X246788Y362962D01*
X247566Y364127D01*
X247839Y365500D01*
X247566Y366873D01*
X246788Y368038D01*
X246156Y368460D01*
X246541Y369730D01*
X251000D01*
Y351000D01*
X297451D01*
Y349122D01*
X296181Y348443D01*
X295623Y348816D01*
X294250Y349089D01*
X292877Y348816D01*
X291712Y348038D01*
X290934Y346873D01*
X290661Y345500D01*
X290934Y344127D01*
X291712Y342962D01*
X292877Y342184D01*
X294250Y341911D01*
X295623Y342184D01*
X296181Y342557D01*
X297451Y341878D01*
Y339122D01*
X296181Y338443D01*
X295623Y338816D01*
X294250Y339089D01*
X292877Y338816D01*
X291712Y338038D01*
X290934Y336873D01*
X290661Y335500D01*
X290934Y334127D01*
X291712Y332962D01*
X292877Y332184D01*
X294250Y331911D01*
X295623Y332184D01*
X296181Y332557D01*
X297451Y331878D01*
Y329122D01*
X296181Y328443D01*
X295623Y328816D01*
X294250Y329089D01*
X292877Y328816D01*
X291712Y328038D01*
X290934Y326873D01*
X290661Y325500D01*
X290934Y324127D01*
X291712Y322962D01*
X292877Y322184D01*
X294250Y321911D01*
X295623Y322184D01*
X296181Y322557D01*
X297451Y321878D01*
Y319122D01*
X296181Y318443D01*
X295623Y318816D01*
X294250Y319089D01*
X292877Y318816D01*
X291712Y318038D01*
X290934Y316873D01*
X290661Y315500D01*
X290934Y314126D01*
X291712Y312962D01*
X292877Y312184D01*
X294250Y311911D01*
X295623Y312184D01*
X296181Y312557D01*
X297451Y311878D01*
Y309122D01*
X296181Y308443D01*
X295623Y308816D01*
X294250Y309089D01*
X292877Y308816D01*
X291712Y308038D01*
X290934Y306873D01*
X290661Y305500D01*
X290934Y304126D01*
X291712Y302962D01*
X292877Y302184D01*
X294250Y301911D01*
X295623Y302184D01*
X296181Y302557D01*
X297451Y301878D01*
Y299122D01*
X296181Y298443D01*
X295623Y298816D01*
X294250Y299089D01*
X292877Y298816D01*
X291712Y298038D01*
X290934Y296873D01*
X290661Y295500D01*
X290934Y294126D01*
X291712Y292962D01*
X292877Y292184D01*
X294250Y291911D01*
X295623Y292184D01*
X296181Y292557D01*
X297451Y291878D01*
Y289122D01*
X296181Y288443D01*
X295623Y288816D01*
X294250Y289089D01*
X292877Y288816D01*
X291712Y288038D01*
X290934Y286873D01*
X290661Y285500D01*
X290934Y284126D01*
X291712Y282962D01*
X292877Y282184D01*
X294250Y281911D01*
X295623Y282184D01*
X296181Y282557D01*
X297451Y281878D01*
Y279122D01*
X296181Y278443D01*
X295623Y278816D01*
X294250Y279089D01*
X292877Y278816D01*
X291712Y278038D01*
X290934Y276873D01*
X290661Y275500D01*
X290934Y274126D01*
X291712Y272962D01*
X292877Y272184D01*
X294250Y271911D01*
X295623Y272184D01*
X296181Y272557D01*
X297451Y271878D01*
Y269122D01*
X296181Y268443D01*
X295623Y268816D01*
X294250Y269089D01*
X292877Y268816D01*
X291712Y268038D01*
X290934Y266873D01*
X290661Y265500D01*
X290934Y264126D01*
X291712Y262962D01*
X292877Y262184D01*
X294250Y261911D01*
X295623Y262184D01*
X296181Y262557D01*
X297451Y261878D01*
Y259122D01*
X296181Y258443D01*
X295623Y258816D01*
X294250Y259089D01*
X292877Y258816D01*
X291712Y258038D01*
X290934Y256873D01*
X290661Y255500D01*
X290934Y254126D01*
X291712Y252962D01*
X292877Y252184D01*
X294250Y251911D01*
X295623Y252184D01*
X296181Y252557D01*
X297451Y251878D01*
Y249122D01*
X296181Y248443D01*
X295623Y248816D01*
X294250Y249089D01*
X292877Y248816D01*
X291712Y248038D01*
X290934Y246873D01*
X290661Y245500D01*
X290934Y244126D01*
X291712Y242962D01*
X292877Y242184D01*
X294250Y241911D01*
X295623Y242184D01*
X296181Y242557D01*
X297451Y241878D01*
Y239122D01*
X296181Y238443D01*
X295623Y238816D01*
X294250Y239089D01*
X292877Y238816D01*
X291712Y238038D01*
X290934Y236873D01*
X290661Y235500D01*
X290934Y234126D01*
X291712Y232962D01*
X292877Y232184D01*
X294250Y231911D01*
X295623Y232184D01*
X296181Y232557D01*
X297451Y231878D01*
Y229122D01*
X296181Y228443D01*
X295623Y228816D01*
X294250Y229089D01*
X292877Y228816D01*
X291712Y228038D01*
X290934Y226873D01*
X290661Y225500D01*
X290934Y224126D01*
X291712Y222962D01*
X292877Y222184D01*
X294250Y221911D01*
X295623Y222184D01*
X296181Y222557D01*
X297451Y221878D01*
Y219122D01*
X296181Y218443D01*
X295623Y218816D01*
X294250Y219089D01*
X292877Y218816D01*
X291712Y218038D01*
X290934Y216873D01*
X290661Y215500D01*
X290934Y214126D01*
X291712Y212962D01*
X292877Y212184D01*
X294250Y211911D01*
X295623Y212184D01*
X296181Y212557D01*
X297451Y211878D01*
Y209122D01*
X296181Y208443D01*
X295623Y208816D01*
X294250Y209089D01*
X292877Y208816D01*
X291712Y208038D01*
X290934Y206873D01*
X290661Y205500D01*
X290934Y204126D01*
X291712Y202962D01*
X292877Y202184D01*
X294250Y201911D01*
X295623Y202184D01*
X296181Y202557D01*
X297451Y201878D01*
Y199122D01*
X296181Y198443D01*
X295623Y198816D01*
X294250Y199089D01*
X292877Y198816D01*
X291712Y198038D01*
X290934Y196873D01*
X290661Y195500D01*
X290934Y194126D01*
X291712Y192962D01*
X292877Y192184D01*
X294250Y191911D01*
X295623Y192184D01*
X296181Y192557D01*
X297451Y191878D01*
Y189122D01*
X296181Y188443D01*
X295623Y188816D01*
X294250Y189089D01*
X292877Y188816D01*
X291712Y188038D01*
X290934Y186873D01*
X290661Y185500D01*
X290934Y184126D01*
X291712Y182962D01*
X292877Y182184D01*
X294250Y181911D01*
X295623Y182184D01*
X296181Y182557D01*
X297451Y181878D01*
Y179122D01*
X296181Y178443D01*
X295623Y178816D01*
X294250Y179089D01*
X292877Y178816D01*
X291712Y178038D01*
X290934Y176873D01*
X290661Y175500D01*
X290934Y174126D01*
X291712Y172962D01*
X292877Y172184D01*
X294250Y171911D01*
X295623Y172184D01*
X296181Y172557D01*
X297451Y171878D01*
Y169122D01*
X296181Y168443D01*
X295623Y168816D01*
X294250Y169089D01*
X292877Y168816D01*
X291712Y168038D01*
X290934Y166873D01*
X290661Y165500D01*
X290934Y164126D01*
X291712Y162962D01*
X292877Y162184D01*
X294250Y161911D01*
X295623Y162184D01*
X296181Y162557D01*
X297451Y161878D01*
Y159122D01*
X296181Y158443D01*
X295623Y158816D01*
X294250Y159089D01*
X292877Y158816D01*
X291712Y158038D01*
X290934Y156873D01*
X290661Y155500D01*
X290934Y154127D01*
X291712Y152962D01*
X292877Y152184D01*
X294250Y151911D01*
X295623Y152184D01*
X296181Y152557D01*
X297451Y151878D01*
Y149122D01*
X296181Y148443D01*
X295623Y148816D01*
X294250Y149089D01*
X292877Y148816D01*
X291712Y148038D01*
X290934Y146873D01*
X290661Y145500D01*
X290934Y144127D01*
X291712Y142962D01*
X292877Y142184D01*
X294250Y141911D01*
X295623Y142184D01*
X296181Y142557D01*
X297451Y141878D01*
Y139122D01*
X296181Y138443D01*
X295623Y138816D01*
X294250Y139089D01*
X292877Y138816D01*
X291712Y138038D01*
X290934Y136873D01*
X290661Y135500D01*
X290934Y134127D01*
X291712Y132962D01*
X292877Y132184D01*
X294250Y131911D01*
X295623Y132184D01*
X296181Y132557D01*
X297451Y131878D01*
Y129122D01*
X296181Y128443D01*
X295623Y128816D01*
X294250Y129089D01*
X292877Y128816D01*
X291712Y128038D01*
X290934Y126873D01*
X290661Y125500D01*
X290934Y124126D01*
X291712Y122962D01*
X292877Y122184D01*
X294250Y121911D01*
X295623Y122184D01*
X296181Y122557D01*
X297451Y121878D01*
Y119122D01*
X296181Y118443D01*
X295623Y118816D01*
X294250Y119089D01*
X292877Y118816D01*
X291712Y118038D01*
X290934Y116873D01*
X290661Y115500D01*
X290934Y114126D01*
X291712Y112962D01*
X292877Y112184D01*
X294250Y111911D01*
X295623Y112184D01*
X296181Y112557D01*
X297451Y111878D01*
Y109122D01*
X296181Y108443D01*
X295623Y108816D01*
X294250Y109089D01*
X292877Y108816D01*
X291712Y108038D01*
X290934Y106873D01*
X290661Y105500D01*
X290934Y104126D01*
X291712Y102962D01*
X292877Y102184D01*
X294250Y101911D01*
X295623Y102184D01*
X296181Y102557D01*
X297451Y101878D01*
Y99122D01*
X296181Y98443D01*
X295623Y98816D01*
X294250Y99089D01*
X292877Y98816D01*
X291712Y98038D01*
X290934Y96873D01*
X290661Y95500D01*
X290934Y94126D01*
X291712Y92962D01*
X292877Y92184D01*
X294250Y91911D01*
X295623Y92184D01*
X296181Y92557D01*
X297451Y91878D01*
Y89122D01*
X296181Y88443D01*
X295623Y88816D01*
X294250Y89089D01*
X292877Y88816D01*
X291712Y88038D01*
X290934Y86873D01*
X290661Y85500D01*
X290934Y84126D01*
X291712Y82962D01*
X292877Y82184D01*
X294250Y81911D01*
X295623Y82184D01*
X296181Y82557D01*
X297451Y81878D01*
Y79122D01*
X296181Y78443D01*
X295623Y78816D01*
X294250Y79089D01*
X292877Y78816D01*
X291712Y78038D01*
X290934Y76873D01*
X290661Y75500D01*
X290934Y74126D01*
X291712Y72962D01*
X292877Y72184D01*
X294250Y71911D01*
X295623Y72184D01*
X296181Y72557D01*
X297451Y71878D01*
Y69122D01*
X296181Y68443D01*
X295623Y68816D01*
X294250Y69089D01*
X292877Y68816D01*
X291712Y68038D01*
X290934Y66873D01*
X290661Y65500D01*
X290934Y64126D01*
X291712Y62962D01*
X292877Y62184D01*
X294250Y61911D01*
X295623Y62184D01*
X296181Y62557D01*
X297451Y61878D01*
Y59122D01*
X296181Y58443D01*
X295623Y58816D01*
X294250Y59089D01*
X292877Y58816D01*
X291712Y58038D01*
X290934Y56873D01*
X290661Y55500D01*
X290934Y54126D01*
X291712Y52962D01*
X292877Y52184D01*
X294250Y51911D01*
X295623Y52184D01*
X296181Y52557D01*
X297451Y51878D01*
Y49122D01*
X296181Y48443D01*
X295623Y48816D01*
X294250Y49089D01*
X292877Y48816D01*
X291712Y48038D01*
X290934Y46873D01*
X290661Y45500D01*
X290934Y44126D01*
X291712Y42962D01*
X291822Y42889D01*
Y41361D01*
X291712Y41288D01*
X290934Y40123D01*
X290661Y38750D01*
X290934Y37377D01*
X291307Y36819D01*
X290628Y35549D01*
X287872D01*
X287193Y36819D01*
X287566Y37377D01*
X287839Y38750D01*
X287566Y40123D01*
X286788Y41288D01*
X285623Y42066D01*
X284250Y42339D01*
X282877Y42066D01*
X281712Y41288D01*
X280934Y40123D01*
X280661Y38750D01*
X280934Y37377D01*
X281712Y36212D01*
X282123Y35938D01*
X281982Y34505D01*
X281753Y34410D01*
X281545Y34271D01*
X281313Y34175D01*
X280009Y33303D01*
X279831Y33126D01*
X279622Y32986D01*
X278514Y31878D01*
X278374Y31669D01*
X278197Y31491D01*
X277325Y30187D01*
X277229Y29955D01*
X277090Y29746D01*
X276490Y28298D01*
X276441Y28052D01*
X276345Y27820D01*
X276281Y27500D01*
X267306D01*
X267128Y27723D01*
X266743Y28770D01*
X267316Y29627D01*
X267589Y31000D01*
X267316Y32373D01*
X266537Y33538D01*
X265373Y34316D01*
X264543Y34481D01*
X264395Y34673D01*
X264004Y35786D01*
X264566Y36627D01*
X264839Y38000D01*
X264566Y39373D01*
X263788Y40538D01*
X262623Y41316D01*
X261250Y41589D01*
X259877Y41316D01*
X258712Y40538D01*
X257934Y39373D01*
X257661Y38000D01*
X257934Y36627D01*
X258712Y35462D01*
X259877Y34684D01*
X260707Y34519D01*
X260855Y34327D01*
X261246Y33214D01*
X260684Y32373D01*
X260411Y31000D01*
X260684Y29627D01*
X261256Y28770D01*
X260872Y27723D01*
X260694Y27500D01*
X195306D01*
X195128Y27723D01*
X194743Y28770D01*
X195316Y29627D01*
X195589Y31000D01*
X195316Y32373D01*
X194538Y33538D01*
X193373Y34316D01*
X192000Y34589D01*
X190626Y34316D01*
X189462Y33538D01*
X188684Y32373D01*
X188411Y31000D01*
X188684Y29627D01*
X189256Y28770D01*
X188872Y27723D01*
X188694Y27500D01*
X163306D01*
X163128Y27723D01*
X162743Y28770D01*
X163316Y29627D01*
X163589Y31000D01*
X163316Y32373D01*
X162538Y33538D01*
X161373Y34316D01*
X160000Y34589D01*
X159787Y34547D01*
X159024Y35689D01*
X159316Y36127D01*
X159589Y37500D01*
X159316Y38873D01*
X158538Y40038D01*
X157373Y40816D01*
X156000Y41089D01*
X154627Y40816D01*
X153462Y40038D01*
X152684Y38873D01*
X152411Y37500D01*
X152684Y36127D01*
X153462Y34962D01*
X154627Y34184D01*
X156000Y33911D01*
X156213Y33953D01*
X156976Y32810D01*
X156684Y32373D01*
X156411Y31000D01*
X156684Y29627D01*
X157256Y28770D01*
X156872Y27723D01*
X156694Y27500D01*
X131306D01*
X131128Y27723D01*
X130744Y28770D01*
X131316Y29627D01*
X131589Y31000D01*
X131316Y32373D01*
X130538Y33538D01*
X129373Y34316D01*
X128000Y34589D01*
X126627Y34316D01*
X125462Y33538D01*
X124684Y32373D01*
X124411Y31000D01*
X124684Y29627D01*
X125257Y28770D01*
X124872Y27723D01*
X124694Y27500D01*
X121549D01*
Y32500D01*
X121532Y32583D01*
X121543Y32667D01*
X121479Y33646D01*
X121414Y33888D01*
X121398Y34139D01*
X120891Y36030D01*
X120744Y36329D01*
X120636Y36645D01*
X119657Y38340D01*
X119438Y38591D01*
X119252Y38868D01*
X117868Y40252D01*
X117591Y40438D01*
X117340Y40658D01*
X115645Y41637D01*
X115329Y41744D01*
X115030Y41891D01*
X113139Y42398D01*
X112806Y42420D01*
X112479Y42485D01*
X110521D01*
X110194Y42420D01*
X109861Y42398D01*
X107970Y41891D01*
X107671Y41744D01*
X107355Y41636D01*
X105660Y40658D01*
X105409Y40438D01*
X105132Y40252D01*
X103748Y38868D01*
X103562Y38591D01*
X103343Y38340D01*
X102364Y36645D01*
X102256Y36329D01*
X102109Y36030D01*
X101602Y34139D01*
X101586Y33888D01*
X101521Y33646D01*
X101457Y32667D01*
X101468Y32583D01*
X101451Y32500D01*
Y27500D01*
X91923D01*
X91244Y28770D01*
X91316Y28877D01*
X91589Y30250D01*
X91316Y31623D01*
X90538Y32788D01*
X89373Y33566D01*
X89273Y33586D01*
X88199Y34203D01*
X88351Y34966D01*
X88607Y36252D01*
X88199Y38300D01*
X87039Y40037D01*
X85302Y41197D01*
X83254Y41605D01*
X81206Y41197D01*
X80004Y40394D01*
X78802Y41197D01*
X76754Y41605D01*
X74705Y41197D01*
X72969Y40037D01*
X71808Y38300D01*
X71401Y36252D01*
X71808Y34203D01*
X72969Y32467D01*
X74705Y31306D01*
X76754Y30899D01*
X78802Y31306D01*
X80004Y32109D01*
X81206Y31306D01*
X83246Y30901D01*
X83902Y30759D01*
X84411Y30250D01*
X84684Y28877D01*
X84755Y28770D01*
X84077Y27500D01*
X23719D01*
X23655Y27819D01*
X23559Y28052D01*
X23510Y28298D01*
X22910Y29746D01*
X22771Y29955D01*
X22675Y30187D01*
X21803Y31491D01*
X21626Y31669D01*
X21486Y31878D01*
X20378Y32986D01*
X20169Y33126D01*
X19991Y33303D01*
X18687Y34175D01*
X18455Y34271D01*
X18247Y34410D01*
X18018Y34505D01*
X17877Y35938D01*
X18288Y36212D01*
X19066Y37377D01*
X19339Y38750D01*
X19066Y40123D01*
X18288Y41288D01*
X17123Y42066D01*
X15750Y42339D01*
X14377Y42066D01*
X13212Y41288D01*
X12434Y40123D01*
X12161Y38750D01*
X12434Y37377D01*
X12807Y36819D01*
X12128Y35549D01*
X9372D01*
X8693Y36819D01*
X9066Y37377D01*
X9339Y38750D01*
X9066Y40123D01*
X8288Y41288D01*
X7123Y42066D01*
X5750Y42339D01*
X4377Y42066D01*
X3819Y41693D01*
X2549Y42372D01*
Y62878D01*
X3819Y63557D01*
X4377Y63184D01*
X5750Y62911D01*
X7123Y63184D01*
X8288Y63962D01*
X8816Y64752D01*
X10012Y64256D01*
X9911Y63750D01*
X10184Y62377D01*
X10962Y61212D01*
X12127Y60434D01*
X13500Y60161D01*
X14873Y60434D01*
X16038Y61212D01*
X16816Y62377D01*
X17089Y63750D01*
X16816Y65123D01*
X16038Y66288D01*
X14873Y67066D01*
X13500Y67339D01*
X12127Y67066D01*
X10962Y66288D01*
X10434Y65498D01*
X9238Y65994D01*
X9339Y66500D01*
X9066Y67873D01*
X8288Y69038D01*
X7123Y69816D01*
X5750Y70089D01*
X4377Y69816D01*
X3819Y69443D01*
X2549Y70122D01*
Y72878D01*
X3819Y73557D01*
X4377Y73184D01*
X5750Y72911D01*
X7123Y73184D01*
X8288Y73962D01*
X9066Y75126D01*
X9339Y76500D01*
X9066Y77873D01*
X8288Y79038D01*
X7123Y79816D01*
X5750Y80089D01*
X4377Y79816D01*
X3819Y79443D01*
X2549Y80122D01*
Y82878D01*
X3819Y83557D01*
X4377Y83184D01*
X5750Y82911D01*
X7123Y83184D01*
X8288Y83962D01*
X9066Y85126D01*
X9339Y86500D01*
X9066Y87873D01*
X8288Y89038D01*
X7123Y89816D01*
X5750Y90089D01*
X4377Y89816D01*
X3819Y89443D01*
X2549Y90122D01*
Y92878D01*
X3819Y93557D01*
X4377Y93184D01*
X5750Y92911D01*
X7123Y93184D01*
X8288Y93962D01*
X9066Y95126D01*
X9339Y96500D01*
X9066Y97873D01*
X8288Y99038D01*
X7123Y99816D01*
X5750Y100089D01*
X4377Y99816D01*
X3819Y99443D01*
X2549Y100122D01*
Y102878D01*
X3819Y103557D01*
X4377Y103184D01*
X5750Y102911D01*
X7123Y103184D01*
X8288Y103962D01*
X9066Y105126D01*
X9339Y106500D01*
X9066Y107873D01*
X8288Y109038D01*
X7123Y109816D01*
X5750Y110089D01*
X4377Y109816D01*
X3819Y109443D01*
X2549Y110122D01*
Y112878D01*
X3819Y113557D01*
X4377Y113184D01*
X5750Y112911D01*
X7123Y113184D01*
X8288Y113962D01*
X9066Y115126D01*
X9339Y116500D01*
X9066Y117873D01*
X8288Y119038D01*
X7123Y119816D01*
X5750Y120089D01*
X4377Y119816D01*
X3819Y119443D01*
X2549Y120122D01*
Y162878D01*
X3819Y163557D01*
X4377Y163184D01*
X5750Y162911D01*
X7123Y163184D01*
X8288Y163962D01*
X9066Y165126D01*
X9339Y166500D01*
X9066Y167873D01*
X8288Y169038D01*
X7123Y169816D01*
X5750Y170089D01*
X4377Y169816D01*
X3819Y169443D01*
X2549Y170122D01*
Y172878D01*
X3819Y173557D01*
X4377Y173184D01*
X5750Y172911D01*
X7123Y173184D01*
X8288Y173962D01*
X9066Y175126D01*
X9339Y176500D01*
X9066Y177873D01*
X8288Y179038D01*
X7123Y179816D01*
X5750Y180089D01*
X4377Y179816D01*
X3819Y179443D01*
X2549Y180122D01*
Y182878D01*
X3819Y183557D01*
X4377Y183184D01*
X5750Y182911D01*
X7123Y183184D01*
X8288Y183962D01*
X9066Y185126D01*
X9339Y186500D01*
X9066Y187873D01*
X8288Y189038D01*
X7123Y189816D01*
X5750Y190089D01*
X4377Y189816D01*
X3819Y189443D01*
X2549Y190122D01*
Y192878D01*
X3819Y193557D01*
X4377Y193184D01*
X5750Y192911D01*
X7123Y193184D01*
X8288Y193962D01*
X9066Y195126D01*
X9339Y196500D01*
X9066Y197873D01*
X8288Y199038D01*
X7123Y199816D01*
X5750Y200089D01*
X4377Y199816D01*
X3819Y199443D01*
X2549Y200122D01*
Y202878D01*
X3819Y203557D01*
X4377Y203184D01*
X5750Y202911D01*
X7123Y203184D01*
X8288Y203962D01*
X9066Y205126D01*
X9339Y206500D01*
X9066Y207873D01*
X8288Y209038D01*
X7123Y209816D01*
X5750Y210089D01*
X4377Y209816D01*
X3819Y209443D01*
X2549Y210122D01*
Y212878D01*
X3819Y213557D01*
X4377Y213184D01*
X5750Y212911D01*
X7123Y213184D01*
X8288Y213962D01*
X9066Y215126D01*
X9339Y216500D01*
X9066Y217873D01*
X8288Y219038D01*
X7123Y219816D01*
X5750Y220089D01*
X4377Y219816D01*
X3819Y219443D01*
X2549Y220122D01*
Y222878D01*
X3819Y223557D01*
X4377Y223184D01*
X5750Y222911D01*
X7123Y223184D01*
X8288Y223962D01*
X9066Y225126D01*
X9339Y226500D01*
X9066Y227873D01*
X8288Y229038D01*
X7123Y229816D01*
X5750Y230089D01*
X4377Y229816D01*
X3819Y229443D01*
X2549Y230122D01*
Y232878D01*
X3819Y233557D01*
X4377Y233184D01*
X5750Y232911D01*
X7123Y233184D01*
X8288Y233962D01*
X9066Y235126D01*
X9339Y236500D01*
X9066Y237873D01*
X8288Y239038D01*
X7123Y239816D01*
X5750Y240089D01*
X4377Y239816D01*
X3819Y239443D01*
X2549Y240122D01*
Y242878D01*
X3819Y243557D01*
X4377Y243184D01*
X5750Y242911D01*
X7123Y243184D01*
X8288Y243962D01*
X9066Y245126D01*
X9339Y246500D01*
X9066Y247873D01*
X8288Y249038D01*
X7123Y249816D01*
X5750Y250089D01*
X4377Y249816D01*
X3819Y249443D01*
X2549Y250122D01*
Y252878D01*
X3819Y253557D01*
X4377Y253184D01*
X5750Y252911D01*
X7123Y253184D01*
X8288Y253962D01*
X9066Y255126D01*
X9339Y256500D01*
X9066Y257873D01*
X8288Y259038D01*
X7123Y259816D01*
X5750Y260089D01*
X4377Y259816D01*
X3819Y259443D01*
X2549Y260122D01*
Y262878D01*
X3819Y263557D01*
X4377Y263184D01*
X5750Y262911D01*
X7123Y263184D01*
X8288Y263962D01*
X9066Y265126D01*
X9339Y266500D01*
X9066Y267873D01*
X8288Y269038D01*
X7123Y269816D01*
X5750Y270089D01*
X4377Y269816D01*
X3819Y269443D01*
X2549Y270122D01*
Y272878D01*
X3819Y273557D01*
X4377Y273184D01*
X5750Y272911D01*
X7123Y273184D01*
X8288Y273962D01*
X9066Y275126D01*
X9339Y276500D01*
X9066Y277873D01*
X8288Y279038D01*
X7123Y279816D01*
X5750Y280089D01*
X4377Y279816D01*
X3819Y279443D01*
X2549Y280122D01*
Y282878D01*
X3819Y283557D01*
X4377Y283184D01*
X5750Y282911D01*
X7123Y283184D01*
X8288Y283962D01*
X9066Y285126D01*
X9339Y286500D01*
X9066Y287873D01*
X8288Y289038D01*
X7123Y289816D01*
X5750Y290089D01*
X4377Y289816D01*
X3819Y289443D01*
X2549Y290122D01*
Y292878D01*
X3819Y293557D01*
X4377Y293184D01*
X5750Y292911D01*
X7123Y293184D01*
X8288Y293962D01*
X9066Y295126D01*
X9339Y296500D01*
X9066Y297873D01*
X8288Y299038D01*
X7123Y299816D01*
X5750Y300089D01*
X4377Y299816D01*
X3819Y299443D01*
X2549Y300122D01*
Y302878D01*
X3819Y303557D01*
X4377Y303184D01*
X5750Y302911D01*
X7123Y303184D01*
X8288Y303962D01*
X9066Y305126D01*
X9339Y306500D01*
X9066Y307873D01*
X8288Y309038D01*
X7123Y309816D01*
X5750Y310089D01*
X4377Y309816D01*
X3819Y309443D01*
X2549Y310122D01*
Y312878D01*
X3819Y313557D01*
X4377Y313184D01*
X5750Y312911D01*
X7123Y313184D01*
X8288Y313962D01*
X9066Y315126D01*
X9339Y316500D01*
X9066Y317873D01*
X8288Y319038D01*
X7123Y319816D01*
X5750Y320089D01*
X4377Y319816D01*
X3819Y319443D01*
X2549Y320122D01*
Y322878D01*
X3819Y323557D01*
X4377Y323184D01*
X5750Y322911D01*
X7123Y323184D01*
X8288Y323962D01*
X9066Y325127D01*
X9339Y326500D01*
X9066Y327873D01*
X8288Y329038D01*
X7123Y329816D01*
X5750Y330089D01*
X4377Y329816D01*
X3819Y329443D01*
X2549Y330122D01*
Y332878D01*
X3819Y333557D01*
X4377Y333184D01*
X5750Y332911D01*
X7123Y333184D01*
X8288Y333962D01*
X9066Y335127D01*
X9339Y336500D01*
X9066Y337873D01*
X8288Y339038D01*
X7123Y339816D01*
X5750Y340089D01*
X4377Y339816D01*
X3819Y339443D01*
X2549Y340122D01*
Y342878D01*
X3819Y343557D01*
X4377Y343184D01*
X5750Y342911D01*
X7123Y343184D01*
X8288Y343962D01*
X9066Y345127D01*
X9339Y346500D01*
X9066Y347873D01*
X8288Y349038D01*
X7123Y349816D01*
X5750Y350089D01*
X4377Y349816D01*
X3819Y349443D01*
X2549Y350122D01*
Y352878D01*
X3819Y353557D01*
X4377Y353184D01*
X5750Y352911D01*
X7123Y353184D01*
X8288Y353962D01*
X9066Y355127D01*
X9339Y356500D01*
X9066Y357873D01*
X8288Y359038D01*
X7123Y359816D01*
X5750Y360089D01*
X4377Y359816D01*
X3819Y359443D01*
X2549Y360122D01*
Y362878D01*
X3819Y363557D01*
X4377Y363184D01*
X5750Y362911D01*
X7123Y363184D01*
X8288Y363962D01*
X9066Y365127D01*
X9339Y366500D01*
X9066Y367873D01*
X8674Y368460D01*
X9353Y369730D01*
X12147D01*
X12826Y368460D01*
X12434Y367873D01*
X12161Y366500D01*
X12434Y365127D01*
X13212Y363962D01*
X14377Y363184D01*
X15750Y362911D01*
X17123Y363184D01*
X18288Y363962D01*
X19066Y365127D01*
X19339Y366500D01*
X19066Y367873D01*
X18674Y368460D01*
X19353Y369730D01*
X22147D01*
X22826Y368460D01*
X22434Y367873D01*
X22161Y366500D01*
X22434Y365127D01*
X23212Y363962D01*
X24377Y363184D01*
X25750Y362911D01*
X27123Y363184D01*
X28288Y363962D01*
X29066Y365127D01*
X29339Y366500D01*
X29066Y367873D01*
X28674Y368460D01*
X29353Y369730D01*
X32147D01*
X32826Y368460D01*
X32434Y367873D01*
X32161Y366500D01*
X32434Y365127D01*
X33212Y363962D01*
X34377Y363184D01*
X35750Y362911D01*
X37123Y363184D01*
X38288Y363962D01*
X39066Y365127D01*
X39339Y366500D01*
X39066Y367873D01*
X38674Y368460D01*
X39353Y369730D01*
X42147D01*
X42826Y368460D01*
X42434Y367873D01*
X42161Y366500D01*
X42434Y365127D01*
X43212Y363962D01*
X44377Y363184D01*
X45750Y362911D01*
X47123Y363184D01*
X48288Y363962D01*
X49066Y365127D01*
X49339Y366500D01*
X49066Y367873D01*
X48674Y368460D01*
X49353Y369730D01*
X52147D01*
X52826Y368460D01*
X52434Y367873D01*
X52161Y366500D01*
X52434Y365127D01*
X53212Y363962D01*
X54377Y363184D01*
X55750Y362911D01*
X57123Y363184D01*
X58288Y363962D01*
X59066Y365127D01*
X59339Y366500D01*
X59066Y367873D01*
X58674Y368460D01*
X59270Y369730D01*
X60540Y370326D01*
X61127Y369934D01*
X62500Y369661D01*
X63873Y369934D01*
X65038Y370712D01*
X65816Y371876D01*
X66089Y373250D01*
X65816Y374623D01*
X65038Y375788D01*
X63873Y376566D01*
X62500Y376839D01*
X61127Y376566D01*
X60540Y376174D01*
X59270Y376853D01*
Y379647D01*
X60540Y380326D01*
X61127Y379934D01*
X62500Y379661D01*
X63873Y379934D01*
X65038Y380712D01*
X65816Y381877D01*
X66089Y383250D01*
X65816Y384623D01*
X65038Y385788D01*
X63873Y386566D01*
X62500Y386839D01*
X61127Y386566D01*
X60540Y386174D01*
X59270Y386853D01*
Y389647D01*
X60540Y390326D01*
X61127Y389934D01*
X62500Y389661D01*
X63873Y389934D01*
X65038Y390712D01*
X65816Y391877D01*
X66089Y393250D01*
X65816Y394623D01*
X65038Y395788D01*
X63873Y396566D01*
X62500Y396839D01*
X61127Y396566D01*
X60540Y396174D01*
X59270Y396853D01*
Y399647D01*
X60540Y400326D01*
X61127Y399934D01*
X62500Y399661D01*
X63873Y399934D01*
X65038Y400712D01*
X65816Y401877D01*
X66089Y403250D01*
X65816Y404623D01*
X65038Y405788D01*
X63873Y406566D01*
X62500Y406839D01*
X61127Y406566D01*
X60540Y406174D01*
X59270Y406853D01*
Y409647D01*
X60540Y410326D01*
X61127Y409934D01*
X62500Y409661D01*
X63873Y409934D01*
X65038Y410712D01*
X65816Y411877D01*
X66089Y413250D01*
X65816Y414623D01*
X65038Y415788D01*
X63873Y416566D01*
X62500Y416839D01*
X61127Y416566D01*
X60540Y416174D01*
X59270Y416853D01*
Y419647D01*
X60540Y420326D01*
X61127Y419934D01*
X62500Y419661D01*
X63873Y419934D01*
X65038Y420712D01*
X65816Y421877D01*
X66089Y423250D01*
X65816Y424623D01*
X65443Y425181D01*
X66122Y426451D01*
X240730D01*
Y406853D01*
D02*
G37*
G36*
X269565Y364393D02*
X269695Y364385D01*
X269834Y364367D01*
X269998Y364341D01*
X270163Y364307D01*
X270336Y364263D01*
X270345D01*
X270353Y364255D01*
X270379Y364246D01*
X270414Y364237D01*
X270500Y364211D01*
X270604Y364168D01*
X270726Y364108D01*
X270856Y364038D01*
X270994Y363960D01*
X271124Y363865D01*
X271141Y363856D01*
X271185Y363813D01*
X271245Y363761D01*
X271323Y363683D01*
X271410Y363579D01*
X271497Y363466D01*
X271592Y363337D01*
X271670Y363189D01*
Y363181D01*
X271678Y363172D01*
X271687Y363146D01*
X271704Y363120D01*
X271730Y363033D01*
X271774Y362921D01*
X271808Y362782D01*
X271834Y362618D01*
X271860Y362444D01*
X271869Y362245D01*
Y362237D01*
Y362219D01*
Y362193D01*
Y362159D01*
X271860Y362055D01*
X271843Y361934D01*
X271826Y361795D01*
X271791Y361639D01*
X271748Y361483D01*
X271687Y361336D01*
X271678Y361319D01*
X271652Y361275D01*
X271618Y361197D01*
X271566Y361111D01*
X271497Y360998D01*
X271418Y360885D01*
X271323Y360764D01*
X271219Y360652D01*
X271211Y360643D01*
X271167Y360600D01*
X271115Y360548D01*
X271037Y360478D01*
X270942Y360400D01*
X270838Y360322D01*
X270717Y360236D01*
X270596Y360158D01*
X270578Y360149D01*
X270535Y360123D01*
X270466Y360080D01*
X270379Y360028D01*
X270275Y359959D01*
X270154Y359872D01*
X270015Y359777D01*
X269877Y359673D01*
X269868Y359664D01*
X269825Y359638D01*
X269773Y359604D01*
X269704Y359552D01*
X269617Y359491D01*
X269530Y359430D01*
X269331Y359283D01*
X269322Y359274D01*
X269288Y359248D01*
X269244Y359214D01*
X269184Y359162D01*
X269106Y359101D01*
X269028Y359032D01*
X268872Y358867D01*
X268863Y358859D01*
X268837Y358824D01*
X268803Y358781D01*
X268751Y358720D01*
X268699Y358651D01*
X268638Y358564D01*
X268534Y358374D01*
X268526Y358365D01*
X268517Y358330D01*
X268491Y358278D01*
X268474Y358209D01*
X268448Y358122D01*
X268422Y358027D01*
X268413Y357932D01*
X268404Y357819D01*
Y357767D01*
X271774D01*
Y356598D01*
X267131D01*
Y357265D01*
Y357274D01*
Y357291D01*
Y357334D01*
Y357378D01*
Y357438D01*
X267140Y357508D01*
X267148Y357663D01*
X267157Y357845D01*
X267183Y358045D01*
X267209Y358244D01*
X267252Y358434D01*
Y358443D01*
X267261Y358460D01*
X267270Y358486D01*
X267278Y358521D01*
X267304Y358616D01*
X267348Y358737D01*
X267408Y358876D01*
X267469Y359023D01*
X267547Y359179D01*
X267642Y359335D01*
Y359344D01*
X267651Y359352D01*
X267694Y359404D01*
X267746Y359482D01*
X267824Y359578D01*
X267919Y359690D01*
X268041Y359811D01*
X268171Y359941D01*
X268309Y360063D01*
X268318D01*
X268326Y360080D01*
X268352Y360097D01*
X268378Y360123D01*
X268465Y360184D01*
X268578Y360271D01*
X268725Y360374D01*
X268889Y360487D01*
X269071Y360617D01*
X269279Y360747D01*
X269288Y360756D01*
X269314Y360764D01*
X269348Y360790D01*
X269400Y360825D01*
X269461Y360868D01*
X269530Y360911D01*
X269695Y361015D01*
X269704Y361024D01*
X269738Y361041D01*
X269781Y361076D01*
X269842Y361119D01*
X269911Y361163D01*
X269981Y361223D01*
X270137Y361353D01*
X270145Y361362D01*
X270171Y361388D01*
X270206Y361422D01*
X270258Y361474D01*
X270310Y361526D01*
X270362Y361596D01*
X270466Y361743D01*
X270474Y361752D01*
X270483Y361778D01*
X270509Y361821D01*
X270535Y361881D01*
X270552Y361951D01*
X270578Y362029D01*
X270587Y362115D01*
X270596Y362211D01*
Y362219D01*
Y362245D01*
Y362280D01*
X270587Y362332D01*
X270561Y362453D01*
X270509Y362592D01*
Y362600D01*
X270492Y362626D01*
X270474Y362661D01*
X270448Y362704D01*
X270371Y362808D01*
X270275Y362921D01*
X270266Y362929D01*
X270249Y362947D01*
X270215Y362973D01*
X270180Y362999D01*
X270128Y363033D01*
X270067Y363077D01*
X269937Y363146D01*
X269929D01*
X269903Y363163D01*
X269868Y363172D01*
X269816Y363189D01*
X269755Y363207D01*
X269695Y363215D01*
X269548Y363233D01*
X269452D01*
X269383Y363224D01*
X269296Y363215D01*
X269210Y363207D01*
X269002Y363163D01*
X268993D01*
X268950Y363155D01*
X268898Y363137D01*
X268829Y363120D01*
X268742Y363094D01*
X268647Y363068D01*
X268439Y362999D01*
X268430Y362990D01*
X268396Y362981D01*
X268335Y362956D01*
X268266Y362929D01*
X268188Y362895D01*
X268092Y362852D01*
X267902Y362748D01*
X267893Y362739D01*
X267859Y362722D01*
X267798Y362696D01*
X267729Y362661D01*
X267633Y362609D01*
X267530Y362557D01*
X267400Y362496D01*
X267261Y362436D01*
Y363726D01*
X267270Y363735D01*
X267287Y363744D01*
X267313Y363761D01*
X267348Y363787D01*
X267391Y363813D01*
X267443Y363848D01*
X267573Y363926D01*
X267720Y364012D01*
X267902Y364099D01*
X268092Y364177D01*
X268300Y364246D01*
X268309D01*
X268326Y364255D01*
X268352Y364263D01*
X268396Y364272D01*
X268448Y364281D01*
X268508Y364298D01*
X268647Y364324D01*
X268811Y364350D01*
X268993Y364376D01*
X269184Y364393D01*
X269383Y364402D01*
X269470D01*
X269565Y364393D01*
D02*
G37*
%LPC*%
G36*
X244250Y359089D02*
X242877Y358816D01*
X241712Y358038D01*
X240934Y356873D01*
X240661Y355500D01*
X240934Y354127D01*
X241712Y352962D01*
X242877Y352184D01*
X244250Y351911D01*
X245623Y352184D01*
X246788Y352962D01*
X247566Y354127D01*
X247839Y355500D01*
X247566Y356873D01*
X246788Y358038D01*
X245623Y358816D01*
X244250Y359089D01*
D02*
G37*
G36*
X213000Y356839D02*
X211627Y356566D01*
X210462Y355788D01*
X209684Y354623D01*
X209411Y353250D01*
X209684Y351877D01*
X210462Y350712D01*
X211627Y349934D01*
X213000Y349661D01*
X214373Y349934D01*
X215538Y350712D01*
X216316Y351877D01*
X216589Y353250D01*
X216316Y354623D01*
X215538Y355788D01*
X214373Y356566D01*
X213000Y356839D01*
D02*
G37*
G36*
X172750D02*
X171377Y356566D01*
X170212Y355788D01*
X169434Y354623D01*
X169161Y353250D01*
X169434Y351877D01*
X170212Y350712D01*
X171377Y349934D01*
X172750Y349661D01*
X174123Y349934D01*
X175288Y350712D01*
X176066Y351877D01*
X176339Y353250D01*
X176066Y354623D01*
X175288Y355788D01*
X174123Y356566D01*
X172750Y356839D01*
D02*
G37*
G36*
X92750D02*
X91377Y356566D01*
X90212Y355788D01*
X89434Y354623D01*
X89161Y353250D01*
X89434Y351877D01*
X90212Y350712D01*
X91377Y349934D01*
X92750Y349661D01*
X94123Y349934D01*
X95288Y350712D01*
X96066Y351877D01*
X96339Y353250D01*
X96066Y354623D01*
X95288Y355788D01*
X94123Y356566D01*
X92750Y356839D01*
D02*
G37*
G36*
X34841Y356089D02*
X33467Y355816D01*
X32303Y355038D01*
X31525Y353873D01*
X31251Y352500D01*
X31525Y351127D01*
X32303Y349962D01*
X33467Y349184D01*
X34841Y348911D01*
X36214Y349184D01*
X37378Y349962D01*
X38156Y351127D01*
X38429Y352500D01*
X38156Y353873D01*
X37378Y355038D01*
X36214Y355816D01*
X34841Y356089D01*
D02*
G37*
G36*
X146500Y352839D02*
X145127Y352566D01*
X143962Y351788D01*
X143184Y350623D01*
X142911Y349250D01*
X143184Y347877D01*
X143962Y346712D01*
X145127Y345934D01*
X146500Y345661D01*
X147873Y345934D01*
X149038Y346712D01*
X149816Y347877D01*
X150089Y349250D01*
X149816Y350623D01*
X149038Y351788D01*
X147873Y352566D01*
X146500Y352839D01*
D02*
G37*
G36*
X284250Y349089D02*
X282877Y348816D01*
X281712Y348038D01*
X280934Y346873D01*
X280661Y345500D01*
X280934Y344127D01*
X281712Y342962D01*
X282877Y342184D01*
X284250Y341911D01*
X285623Y342184D01*
X286788Y342962D01*
X287566Y344127D01*
X287839Y345500D01*
X287566Y346873D01*
X286788Y348038D01*
X285623Y348816D01*
X284250Y349089D01*
D02*
G37*
G36*
X274250D02*
X272877Y348816D01*
X271712Y348038D01*
X270934Y346873D01*
X270661Y345500D01*
X270934Y344127D01*
X271712Y342962D01*
X272877Y342184D01*
X274250Y341911D01*
X275623Y342184D01*
X276788Y342962D01*
X277566Y344127D01*
X277839Y345500D01*
X277566Y346873D01*
X276788Y348038D01*
X275623Y348816D01*
X274250Y349089D01*
D02*
G37*
G36*
X264250D02*
X262877Y348816D01*
X261712Y348038D01*
X260934Y346873D01*
X260661Y345500D01*
X260934Y344127D01*
X261712Y342962D01*
X262877Y342184D01*
X264250Y341911D01*
X265623Y342184D01*
X266788Y342962D01*
X267566Y344127D01*
X267839Y345500D01*
X267566Y346873D01*
X266788Y348038D01*
X265623Y348816D01*
X264250Y349089D01*
D02*
G37*
G36*
X254250D02*
X252877Y348816D01*
X251712Y348038D01*
X250934Y346873D01*
X250661Y345500D01*
X250934Y344127D01*
X251712Y342962D01*
X252877Y342184D01*
X254250Y341911D01*
X255623Y342184D01*
X256788Y342962D01*
X257566Y344127D01*
X257839Y345500D01*
X257566Y346873D01*
X256788Y348038D01*
X255623Y348816D01*
X254250Y349089D01*
D02*
G37*
G36*
X244250D02*
X242877Y348816D01*
X241712Y348038D01*
X240934Y346873D01*
X240661Y345500D01*
X240934Y344127D01*
X241712Y342962D01*
X242877Y342184D01*
X244250Y341911D01*
X245623Y342184D01*
X246788Y342962D01*
X247566Y344127D01*
X247839Y345500D01*
X247566Y346873D01*
X246788Y348038D01*
X245623Y348816D01*
X244250Y349089D01*
D02*
G37*
G36*
X77500Y341089D02*
X76127Y340816D01*
X74962Y340038D01*
X74184Y338873D01*
X73911Y337500D01*
X74184Y336127D01*
X74962Y334962D01*
X76127Y334184D01*
X77500Y333911D01*
X78873Y334184D01*
X80038Y334962D01*
X80816Y336127D01*
X81089Y337500D01*
X80816Y338873D01*
X80038Y340038D01*
X78873Y340816D01*
X77500Y341089D01*
D02*
G37*
G36*
X252250Y335163D02*
X250877Y334890D01*
X249712Y334112D01*
X248934Y332948D01*
X248661Y331574D01*
X248934Y330201D01*
X249712Y329036D01*
X250877Y328258D01*
X252250Y327985D01*
X253623Y328258D01*
X254788Y329036D01*
X255566Y330201D01*
X255839Y331574D01*
X255566Y332948D01*
X254788Y334112D01*
X253623Y334890D01*
X252250Y335163D01*
D02*
G37*
G36*
X214055Y335089D02*
X212681Y334816D01*
X211517Y334038D01*
X210739Y332873D01*
X210466Y331500D01*
X210739Y330127D01*
X211517Y328962D01*
X212681Y328184D01*
X214055Y327911D01*
X215428Y328184D01*
X216592Y328962D01*
X217370Y330127D01*
X217644Y331500D01*
X217370Y332873D01*
X216592Y334038D01*
X215428Y334816D01*
X214055Y335089D01*
D02*
G37*
G36*
X100572Y330339D02*
X99199Y330066D01*
X98034Y329288D01*
X97256Y328123D01*
X96983Y326750D01*
X97256Y325377D01*
X98034Y324212D01*
X99199Y323434D01*
X100572Y323161D01*
X101945Y323434D01*
X103110Y324212D01*
X103888Y325377D01*
X104161Y326750D01*
X103888Y328123D01*
X103110Y329288D01*
X101945Y330066D01*
X100572Y330339D01*
D02*
G37*
G36*
X166597Y324589D02*
X165223Y324316D01*
X164059Y323538D01*
X163281Y322373D01*
X163008Y321000D01*
X163281Y319627D01*
X164059Y318462D01*
X165223Y317684D01*
X166597Y317411D01*
X167970Y317684D01*
X169135Y318462D01*
X169913Y319627D01*
X170186Y321000D01*
X169913Y322373D01*
X169135Y323538D01*
X167970Y324316D01*
X166597Y324589D01*
D02*
G37*
G36*
X53750D02*
X52377Y324316D01*
X51212Y323538D01*
X50434Y322373D01*
X50161Y321000D01*
X50434Y319627D01*
X51212Y318462D01*
X52377Y317684D01*
X53750Y317411D01*
X55123Y317684D01*
X56288Y318462D01*
X57066Y319627D01*
X57339Y321000D01*
X57066Y322373D01*
X56288Y323538D01*
X55123Y324316D01*
X53750Y324589D01*
D02*
G37*
G36*
X44500D02*
X43127Y324316D01*
X41962Y323538D01*
X41184Y322373D01*
X40911Y321000D01*
X41184Y319627D01*
X41962Y318462D01*
X43127Y317684D01*
X44500Y317411D01*
X45873Y317684D01*
X47038Y318462D01*
X47816Y319627D01*
X48089Y321000D01*
X47816Y322373D01*
X47038Y323538D01*
X45873Y324316D01*
X44500Y324589D01*
D02*
G37*
G36*
X35500D02*
X34127Y324316D01*
X32962Y323538D01*
X32184Y322373D01*
X31911Y321000D01*
X32184Y319627D01*
X32962Y318462D01*
X34127Y317684D01*
X35500Y317411D01*
X36873Y317684D01*
X38038Y318462D01*
X38816Y319627D01*
X39089Y321000D01*
X38816Y322373D01*
X38038Y323538D01*
X36873Y324316D01*
X35500Y324589D01*
D02*
G37*
G36*
X26500D02*
X25127Y324316D01*
X23962Y323538D01*
X23184Y322373D01*
X22911Y321000D01*
X23184Y319627D01*
X23962Y318462D01*
X25127Y317684D01*
X26500Y317411D01*
X27873Y317684D01*
X29038Y318462D01*
X29816Y319627D01*
X30089Y321000D01*
X29816Y322373D01*
X29038Y323538D01*
X27873Y324316D01*
X26500Y324589D01*
D02*
G37*
G36*
X17500D02*
X16127Y324316D01*
X14962Y323538D01*
X14184Y322373D01*
X13911Y321000D01*
X14184Y319627D01*
X14962Y318462D01*
X16127Y317684D01*
X17500Y317411D01*
X18873Y317684D01*
X20038Y318462D01*
X20816Y319627D01*
X21089Y321000D01*
X20816Y322373D01*
X20038Y323538D01*
X18873Y324316D01*
X17500Y324589D01*
D02*
G37*
G36*
X151250Y315620D02*
X149877Y315347D01*
X148712Y314569D01*
X147934Y313405D01*
X147748Y312467D01*
X147283Y312332D01*
X146426Y312332D01*
X145788Y313288D01*
X144623Y314066D01*
X143250Y314339D01*
X141877Y314066D01*
X140712Y313288D01*
X139934Y312123D01*
X139661Y310750D01*
X139934Y309377D01*
X140712Y308212D01*
X141877Y307434D01*
X143250Y307161D01*
X144623Y307434D01*
X145788Y308212D01*
X146566Y309377D01*
X146752Y310315D01*
X147217Y310450D01*
X148074Y310449D01*
X148712Y309493D01*
X149877Y308715D01*
X151250Y308442D01*
X152623Y308715D01*
X153788Y309493D01*
X154566Y310658D01*
X154839Y312031D01*
X154566Y313405D01*
X153788Y314569D01*
X152623Y315347D01*
X151250Y315620D01*
D02*
G37*
G36*
X230389Y315157D02*
X229015Y314884D01*
X227851Y314106D01*
X227073Y312941D01*
X226800Y311568D01*
X227073Y310195D01*
X227851Y309030D01*
X229015Y308252D01*
X230389Y307979D01*
X231762Y308252D01*
X232927Y309030D01*
X233704Y310195D01*
X233978Y311568D01*
X233704Y312941D01*
X232927Y314106D01*
X231762Y314884D01*
X230389Y315157D01*
D02*
G37*
G36*
X121250Y314839D02*
X119877Y314566D01*
X118712Y313788D01*
X117934Y312623D01*
X117661Y311250D01*
X117934Y309877D01*
X118712Y308712D01*
X119877Y307934D01*
X121250Y307661D01*
X122623Y307934D01*
X123788Y308712D01*
X124566Y309877D01*
X124839Y311250D01*
X124566Y312623D01*
X123788Y313788D01*
X122623Y314566D01*
X121250Y314839D01*
D02*
G37*
G36*
X75500Y302067D02*
X74127Y301794D01*
X72962Y301016D01*
X72184Y299852D01*
X71911Y298478D01*
X72184Y297105D01*
X72962Y295940D01*
X74127Y295162D01*
X75500Y294889D01*
X76873Y295162D01*
X78038Y295940D01*
X78816Y297105D01*
X79089Y298478D01*
X78816Y299852D01*
X78038Y301016D01*
X76873Y301794D01*
X75500Y302067D01*
D02*
G37*
G36*
X53500Y300589D02*
X52127Y300316D01*
X50962Y299538D01*
X50184Y298373D01*
X49911Y297000D01*
X50184Y295627D01*
X50962Y294462D01*
X52127Y293684D01*
X53500Y293411D01*
X54873Y293684D01*
X56038Y294462D01*
X56816Y295627D01*
X57089Y297000D01*
X56816Y298373D01*
X56038Y299538D01*
X54873Y300316D01*
X53500Y300589D01*
D02*
G37*
G36*
X22500Y300339D02*
X21127Y300066D01*
X19962Y299288D01*
X19184Y298123D01*
X18911Y296750D01*
X19184Y295377D01*
X19962Y294212D01*
X21127Y293434D01*
X22500Y293161D01*
X23873Y293434D01*
X25038Y294212D01*
X25816Y295377D01*
X26089Y296750D01*
X25816Y298123D01*
X25038Y299288D01*
X23873Y300066D01*
X22500Y300339D01*
D02*
G37*
G36*
X206500Y293839D02*
X205127Y293566D01*
X203962Y292788D01*
X203184Y291623D01*
X202911Y290250D01*
X203184Y288877D01*
X203962Y287712D01*
X205127Y286934D01*
X206500Y286661D01*
X207873Y286934D01*
X209038Y287712D01*
X209816Y288877D01*
X210089Y290250D01*
X209816Y291623D01*
X209038Y292788D01*
X207873Y293566D01*
X206500Y293839D01*
D02*
G37*
G36*
X282500Y293089D02*
X281127Y292816D01*
X279962Y292038D01*
X279184Y290873D01*
X278911Y289500D01*
X279184Y288127D01*
X279962Y286962D01*
X281127Y286184D01*
X282500Y285911D01*
X283873Y286184D01*
X285038Y286962D01*
X285816Y288127D01*
X286089Y289500D01*
X285816Y290873D01*
X285038Y292038D01*
X283873Y292816D01*
X282500Y293089D01*
D02*
G37*
G36*
X144031Y291301D02*
X142658Y291028D01*
X141493Y290250D01*
X140715Y289085D01*
X140442Y287712D01*
X140715Y286339D01*
X141493Y285174D01*
X142658Y284396D01*
X144031Y284123D01*
X145405Y284396D01*
X146569Y285174D01*
X147347Y286339D01*
X147620Y287712D01*
X147347Y289085D01*
X146569Y290250D01*
X145405Y291028D01*
X144031Y291301D01*
D02*
G37*
G36*
X48500Y287672D02*
X47127Y287398D01*
X45962Y286620D01*
X45184Y285456D01*
X44911Y284083D01*
X45184Y282709D01*
X45962Y281545D01*
X47127Y280767D01*
X48500Y280494D01*
X49873Y280767D01*
X51038Y281545D01*
X51816Y282709D01*
X52089Y284083D01*
X51816Y285456D01*
X51038Y286620D01*
X49873Y287398D01*
X48500Y287672D01*
D02*
G37*
G36*
X155985Y291285D02*
X154612Y291011D01*
X153447Y290233D01*
X152669Y289069D01*
X152396Y287696D01*
X152669Y286322D01*
X153447Y285158D01*
X153593Y285061D01*
X153953Y283314D01*
X153919Y283264D01*
X153646Y281891D01*
X153919Y280517D01*
X154697Y279353D01*
X155862Y278575D01*
X157235Y278302D01*
X158609Y278575D01*
X158670Y278616D01*
X160409Y278251D01*
X160518Y278087D01*
X161683Y277309D01*
X163056Y277036D01*
X164430Y277309D01*
X165594Y278087D01*
X166372Y279251D01*
X166645Y280625D01*
X166372Y281998D01*
X165594Y283162D01*
X164430Y283940D01*
X163056Y284214D01*
X161683Y283940D01*
X161621Y283899D01*
X159882Y284265D01*
X159773Y284429D01*
X159628Y284526D01*
X159267Y286272D01*
X159301Y286322D01*
X159574Y287696D01*
X159301Y289069D01*
X158523Y290233D01*
X157359Y291011D01*
X155985Y291285D01*
D02*
G37*
G36*
X25000Y287660D02*
X23627Y287387D01*
X22462Y286609D01*
X21684Y285445D01*
X21411Y284071D01*
X21684Y282698D01*
X22462Y281533D01*
X23627Y280755D01*
X25000Y280482D01*
X26373Y280755D01*
X26633Y280929D01*
X27936Y280890D01*
X28714Y279726D01*
X29874Y278951D01*
X30327Y277837D01*
X30184Y277623D01*
X29911Y276250D01*
X30184Y274877D01*
X30962Y273712D01*
X32127Y272934D01*
X33500Y272661D01*
X34873Y272934D01*
X36038Y273712D01*
X36816Y274877D01*
X37089Y276250D01*
X36816Y277623D01*
X36038Y278788D01*
X34878Y279563D01*
X34425Y280677D01*
X34567Y280890D01*
X34841Y282264D01*
X34567Y283637D01*
X33789Y284802D01*
X32625Y285579D01*
X31251Y285853D01*
X29878Y285579D01*
X29618Y285406D01*
X28316Y285445D01*
X27538Y286609D01*
X26373Y287387D01*
X25000Y287660D01*
D02*
G37*
G36*
X129889Y277159D02*
X128516Y276886D01*
X127351Y276108D01*
X126573Y274943D01*
X126300Y273570D01*
X126573Y272196D01*
X126615Y272135D01*
X126264Y270406D01*
X126085Y270287D01*
X125307Y269122D01*
X125258Y269102D01*
X124191Y269814D01*
X122818Y270088D01*
X121445Y269814D01*
X120280Y269037D01*
X119502Y267872D01*
X119229Y266499D01*
X119502Y265125D01*
X119544Y265063D01*
X119178Y263325D01*
X119014Y263215D01*
X118236Y262051D01*
X118187Y262031D01*
X117120Y262743D01*
X115747Y263017D01*
X114373Y262743D01*
X113209Y261965D01*
X112431Y260801D01*
X112158Y259428D01*
X112431Y258054D01*
X113209Y256890D01*
X114373Y256112D01*
X115747Y255839D01*
X117120Y256112D01*
X118285Y256890D01*
X119063Y258054D01*
X119112Y258074D01*
X120178Y257362D01*
X121552Y257089D01*
X122925Y257362D01*
X124089Y258140D01*
X124867Y259304D01*
X125141Y260678D01*
X124867Y262051D01*
X124826Y262113D01*
X125192Y263852D01*
X125356Y263961D01*
X126134Y265125D01*
X126183Y265146D01*
X127249Y264433D01*
X128623Y264160D01*
X129996Y264433D01*
X131160Y265211D01*
X131938Y266375D01*
X132212Y267749D01*
X131938Y269122D01*
X131897Y269184D01*
X132247Y270912D01*
X132427Y271032D01*
X133205Y272196D01*
X133478Y273570D01*
X133205Y274943D01*
X132427Y276108D01*
X131262Y276886D01*
X129889Y277159D01*
D02*
G37*
G36*
X55000Y274839D02*
X53627Y274566D01*
X52462Y273788D01*
X51684Y272623D01*
X51411Y271250D01*
X51684Y269877D01*
X52462Y268712D01*
X53627Y267934D01*
X55000Y267661D01*
X56373Y267934D01*
X57538Y268712D01*
X58316Y269877D01*
X58589Y271250D01*
X58316Y272623D01*
X57538Y273788D01*
X56373Y274566D01*
X55000Y274839D01*
D02*
G37*
G36*
X152250Y265839D02*
X150877Y265566D01*
X149712Y264788D01*
X148934Y263623D01*
X148661Y262250D01*
X148934Y260877D01*
X149712Y259712D01*
X150877Y258934D01*
X152250Y258661D01*
X153623Y258934D01*
X154788Y259712D01*
X155566Y260877D01*
X155839Y262250D01*
X155566Y263623D01*
X154788Y264788D01*
X153623Y265566D01*
X152250Y265839D01*
D02*
G37*
G36*
X173663Y273607D02*
X172289Y273334D01*
X171125Y272556D01*
X170347Y271391D01*
X170074Y270018D01*
X170347Y268645D01*
X171125Y267480D01*
X171270Y267383D01*
X171631Y265637D01*
X171597Y265587D01*
X171324Y264213D01*
X171597Y262840D01*
X172375Y261675D01*
X173539Y260897D01*
X174913Y260624D01*
X176286Y260897D01*
X176348Y260939D01*
X178087Y260573D01*
X178196Y260409D01*
X178341Y260312D01*
X178702Y258566D01*
X178668Y258516D01*
X178395Y257142D01*
X178668Y255769D01*
X179446Y254604D01*
X180611Y253826D01*
X181984Y253553D01*
X183357Y253826D01*
X184415Y254533D01*
X184489Y254502D01*
X185267Y253338D01*
X186432Y252560D01*
X187805Y252287D01*
X189178Y252560D01*
X190343Y253338D01*
X191121Y254502D01*
X191394Y255876D01*
X191121Y257249D01*
X190343Y258414D01*
X189178Y259191D01*
X187805Y259465D01*
X186432Y259191D01*
X185374Y258485D01*
X185300Y258516D01*
X184522Y259680D01*
X184377Y259777D01*
X184016Y261523D01*
X184050Y261573D01*
X184323Y262947D01*
X184050Y264320D01*
X183272Y265485D01*
X182107Y266263D01*
X180734Y266536D01*
X179361Y266263D01*
X179299Y266221D01*
X177560Y266587D01*
X177451Y266751D01*
X177306Y266848D01*
X176945Y268594D01*
X176979Y268645D01*
X177252Y270018D01*
X176979Y271391D01*
X176201Y272556D01*
X175036Y273334D01*
X173663Y273607D01*
D02*
G37*
G36*
X235250Y259089D02*
X233877Y258816D01*
X232712Y258038D01*
X231934Y256873D01*
X231661Y255500D01*
X231934Y254127D01*
X232712Y252962D01*
X233877Y252184D01*
X235250Y251911D01*
X236623Y252184D01*
X237788Y252962D01*
X238566Y254127D01*
X238839Y255500D01*
X238566Y256873D01*
X237788Y258038D01*
X236623Y258816D01*
X235250Y259089D01*
D02*
G37*
G36*
X241230Y252478D02*
X239857Y252204D01*
X238692Y251427D01*
X237914Y250262D01*
X237641Y248889D01*
X237914Y247515D01*
X238692Y246351D01*
X239857Y245573D01*
X241230Y245300D01*
X242603Y245573D01*
X243768Y246351D01*
X244546Y247515D01*
X244819Y248889D01*
X244546Y250262D01*
X243768Y251427D01*
X242603Y252204D01*
X241230Y252478D01*
D02*
G37*
G36*
X103874Y246589D02*
X102500Y246316D01*
X101336Y245538D01*
X100558Y244373D01*
X100509Y244353D01*
X99443Y245066D01*
X98069Y245339D01*
X96696Y245066D01*
X95531Y244288D01*
X94753Y243123D01*
X94480Y241750D01*
X94753Y240377D01*
X95531Y239212D01*
X96696Y238434D01*
X98069Y238161D01*
X99443Y238434D01*
X100607Y239212D01*
X101385Y240377D01*
X101434Y240397D01*
X102500Y239684D01*
X103874Y239411D01*
X105247Y239684D01*
X106412Y240462D01*
X107190Y241627D01*
X107463Y243000D01*
X107190Y244373D01*
X106412Y245538D01*
X105247Y246316D01*
X103874Y246589D01*
D02*
G37*
G36*
X152448Y245839D02*
X151074Y245566D01*
X149910Y244788D01*
X149132Y243623D01*
X148859Y242250D01*
X149132Y240877D01*
X149910Y239712D01*
X151074Y238934D01*
X152448Y238661D01*
X153821Y238934D01*
X154986Y239712D01*
X155764Y240877D01*
X156037Y242250D01*
X155764Y243623D01*
X154986Y244788D01*
X153821Y245566D01*
X152448Y245839D01*
D02*
G37*
G36*
X75111Y240089D02*
X73738Y239816D01*
X72573Y239038D01*
X71796Y237873D01*
X71522Y236500D01*
X71796Y235127D01*
X72573Y233962D01*
X73738Y233184D01*
X75111Y232911D01*
X76485Y233184D01*
X77649Y233962D01*
X78427Y235127D01*
X78700Y236500D01*
X78427Y237873D01*
X77649Y239038D01*
X76485Y239816D01*
X75111Y240089D01*
D02*
G37*
G36*
X178250Y238839D02*
X176877Y238566D01*
X175712Y237788D01*
X174934Y236623D01*
X174661Y235250D01*
X174934Y233877D01*
X175712Y232712D01*
X176877Y231934D01*
X178250Y231661D01*
X179623Y231934D01*
X180788Y232712D01*
X181566Y233877D01*
X181839Y235250D01*
X181566Y236623D01*
X180788Y237788D01*
X179623Y238566D01*
X178250Y238839D01*
D02*
G37*
G36*
X68000Y234589D02*
X66627Y234316D01*
X65462Y233538D01*
X64684Y232373D01*
X64411Y231000D01*
X64684Y229627D01*
X65462Y228462D01*
X66627Y227684D01*
X68000Y227411D01*
X69373Y227684D01*
X70538Y228462D01*
X71316Y229627D01*
X71589Y231000D01*
X71316Y232373D01*
X70538Y233538D01*
X69373Y234316D01*
X68000Y234589D01*
D02*
G37*
G36*
X138500Y224839D02*
X137127Y224566D01*
X135962Y223788D01*
X135184Y222623D01*
X134911Y221250D01*
X135184Y219877D01*
X135962Y218712D01*
X137127Y217934D01*
X138500Y217661D01*
X139873Y217934D01*
X141038Y218712D01*
X141816Y219877D01*
X142089Y221250D01*
X141816Y222623D01*
X141038Y223788D01*
X139873Y224566D01*
X138500Y224839D01*
D02*
G37*
G36*
X260000Y222808D02*
X258627Y222535D01*
X257462Y221757D01*
X256684Y220593D01*
X256411Y219220D01*
X256684Y217846D01*
X257462Y216682D01*
X258627Y215904D01*
X260000Y215631D01*
X261373Y215904D01*
X262538Y216682D01*
X263316Y217846D01*
X263589Y219220D01*
X263316Y220593D01*
X262538Y221757D01*
X261373Y222535D01*
X260000Y222808D01*
D02*
G37*
G36*
X45124Y203089D02*
X43750Y202816D01*
X42586Y202038D01*
X41808Y200873D01*
X41535Y199500D01*
X41808Y198127D01*
X42586Y196962D01*
X43750Y196184D01*
X45124Y195911D01*
X46497Y196184D01*
X47662Y196962D01*
X48439Y198127D01*
X48713Y199500D01*
X48439Y200873D01*
X47662Y202038D01*
X46497Y202816D01*
X45124Y203089D01*
D02*
G37*
G36*
X233919Y198839D02*
X232546Y198566D01*
X231381Y197788D01*
X230604Y196623D01*
X230330Y195250D01*
X230604Y193877D01*
X231381Y192712D01*
X232546Y191934D01*
X233919Y191661D01*
X235293Y191934D01*
X236457Y192712D01*
X237235Y193877D01*
X237508Y195250D01*
X237235Y196623D01*
X236457Y197788D01*
X235293Y198566D01*
X233919Y198839D01*
D02*
G37*
G36*
X137000Y201089D02*
X135627Y200816D01*
X134462Y200038D01*
X133684Y198873D01*
X133411Y197500D01*
X133684Y196127D01*
X134462Y194962D01*
X135627Y194184D01*
X137000Y193911D01*
X137501Y194011D01*
X138265Y192868D01*
X137934Y192373D01*
X137661Y191000D01*
X137934Y189627D01*
X138712Y188462D01*
X139877Y187684D01*
X141250Y187411D01*
X142623Y187684D01*
X143788Y188462D01*
X144566Y189627D01*
X144839Y191000D01*
X144566Y192373D01*
X143788Y193538D01*
X142623Y194316D01*
X141250Y194589D01*
X140749Y194489D01*
X139986Y195632D01*
X140316Y196127D01*
X140589Y197500D01*
X140316Y198873D01*
X139538Y200038D01*
X138373Y200816D01*
X137000Y201089D01*
D02*
G37*
G36*
X127750Y184125D02*
X127750Y184125D01*
X124750D01*
X124750Y184125D01*
X123778Y183722D01*
X114229Y174173D01*
X113268Y174268D01*
X112104Y175046D01*
X110730Y175319D01*
X109357Y175046D01*
X109295Y175005D01*
X107556Y175370D01*
X107447Y175534D01*
X106283Y176312D01*
X104909Y176585D01*
X103536Y176312D01*
X102372Y175534D01*
X101594Y174370D01*
X101320Y172996D01*
X101594Y171623D01*
X102372Y170459D01*
X103536Y169681D01*
X104909Y169408D01*
X106283Y169681D01*
X106344Y169722D01*
X107986Y169377D01*
X108250Y168194D01*
X102681Y162625D01*
X96327D01*
X95250Y162839D01*
X93877Y162566D01*
X92712Y161788D01*
X91934Y160623D01*
X91661Y159250D01*
X91727Y158921D01*
X85778Y152972D01*
X85375Y152000D01*
X85375Y152000D01*
Y150000D01*
X85375Y150000D01*
X85778Y149028D01*
X85778Y149028D01*
X97528Y137278D01*
X98500Y136875D01*
X98500Y136875D01*
X100091D01*
X100377Y136684D01*
X101750Y136411D01*
X103123Y136684D01*
X103409Y136875D01*
X103750D01*
X103750Y136875D01*
X104722Y137278D01*
X104722Y137278D01*
X109222Y141778D01*
X109625Y142750D01*
X109625Y142750D01*
Y151181D01*
X133222Y174778D01*
X133625Y175750D01*
X133625Y175750D01*
Y178250D01*
X133222Y179222D01*
X128722Y183722D01*
X127750Y184125D01*
D02*
G37*
G36*
X93053Y192997D02*
X91679Y192724D01*
X90515Y191945D01*
X89737Y190781D01*
X89464Y189408D01*
X89737Y188034D01*
X90515Y186870D01*
X91679Y186092D01*
X91700Y186043D01*
X90987Y184976D01*
X90714Y183603D01*
X90987Y182230D01*
X91765Y181065D01*
X92929Y180287D01*
X94303Y180014D01*
X95676Y180287D01*
X95738Y180329D01*
X97477Y179963D01*
X97586Y179799D01*
X98750Y179021D01*
X100124Y178748D01*
X101497Y179021D01*
X102662Y179799D01*
X103440Y180963D01*
X103713Y182337D01*
X103440Y183710D01*
X102662Y184874D01*
X101497Y185652D01*
X100124Y185926D01*
X98750Y185652D01*
X98688Y185611D01*
X96950Y185977D01*
X96840Y186141D01*
X95676Y186919D01*
X95656Y186968D01*
X96368Y188034D01*
X96642Y189408D01*
X96368Y190781D01*
X95590Y191945D01*
X94426Y192724D01*
X93053Y192997D01*
D02*
G37*
G36*
X246400Y181339D02*
X245027Y181066D01*
X243862Y180288D01*
X243084Y179123D01*
X242811Y177750D01*
X243084Y176377D01*
X243862Y175212D01*
X245027Y174434D01*
X246400Y174161D01*
X247773Y174434D01*
X248938Y175212D01*
X249716Y176377D01*
X249989Y177750D01*
X249716Y179123D01*
X248938Y180288D01*
X247773Y181066D01*
X246400Y181339D01*
D02*
G37*
G36*
X155750Y201339D02*
X154377Y201066D01*
X153212Y200288D01*
X152434Y199123D01*
X152161Y197750D01*
X152434Y196377D01*
X153212Y195212D01*
X154220Y194539D01*
X154408Y194286D01*
X154658Y193083D01*
X154184Y192373D01*
X153911Y191000D01*
X154184Y189627D01*
X154962Y188462D01*
X155588Y188044D01*
X155661Y187718D01*
X155544Y186604D01*
X154697Y186038D01*
X153919Y184873D01*
X153646Y183500D01*
X153919Y182127D01*
X154697Y180962D01*
X155862Y180184D01*
X157235Y179911D01*
X158368Y180136D01*
X158379Y180125D01*
X159060Y179114D01*
X159074Y179080D01*
X158434Y178123D01*
X158161Y176750D01*
X158434Y175377D01*
X159212Y174212D01*
X160377Y173434D01*
X161750Y173161D01*
X163123Y173434D01*
X164288Y174212D01*
X165066Y175377D01*
X165339Y176750D01*
X165066Y178123D01*
X164288Y179288D01*
X163123Y180066D01*
X161750Y180339D01*
X160617Y180114D01*
X160606Y180125D01*
X159925Y181136D01*
X159911Y181169D01*
X160551Y182127D01*
X160824Y183500D01*
X160551Y184873D01*
X159773Y186038D01*
X159147Y186456D01*
X159074Y186782D01*
X159191Y187896D01*
X160038Y188462D01*
X160816Y189627D01*
X161089Y191000D01*
X160816Y192373D01*
X160038Y193538D01*
X159030Y194211D01*
X158842Y194464D01*
X158591Y195667D01*
X159066Y196377D01*
X159339Y197750D01*
X159066Y199123D01*
X158288Y200288D01*
X157123Y201066D01*
X155750Y201339D01*
D02*
G37*
G36*
X37250Y184589D02*
X35877Y184316D01*
X34712Y183538D01*
X33934Y182373D01*
X33661Y181000D01*
X33934Y179627D01*
X34712Y178462D01*
X35877Y177684D01*
X37250Y177411D01*
X38623Y177684D01*
X38759Y177775D01*
X39661Y176896D01*
X39683Y176864D01*
X39411Y175500D01*
X39684Y174127D01*
X40462Y172962D01*
X41627Y172184D01*
X43000Y171911D01*
X44373Y172184D01*
X45538Y172962D01*
X46316Y174127D01*
X46589Y175500D01*
X46316Y176873D01*
X45538Y178038D01*
X44373Y178816D01*
X43000Y179089D01*
X41627Y178816D01*
X41491Y178725D01*
X40589Y179604D01*
X40567Y179636D01*
X40839Y181000D01*
X40566Y182373D01*
X39788Y183538D01*
X38623Y184316D01*
X37250Y184589D01*
D02*
G37*
G36*
X65250Y176745D02*
X63877Y176472D01*
X62712Y175694D01*
X61934Y174530D01*
X61661Y173156D01*
X61934Y171783D01*
X62712Y170618D01*
X63877Y169840D01*
X65250Y169567D01*
X66623Y169840D01*
X67788Y170618D01*
X68566Y171783D01*
X68839Y173156D01*
X68566Y174530D01*
X67788Y175694D01*
X66623Y176472D01*
X65250Y176745D01*
D02*
G37*
G36*
X139229Y182621D02*
X137856Y182348D01*
X136692Y181570D01*
X135913Y180406D01*
X135640Y179032D01*
X135913Y177659D01*
X136692Y176494D01*
X136970Y176308D01*
X136980Y174788D01*
X136202Y173623D01*
X135929Y172250D01*
X136202Y170877D01*
X136980Y169712D01*
X138145Y168934D01*
X139518Y168661D01*
X140892Y168934D01*
X142056Y169712D01*
X142834Y170877D01*
X143107Y172250D01*
X142834Y173623D01*
X142056Y174788D01*
X141777Y174974D01*
X141767Y176494D01*
X142545Y177659D01*
X142818Y179032D01*
X142545Y180406D01*
X141767Y181570D01*
X140603Y182348D01*
X139229Y182621D01*
D02*
G37*
G36*
X205375Y169964D02*
X204002Y169691D01*
X202837Y168913D01*
X202059Y167748D01*
X201786Y166375D01*
X202059Y165002D01*
X202837Y163837D01*
X204002Y163059D01*
X205375Y162786D01*
X206748Y163059D01*
X207913Y163837D01*
X208691Y165002D01*
X208964Y166375D01*
X208691Y167748D01*
X207913Y168913D01*
X206748Y169691D01*
X205375Y169964D01*
D02*
G37*
G36*
X40750Y169839D02*
X39377Y169566D01*
X38212Y168788D01*
X37434Y167623D01*
X37161Y166250D01*
X37434Y164877D01*
X38212Y163712D01*
X39377Y162934D01*
X40750Y162661D01*
X42123Y162934D01*
X43288Y163712D01*
X44066Y164877D01*
X44339Y166250D01*
X44066Y167623D01*
X43288Y168788D01*
X42123Y169566D01*
X40750Y169839D01*
D02*
G37*
G36*
X219000Y156339D02*
X217627Y156066D01*
X216462Y155288D01*
X215684Y154123D01*
X215411Y152750D01*
X215684Y151377D01*
X216462Y150212D01*
X217627Y149434D01*
X219000Y149161D01*
X220373Y149434D01*
X221538Y150212D01*
X222316Y151377D01*
X222589Y152750D01*
X222316Y154123D01*
X221538Y155288D01*
X220373Y156066D01*
X219000Y156339D01*
D02*
G37*
G36*
X202750Y149089D02*
X201377Y148816D01*
X200212Y148038D01*
X199434Y146873D01*
X199259Y145995D01*
X198509Y145714D01*
X197945Y145600D01*
X196873Y146316D01*
X195500Y146589D01*
X194127Y146316D01*
X192962Y145538D01*
X192184Y144373D01*
X191911Y143000D01*
X192184Y141627D01*
X192962Y140462D01*
X194127Y139684D01*
X195500Y139411D01*
X196873Y139684D01*
X198038Y140462D01*
X198816Y141627D01*
X198990Y142505D01*
X199741Y142786D01*
X200305Y142900D01*
X201377Y142184D01*
X202750Y141911D01*
X204123Y142184D01*
X205288Y142962D01*
X206066Y144127D01*
X206339Y145500D01*
X206066Y146873D01*
X205288Y148038D01*
X204123Y148816D01*
X202750Y149089D01*
D02*
G37*
G36*
X170250Y152089D02*
X168877Y151816D01*
X167712Y151038D01*
X166934Y149873D01*
X166661Y148500D01*
X166934Y147127D01*
X167712Y145962D01*
X168877Y145184D01*
X170250Y144911D01*
X171623Y145184D01*
X172788Y145962D01*
X173566Y147127D01*
X173839Y148500D01*
X173566Y149873D01*
X172788Y151038D01*
X171623Y151816D01*
X170250Y152089D01*
D02*
G37*
G36*
X280050Y147839D02*
X278677Y147566D01*
X277512Y146788D01*
X276734Y145623D01*
X276461Y144250D01*
X276734Y142877D01*
X277512Y141712D01*
X278677Y140934D01*
X280050Y140661D01*
X281423Y140934D01*
X282588Y141712D01*
X283366Y142877D01*
X283639Y144250D01*
X283366Y145623D01*
X282588Y146788D01*
X281423Y147566D01*
X280050Y147839D01*
D02*
G37*
G36*
X267350D02*
X265977Y147566D01*
X264812Y146788D01*
X264034Y145623D01*
X263761Y144250D01*
X264034Y142877D01*
X264812Y141712D01*
X265977Y140934D01*
X267350Y140661D01*
X268723Y140934D01*
X269888Y141712D01*
X270666Y142877D01*
X270939Y144250D01*
X270666Y145623D01*
X269888Y146788D01*
X268723Y147566D01*
X267350Y147839D01*
D02*
G37*
G36*
X37000Y145889D02*
X35627Y145616D01*
X34462Y144838D01*
X33684Y143673D01*
X33411Y142300D01*
X33684Y140927D01*
X34462Y139762D01*
X35627Y138984D01*
X37000Y138711D01*
X38373Y138984D01*
X39538Y139762D01*
X40316Y140927D01*
X40589Y142300D01*
X40316Y143673D01*
X39538Y144838D01*
X38373Y145616D01*
X37000Y145889D01*
D02*
G37*
G36*
X163750Y140839D02*
X162377Y140566D01*
X161212Y139788D01*
X160638Y138928D01*
X160087Y138607D01*
X159127Y138562D01*
X158373Y139066D01*
X157000Y139339D01*
X155627Y139066D01*
X154462Y138288D01*
X153684Y137123D01*
X153411Y135750D01*
X153684Y134377D01*
X154462Y133212D01*
X155627Y132434D01*
X157000Y132161D01*
X158373Y132434D01*
X159538Y133212D01*
X160112Y134072D01*
X160663Y134393D01*
X161623Y134438D01*
X162377Y133934D01*
X163750Y133661D01*
X165123Y133934D01*
X166288Y134712D01*
X167066Y135877D01*
X167339Y137250D01*
X167066Y138623D01*
X166288Y139788D01*
X165123Y140566D01*
X163750Y140839D01*
D02*
G37*
G36*
X222655Y145434D02*
X221282Y145161D01*
X220117Y144383D01*
X219339Y143218D01*
X219066Y141845D01*
X219339Y140472D01*
X220117Y139307D01*
X221282Y138529D01*
X222655Y138256D01*
X224028Y138529D01*
X225193Y139307D01*
X225971Y140472D01*
X226244Y141845D01*
X225971Y143218D01*
X225193Y144383D01*
X224028Y145161D01*
X222655Y145434D01*
D02*
G37*
G36*
X209000Y142089D02*
X207627Y141816D01*
X206462Y141038D01*
X205684Y139873D01*
X205411Y138500D01*
X205684Y137127D01*
X206462Y135962D01*
X207627Y135184D01*
X209000Y134911D01*
X210373Y135184D01*
X211538Y135962D01*
X212316Y137127D01*
X212589Y138500D01*
X212316Y139873D01*
X211538Y141038D01*
X210373Y141816D01*
X209000Y142089D01*
D02*
G37*
G36*
X44500Y133189D02*
X43127Y132916D01*
X41962Y132138D01*
X41184Y130973D01*
X40911Y129600D01*
X41184Y128227D01*
X41962Y127062D01*
X43127Y126284D01*
X44500Y126011D01*
X45873Y126284D01*
X47038Y127062D01*
X47816Y128227D01*
X48089Y129600D01*
X47816Y130973D01*
X47038Y132138D01*
X45873Y132916D01*
X44500Y133189D01*
D02*
G37*
G36*
X260750Y131627D02*
X259377Y131354D01*
X258212Y130576D01*
X257434Y129411D01*
X257161Y128038D01*
X257434Y126664D01*
X258212Y125500D01*
X259377Y124722D01*
X260750Y124449D01*
X262123Y124722D01*
X263288Y125500D01*
X264066Y126664D01*
X264339Y128038D01*
X264066Y129411D01*
X263288Y130576D01*
X262123Y131354D01*
X260750Y131627D01*
D02*
G37*
G36*
X195750Y130589D02*
X194377Y130316D01*
X193212Y129538D01*
X192434Y128373D01*
X192161Y127000D01*
X192434Y125627D01*
X193002Y124776D01*
X192785Y123336D01*
X192712Y123288D01*
X191934Y122123D01*
X191661Y120750D01*
X191934Y119377D01*
X192712Y118212D01*
X193877Y117434D01*
X195250Y117161D01*
X196623Y117434D01*
X197788Y118212D01*
X198566Y119377D01*
X198839Y120750D01*
X198566Y122123D01*
X197998Y122974D01*
X198215Y124413D01*
X198288Y124462D01*
X199066Y125627D01*
X199339Y127000D01*
X199066Y128373D01*
X198288Y129538D01*
X197123Y130316D01*
X195750Y130589D01*
D02*
G37*
G36*
X223250Y129089D02*
X221877Y128816D01*
X220712Y128038D01*
X219934Y126873D01*
X219661Y125500D01*
X219934Y124127D01*
X220712Y122962D01*
X221877Y122184D01*
X222751Y122010D01*
X223372Y120872D01*
X223393Y120686D01*
X223184Y120373D01*
X222911Y119000D01*
X223184Y117627D01*
X223962Y116462D01*
X224855Y115866D01*
X225136Y115595D01*
X225261Y114363D01*
X224934Y113873D01*
X224661Y112500D01*
X224934Y111127D01*
X225712Y109962D01*
X226877Y109184D01*
X228250Y108911D01*
X229623Y109184D01*
X230788Y109962D01*
X231566Y111127D01*
X231839Y112500D01*
X231663Y113382D01*
X232467Y114384D01*
X232641Y114482D01*
X233000Y114411D01*
X234373Y114684D01*
X235538Y115462D01*
X236316Y116627D01*
X236589Y118000D01*
X236316Y119373D01*
X235538Y120538D01*
X234373Y121316D01*
X233000Y121589D01*
X231627Y121316D01*
X230915Y120840D01*
X230344Y120598D01*
X229320Y121115D01*
X229038Y121538D01*
X227873Y122316D01*
X226999Y122490D01*
X226378Y123628D01*
X226357Y123814D01*
X226566Y124127D01*
X226839Y125500D01*
X226566Y126873D01*
X225788Y128038D01*
X224623Y128816D01*
X223250Y129089D01*
D02*
G37*
G36*
X40000Y120489D02*
X38627Y120216D01*
X37462Y119438D01*
X36684Y118273D01*
X36411Y116900D01*
X36684Y115527D01*
X37462Y114362D01*
X38627Y113584D01*
X40000Y113311D01*
X41373Y113584D01*
X42538Y114362D01*
X43316Y115527D01*
X43589Y116900D01*
X43316Y118273D01*
X42538Y119438D01*
X41373Y120216D01*
X40000Y120489D01*
D02*
G37*
G36*
X182500Y113839D02*
X181127Y113566D01*
X179962Y112788D01*
X179184Y111623D01*
X178911Y110250D01*
X179109Y109256D01*
X178470Y107834D01*
X178377Y107816D01*
X177212Y107038D01*
X176609Y106134D01*
X175571Y106126D01*
X175567Y106126D01*
X175253Y106217D01*
X174538Y107288D01*
X173373Y108066D01*
X172000Y108339D01*
X170627Y108066D01*
X169462Y107288D01*
X168684Y106123D01*
X168411Y104750D01*
X168684Y103377D01*
X169462Y102212D01*
X170627Y101434D01*
X171188Y101323D01*
X171000Y100089D01*
X170584Y100006D01*
X169627Y99816D01*
X168462Y99038D01*
X167684Y97873D01*
X167411Y96500D01*
X167684Y95127D01*
X168462Y93962D01*
X169627Y93184D01*
X171000Y92911D01*
X172373Y93184D01*
X173538Y93962D01*
X174316Y95127D01*
X174589Y96500D01*
X174316Y97873D01*
X173538Y99038D01*
X172373Y99816D01*
X171812Y99927D01*
X172000Y101161D01*
X172416Y101244D01*
X173373Y101434D01*
X174538Y102212D01*
X175142Y103116D01*
X176179Y103124D01*
X176183Y103124D01*
X176497Y103033D01*
X177212Y101962D01*
X178377Y101184D01*
X179750Y100911D01*
X181123Y101184D01*
X182288Y101962D01*
X183066Y103127D01*
X183339Y104500D01*
X183141Y105494D01*
X183780Y106916D01*
X183873Y106934D01*
X185038Y107712D01*
X185816Y108877D01*
X186089Y110250D01*
X185816Y111623D01*
X185038Y112788D01*
X183873Y113566D01*
X182500Y113839D01*
D02*
G37*
G36*
X117340Y104839D02*
X115967Y104566D01*
X114802Y103788D01*
X114024Y102623D01*
X113751Y101250D01*
X114024Y99877D01*
X114802Y98712D01*
X115967Y97934D01*
X117340Y97661D01*
X118714Y97934D01*
X119878Y98712D01*
X120656Y99877D01*
X120929Y101250D01*
X120656Y102623D01*
X119878Y103788D01*
X118714Y104566D01*
X117340Y104839D01*
D02*
G37*
G36*
X21000Y99589D02*
X19627Y99316D01*
X18462Y98538D01*
X17684Y97373D01*
X17411Y96000D01*
X17684Y94627D01*
X18462Y93462D01*
X19627Y92684D01*
X21000Y92411D01*
X22373Y92684D01*
X23538Y93462D01*
X24316Y94627D01*
X24589Y96000D01*
X24316Y97373D01*
X23538Y98538D01*
X22373Y99316D01*
X21000Y99589D01*
D02*
G37*
G36*
X217750Y96839D02*
X216377Y96566D01*
X215212Y95788D01*
X214434Y94623D01*
X214161Y93250D01*
X214434Y91877D01*
X215212Y90712D01*
X216377Y89934D01*
X217750Y89661D01*
X219123Y89934D01*
X220288Y90712D01*
X221066Y91877D01*
X221339Y93250D01*
X221066Y94623D01*
X220288Y95788D01*
X219123Y96566D01*
X217750Y96839D01*
D02*
G37*
G36*
X280050Y95089D02*
X278677Y94816D01*
X277512Y94038D01*
X276734Y92873D01*
X276461Y91500D01*
X276734Y90127D01*
X277512Y88962D01*
X278677Y88184D01*
X280050Y87911D01*
X281423Y88184D01*
X282588Y88962D01*
X283366Y90127D01*
X283639Y91500D01*
X283366Y92873D01*
X282588Y94038D01*
X281423Y94816D01*
X280050Y95089D01*
D02*
G37*
G36*
X261250D02*
X259877Y94816D01*
X258712Y94038D01*
X257934Y92873D01*
X257661Y91500D01*
X257934Y90127D01*
X258712Y88962D01*
X259877Y88184D01*
X261250Y87911D01*
X262623Y88184D01*
X263788Y88962D01*
X264566Y90127D01*
X264839Y91500D01*
X264566Y92873D01*
X263788Y94038D01*
X262623Y94816D01*
X261250Y95089D01*
D02*
G37*
G36*
X184000Y93089D02*
X182627Y92816D01*
X181462Y92038D01*
X180684Y90873D01*
X180411Y89500D01*
X180684Y88127D01*
X181462Y86962D01*
X182627Y86184D01*
X184000Y85911D01*
X185373Y86184D01*
X186538Y86962D01*
X187316Y88127D01*
X187589Y89500D01*
X187316Y90873D01*
X186538Y92038D01*
X185373Y92816D01*
X184000Y93089D01*
D02*
G37*
G36*
X96250D02*
X94877Y92816D01*
X93712Y92038D01*
X92934Y90873D01*
X92661Y89500D01*
X92934Y88127D01*
X93712Y86962D01*
X94877Y86184D01*
X96250Y85911D01*
X97623Y86184D01*
X98788Y86962D01*
X99566Y88127D01*
X99839Y89500D01*
X99566Y90873D01*
X98788Y92038D01*
X97623Y92816D01*
X96250Y93089D01*
D02*
G37*
G36*
X224250Y90839D02*
X222877Y90566D01*
X221712Y89788D01*
X220934Y88623D01*
X220661Y87250D01*
X220934Y85877D01*
X221712Y84712D01*
X222877Y83934D01*
X224250Y83661D01*
X225623Y83934D01*
X226788Y84712D01*
X227566Y85877D01*
X227839Y87250D01*
X227566Y88623D01*
X226788Y89788D01*
X225623Y90566D01*
X224250Y90839D01*
D02*
G37*
G36*
X144500Y87089D02*
X143127Y86816D01*
X141962Y86038D01*
X141184Y84873D01*
X140911Y83500D01*
X141184Y82127D01*
X141962Y80962D01*
X143127Y80184D01*
X144500Y79911D01*
X145873Y80184D01*
X147038Y80962D01*
X147816Y82127D01*
X148089Y83500D01*
X147816Y84873D01*
X147038Y86038D01*
X145873Y86816D01*
X144500Y87089D01*
D02*
G37*
G36*
X256012Y86843D02*
X254639Y86570D01*
X253475Y85792D01*
X252697Y84628D01*
X252423Y83254D01*
X252697Y81881D01*
X253475Y80716D01*
X254639Y79938D01*
X256012Y79665D01*
X257386Y79938D01*
X258550Y80716D01*
X259328Y81881D01*
X259601Y83254D01*
X259328Y84628D01*
X258550Y85792D01*
X257386Y86570D01*
X256012Y86843D01*
D02*
G37*
G36*
X69750Y98339D02*
X68377Y98066D01*
X67212Y97288D01*
X66434Y96123D01*
X66161Y94750D01*
X66409Y93503D01*
X66066Y92896D01*
X65618Y92313D01*
X64377Y92066D01*
X63212Y91288D01*
X62434Y90123D01*
X62161Y88750D01*
X62434Y87377D01*
X62495Y87286D01*
X61853Y85960D01*
X61127Y85816D01*
X59962Y85038D01*
X59184Y83873D01*
X58911Y82500D01*
X59184Y81127D01*
X59962Y79962D01*
X61127Y79184D01*
X62500Y78911D01*
X63873Y79184D01*
X65038Y79962D01*
X65816Y81127D01*
X66089Y82500D01*
X65816Y83873D01*
X65756Y83964D01*
X66397Y85290D01*
X67123Y85434D01*
X68288Y86212D01*
X69066Y87377D01*
X69339Y88750D01*
X69091Y89997D01*
X69434Y90604D01*
X69882Y91187D01*
X71123Y91434D01*
X72288Y92212D01*
X73066Y93377D01*
X73339Y94750D01*
X73066Y96123D01*
X72288Y97288D01*
X71123Y98066D01*
X69750Y98339D01*
D02*
G37*
G36*
X245250Y83589D02*
X243877Y83316D01*
X242712Y82538D01*
X241934Y81373D01*
X241661Y80000D01*
X241934Y78627D01*
X242712Y77462D01*
X243877Y76684D01*
X245250Y76411D01*
X246623Y76684D01*
X247788Y77462D01*
X248566Y78627D01*
X248839Y80000D01*
X248566Y81373D01*
X247788Y82538D01*
X246623Y83316D01*
X245250Y83589D01*
D02*
G37*
G36*
X176000Y82589D02*
X174627Y82316D01*
X173462Y81538D01*
X172684Y80373D01*
X172411Y79000D01*
X172684Y77627D01*
X173462Y76462D01*
X174627Y75684D01*
X176000Y75411D01*
X177373Y75684D01*
X178538Y76462D01*
X179316Y77627D01*
X179589Y79000D01*
X179316Y80373D01*
X178538Y81538D01*
X177373Y82316D01*
X176000Y82589D01*
D02*
G37*
G36*
X94750D02*
X93377Y82316D01*
X92212Y81538D01*
X91434Y80373D01*
X91161Y79000D01*
X91434Y77627D01*
X92212Y76462D01*
X93377Y75684D01*
X94750Y75411D01*
X96123Y75684D01*
X97288Y76462D01*
X98066Y77627D01*
X98339Y79000D01*
X98066Y80373D01*
X97288Y81538D01*
X96123Y82316D01*
X94750Y82589D01*
D02*
G37*
G36*
X229250Y81589D02*
X227877Y81316D01*
X226712Y80538D01*
X225934Y79373D01*
X225661Y78000D01*
X225934Y76627D01*
X226712Y75462D01*
X227877Y74684D01*
X229250Y74411D01*
X230623Y74684D01*
X231788Y75462D01*
X232566Y76627D01*
X232839Y78000D01*
X232566Y79373D01*
X231788Y80538D01*
X230623Y81316D01*
X229250Y81589D01*
D02*
G37*
G36*
X22500Y80339D02*
X21127Y80066D01*
X19962Y79288D01*
X19184Y78123D01*
X18911Y76750D01*
X19184Y75377D01*
X19962Y74212D01*
X21127Y73434D01*
X22500Y73161D01*
X23873Y73434D01*
X25038Y74212D01*
X25816Y75377D01*
X26089Y76750D01*
X25816Y78123D01*
X25038Y79288D01*
X23873Y80066D01*
X22500Y80339D01*
D02*
G37*
G36*
X150250Y77589D02*
X148877Y77316D01*
X147712Y76538D01*
X146934Y75373D01*
X146661Y74000D01*
X146934Y72627D01*
X147712Y71462D01*
X148877Y70684D01*
X150250Y70411D01*
X151623Y70684D01*
X152788Y71462D01*
X153566Y72627D01*
X153839Y74000D01*
X153566Y75373D01*
X152788Y76538D01*
X151623Y77316D01*
X150250Y77589D01*
D02*
G37*
G36*
X65250Y76339D02*
X63877Y76066D01*
X62712Y75288D01*
X61934Y74123D01*
X61661Y72750D01*
X61934Y71377D01*
X62712Y70212D01*
X63877Y69434D01*
X65250Y69161D01*
X66623Y69434D01*
X67788Y70212D01*
X68566Y71377D01*
X68839Y72750D01*
X68566Y74123D01*
X67788Y75288D01*
X66623Y76066D01*
X65250Y76339D01*
D02*
G37*
G36*
X93750Y72839D02*
X92377Y72566D01*
X91212Y71788D01*
X90434Y70623D01*
X90161Y69250D01*
X90434Y67877D01*
X91212Y66712D01*
X92377Y65934D01*
X93750Y65661D01*
X95123Y65934D01*
X96288Y66712D01*
X97066Y67877D01*
X97339Y69250D01*
X97066Y70623D01*
X96288Y71788D01*
X95123Y72566D01*
X93750Y72839D01*
D02*
G37*
G36*
X168587Y72752D02*
X167213Y72479D01*
X166049Y71701D01*
X165271Y70537D01*
X164998Y69163D01*
X165271Y67790D01*
X166049Y66626D01*
X167213Y65848D01*
X168587Y65574D01*
X169960Y65848D01*
X171124Y66626D01*
X171902Y67790D01*
X172176Y69163D01*
X171902Y70537D01*
X171124Y71701D01*
X169960Y72479D01*
X168587Y72752D01*
D02*
G37*
G36*
X38250Y71589D02*
X36877Y71316D01*
X35712Y70538D01*
X34934Y69373D01*
X34661Y68000D01*
X34934Y66627D01*
X35712Y65462D01*
X36877Y64684D01*
X38250Y64411D01*
X39623Y64684D01*
X40788Y65462D01*
X41566Y66627D01*
X41839Y68000D01*
X41566Y69373D01*
X40788Y70538D01*
X39623Y71316D01*
X38250Y71589D01*
D02*
G37*
G36*
X47250Y74839D02*
X45877Y74566D01*
X44712Y73788D01*
X43934Y72623D01*
X43661Y71250D01*
X43934Y69877D01*
X44712Y68712D01*
X45877Y67934D01*
X47250Y67661D01*
X48497Y67909D01*
X49104Y67566D01*
X49687Y67118D01*
X49934Y65877D01*
X50712Y64712D01*
X51877Y63934D01*
X53250Y63661D01*
X54623Y63934D01*
X55289Y64379D01*
X56633Y63941D01*
X56680Y63897D01*
X56684Y63877D01*
X57462Y62712D01*
X58627Y61934D01*
X60000Y61661D01*
X61373Y61934D01*
X62538Y62712D01*
X63316Y63877D01*
X63589Y65250D01*
X63316Y66623D01*
X62538Y67788D01*
X61373Y68566D01*
X60000Y68839D01*
X58627Y68566D01*
X57961Y68121D01*
X56617Y68559D01*
X56570Y68603D01*
X56566Y68623D01*
X55788Y69788D01*
X54623Y70566D01*
X53250Y70839D01*
X52003Y70591D01*
X51396Y70934D01*
X50813Y71382D01*
X50566Y72623D01*
X49788Y73788D01*
X48623Y74566D01*
X47250Y74839D01*
D02*
G37*
G36*
X277250Y65712D02*
X275877Y65439D01*
X274712Y64661D01*
X273934Y63497D01*
X273661Y62123D01*
X273934Y60750D01*
X274712Y59586D01*
X275877Y58808D01*
X277250Y58534D01*
X278623Y58808D01*
X279788Y59586D01*
X280566Y60750D01*
X280839Y62123D01*
X280566Y63497D01*
X279788Y64661D01*
X278623Y65439D01*
X277250Y65712D01*
D02*
G37*
G36*
X110946Y56089D02*
X109573Y55816D01*
X108409Y55038D01*
X107631Y53873D01*
X107357Y52500D01*
X107631Y51127D01*
X108409Y49962D01*
X109573Y49184D01*
X110946Y48911D01*
X112320Y49184D01*
X113484Y49962D01*
X114262Y51127D01*
X114535Y52500D01*
X114262Y53873D01*
X113484Y55038D01*
X112320Y55816D01*
X110946Y56089D01*
D02*
G37*
G36*
X52000Y49839D02*
X50627Y49566D01*
X49462Y48788D01*
X48684Y47624D01*
X47835Y47272D01*
X47330Y47327D01*
X46002Y47591D01*
X44629Y47318D01*
X43464Y46540D01*
X42687Y45376D01*
X42413Y44002D01*
X42687Y42629D01*
X43464Y41464D01*
X44629Y40686D01*
X46002Y40413D01*
X47376Y40686D01*
X48540Y41464D01*
X49318Y42629D01*
X50167Y42980D01*
X50672Y42925D01*
X52000Y42661D01*
X53373Y42934D01*
X53624Y43102D01*
X54625Y43597D01*
X55251Y42778D01*
X55462Y42462D01*
X56627Y41684D01*
X58000Y41411D01*
X59373Y41684D01*
X60538Y42462D01*
X61316Y43627D01*
X61589Y45000D01*
X61316Y46373D01*
X60538Y47538D01*
X59373Y48316D01*
X58000Y48589D01*
X56627Y48316D01*
X56376Y48148D01*
X55375Y47653D01*
X54749Y48472D01*
X54538Y48788D01*
X53373Y49566D01*
X52000Y49839D01*
D02*
G37*
G36*
X72750Y51839D02*
X71377Y51566D01*
X70212Y50788D01*
X69434Y49623D01*
X69161Y48250D01*
X69434Y46877D01*
X70212Y45712D01*
X71377Y44934D01*
X72750Y44661D01*
X74123Y44934D01*
X75288Y45712D01*
X76066Y46877D01*
X76339Y48250D01*
X76066Y49623D01*
X75288Y50788D01*
X74123Y51566D01*
X72750Y51839D01*
D02*
G37*
G36*
X195000Y49839D02*
X193627Y49566D01*
X192462Y48788D01*
X191684Y47623D01*
X191411Y46250D01*
X191684Y44877D01*
X192462Y43712D01*
X193627Y42934D01*
X195000Y42661D01*
X196373Y42934D01*
X197538Y43712D01*
X198316Y44877D01*
X198589Y46250D01*
X198316Y47623D01*
X197538Y48788D01*
X196373Y49566D01*
X195000Y49839D01*
D02*
G37*
G36*
X163750Y47839D02*
X162377Y47566D01*
X161212Y46788D01*
X160434Y45623D01*
X160161Y44250D01*
X160434Y42877D01*
X161212Y41712D01*
X162377Y40934D01*
X163750Y40661D01*
X165123Y40934D01*
X166288Y41712D01*
X167066Y42877D01*
X167339Y44250D01*
X167066Y45623D01*
X166288Y46788D01*
X165123Y47566D01*
X163750Y47839D01*
D02*
G37*
G36*
X243000Y45089D02*
X241627Y44816D01*
X240462Y44038D01*
X239684Y42873D01*
X239411Y41500D01*
X239684Y40127D01*
X240462Y38962D01*
X241627Y38184D01*
X243000Y37911D01*
X244373Y38184D01*
X245538Y38962D01*
X246316Y40127D01*
X246589Y41500D01*
X246316Y42873D01*
X245538Y44038D01*
X244373Y44816D01*
X243000Y45089D01*
D02*
G37*
G36*
X228000Y44589D02*
X226627Y44316D01*
X225462Y43538D01*
X224684Y42373D01*
X224411Y41000D01*
X224684Y39627D01*
X225462Y38462D01*
X226627Y37684D01*
X228000Y37411D01*
X229373Y37684D01*
X230538Y38462D01*
X231316Y39627D01*
X231589Y41000D01*
X231316Y42373D01*
X230538Y43538D01*
X229373Y44316D01*
X228000Y44589D01*
D02*
G37*
G36*
X36250D02*
X34877Y44316D01*
X33712Y43538D01*
X32934Y42373D01*
X32661Y41000D01*
X32934Y39627D01*
X33712Y38462D01*
X34877Y37684D01*
X36250Y37411D01*
X37623Y37684D01*
X38788Y38462D01*
X39566Y39627D01*
X39839Y41000D01*
X39566Y42373D01*
X38788Y43538D01*
X37623Y44316D01*
X36250Y44589D01*
D02*
G37*
G36*
X147757Y44091D02*
X146384Y43818D01*
X145219Y43040D01*
X144441Y41875D01*
X144168Y40502D01*
X144441Y39128D01*
X145219Y37964D01*
X146384Y37186D01*
X147757Y36913D01*
X149131Y37186D01*
X150295Y37964D01*
X151073Y39128D01*
X151346Y40502D01*
X151073Y41875D01*
X150295Y43040D01*
X149131Y43818D01*
X147757Y44091D01*
D02*
G37*
G36*
X189250Y43339D02*
X187877Y43066D01*
X186712Y42288D01*
X185934Y41123D01*
X185661Y39750D01*
X185934Y38377D01*
X186712Y37212D01*
X187877Y36434D01*
X189250Y36161D01*
X190623Y36434D01*
X191788Y37212D01*
X192566Y38377D01*
X192839Y39750D01*
X192566Y41123D01*
X191788Y42288D01*
X190623Y43066D01*
X189250Y43339D01*
D02*
G37*
G36*
X204300Y41539D02*
X202927Y41265D01*
X201763Y40487D01*
X200985Y39323D01*
X200711Y37950D01*
X200985Y36576D01*
X201763Y35412D01*
X202927Y34634D01*
X204300Y34361D01*
X205674Y34634D01*
X206838Y35412D01*
X207616Y36576D01*
X207889Y37950D01*
X207616Y39323D01*
X206838Y40487D01*
X205674Y41265D01*
X204300Y41539D01*
D02*
G37*
G36*
X180000Y41339D02*
X178627Y41066D01*
X177462Y40288D01*
X176684Y39123D01*
X176411Y37750D01*
X176684Y36377D01*
X177462Y35212D01*
X178627Y34434D01*
X180000Y34161D01*
X181373Y34434D01*
X182538Y35212D01*
X183316Y36377D01*
X183589Y37750D01*
X183316Y39123D01*
X182538Y40288D01*
X181373Y41066D01*
X180000Y41339D01*
D02*
G37*
G36*
X251762Y40841D02*
X250389Y40568D01*
X249224Y39790D01*
X248447Y38625D01*
X248173Y37252D01*
X248447Y35878D01*
X249224Y34714D01*
X250389Y33936D01*
X251762Y33663D01*
X253136Y33936D01*
X254300Y34714D01*
X255078Y35878D01*
X255351Y37252D01*
X255078Y38625D01*
X254300Y39790D01*
X253136Y40568D01*
X251762Y40841D01*
D02*
G37*
G36*
X64000Y40089D02*
X62627Y39816D01*
X61462Y39038D01*
X60684Y37873D01*
X60411Y36500D01*
X60684Y35127D01*
X61462Y33962D01*
X62627Y33184D01*
X64000Y32911D01*
X65373Y33184D01*
X66538Y33962D01*
X67316Y35127D01*
X67589Y36500D01*
X67316Y37873D01*
X66538Y39038D01*
X65373Y39816D01*
X64000Y40089D01*
D02*
G37*
G36*
X220000Y38089D02*
X218627Y37816D01*
X217462Y37038D01*
X216684Y35873D01*
X216411Y34500D01*
X216684Y33127D01*
X217462Y31962D01*
X218627Y31184D01*
X220000Y30911D01*
X221373Y31184D01*
X222538Y31962D01*
X223316Y33127D01*
X223589Y34500D01*
X223316Y35873D01*
X222538Y37038D01*
X221373Y37816D01*
X220000Y38089D01*
D02*
G37*
G36*
X140500Y37589D02*
X139127Y37316D01*
X137962Y36538D01*
X137184Y35373D01*
X136911Y34000D01*
X137184Y32627D01*
X137962Y31462D01*
X139127Y30684D01*
X140500Y30411D01*
X141873Y30684D01*
X143038Y31462D01*
X143816Y32627D01*
X144089Y34000D01*
X143816Y35373D01*
X143038Y36538D01*
X141873Y37316D01*
X140500Y37589D01*
D02*
G37*
G36*
X236111Y36839D02*
X234738Y36566D01*
X233573Y35788D01*
X232796Y34623D01*
X232522Y33250D01*
X232796Y31877D01*
X233573Y30712D01*
X234738Y29934D01*
X236111Y29661D01*
X237485Y29934D01*
X238649Y30712D01*
X239427Y31877D01*
X239700Y33250D01*
X239427Y34623D01*
X238649Y35788D01*
X237485Y36566D01*
X236111Y36839D01*
D02*
G37*
G36*
X26750Y36339D02*
X25377Y36066D01*
X24212Y35288D01*
X23434Y34123D01*
X23161Y32750D01*
X23434Y31377D01*
X24212Y30212D01*
X25377Y29434D01*
X26750Y29161D01*
X28123Y29434D01*
X29288Y30212D01*
X30066Y31377D01*
X30339Y32750D01*
X30066Y34123D01*
X29288Y35288D01*
X28123Y36066D01*
X26750Y36339D01*
D02*
G37*
%LPD*%
G36*
X132250Y178250D02*
Y175750D01*
X108250Y151750D01*
Y142750D01*
X103750Y138250D01*
X98500D01*
X86750Y150000D01*
Y152000D01*
X96000Y161250D01*
X103250D01*
X110239Y168239D01*
X110730Y168141D01*
X112104Y168414D01*
X113268Y169192D01*
X114046Y170357D01*
X114319Y171730D01*
X114221Y172222D01*
X124750Y182750D01*
X127750D01*
X132250Y178250D01*
D02*
G37*
%LPC*%
G36*
X97421Y157182D02*
X95373Y156774D01*
X93636Y155614D01*
X92476Y153877D01*
X92069Y151829D01*
X92476Y149780D01*
X93636Y148044D01*
X95373Y146883D01*
X96360Y146687D01*
X96556Y145700D01*
X97716Y143964D01*
X99453Y142803D01*
X101501Y142396D01*
X103550Y142803D01*
X105286Y143964D01*
X106447Y145700D01*
X106854Y147749D01*
X106447Y149797D01*
X105286Y151534D01*
X103550Y152694D01*
X102563Y152890D01*
X102367Y153877D01*
X101206Y155614D01*
X99470Y156774D01*
X97421Y157182D01*
D02*
G37*
%LPD*%
D63*
X264000Y353000D02*
X275000D01*
Y368000D01*
X264000D02*
X275000D01*
X264000Y353000D02*
Y368000D01*
D65*
X229000Y385000D02*
D03*
X189000D02*
D03*
X149000D02*
D03*
X109000Y385000D02*
D03*
X115571Y304207D02*
D03*
X87182Y60750D02*
D03*
X37000Y172778D02*
D03*
X231600Y172000D02*
D03*
X225793Y322186D02*
D03*
X43500Y258479D02*
D03*
X70500Y285500D02*
D03*
X11500Y337500D02*
D03*
X44000Y37250D02*
D03*
X36000Y30250D02*
D03*
X236250Y203000D02*
D03*
X263000Y182500D02*
D03*
X112114Y142750D02*
D03*
X101750Y140000D02*
D03*
X89750Y151000D02*
D03*
X95250Y159250D02*
D03*
M02*
