G04*
G04 #@! TF.GenerationSoftware,Altium Limited,Altium Designer,19.0.15 (446)*
G04*
G04 Layer_Physical_Order=4*
G04 Layer_Color=16711680*
%FSLAX44Y44*%
%MOMM*%
G71*
G01*
G75*
%ADD11C,0.2500*%
%ADD58R,0.6000X2.5000*%
%ADD61C,0.1000*%
%ADD62C,0.1114*%
%ADD63C,0.1250*%
%ADD64R,5.8000X5.8000*%
%ADD65C,0.4500*%
G36*
X80265Y410980D02*
X240058D01*
X240730Y409989D01*
Y401270D01*
X271000D01*
Y398730D01*
X240730D01*
Y369730D01*
X251000D01*
Y351000D01*
X297451D01*
Y35549D01*
X286500D01*
X286438Y35536D01*
X286375Y35546D01*
X285591Y35507D01*
X285408Y35461D01*
X285219D01*
X283680Y35155D01*
X283449Y35059D01*
X283202Y35010D01*
X281753Y34410D01*
X281545Y34271D01*
X281313Y34175D01*
X280009Y33303D01*
X279831Y33126D01*
X279622Y32986D01*
X278514Y31878D01*
X278374Y31669D01*
X278197Y31491D01*
X277325Y30187D01*
X277229Y29955D01*
X277090Y29746D01*
X276490Y28298D01*
X276441Y28052D01*
X276345Y27820D01*
X276281Y27500D01*
X261805D01*
Y29000D01*
X261667Y29691D01*
X261276Y30276D01*
X259555Y31997D01*
Y33727D01*
X260489Y34562D01*
X261250Y34411D01*
X262623Y34684D01*
X263788Y35462D01*
X264566Y36627D01*
X264839Y38000D01*
X264566Y39373D01*
X263788Y40538D01*
X262623Y41316D01*
X261250Y41589D01*
X259877Y41316D01*
X258712Y40538D01*
X257934Y39373D01*
X257661Y38000D01*
X257833Y37135D01*
X256474Y35776D01*
X256161Y35308D01*
X255078Y35878D01*
X255351Y37252D01*
X255078Y38625D01*
X254300Y39790D01*
X253136Y40568D01*
X251762Y40841D01*
X250389Y40568D01*
X249224Y39790D01*
X248447Y38625D01*
X248173Y37252D01*
X248447Y35878D01*
X249224Y34714D01*
X249958Y34224D01*
Y27500D01*
X245805D01*
Y33250D01*
X245667Y33941D01*
X245276Y34526D01*
X244805Y34997D01*
Y38472D01*
X245538Y38962D01*
X246316Y40127D01*
X246589Y41500D01*
X246316Y42873D01*
X245538Y44038D01*
X244373Y44816D01*
X243000Y45089D01*
X241627Y44816D01*
X240462Y44038D01*
X239684Y42873D01*
X239411Y41500D01*
X239684Y40127D01*
X240462Y38962D01*
X241195Y38472D01*
Y34250D01*
X241333Y33559D01*
X241724Y32974D01*
X242195Y32503D01*
Y27500D01*
X237916D01*
Y30222D01*
X238649Y30712D01*
X239427Y31877D01*
X239700Y33250D01*
X239427Y34623D01*
X238649Y35788D01*
X237485Y36566D01*
X236111Y36839D01*
X234738Y36566D01*
X233573Y35788D01*
X232796Y34623D01*
X232522Y33250D01*
X232796Y31877D01*
X233573Y30712D01*
X234307Y30222D01*
Y27500D01*
X229805D01*
Y37972D01*
X230538Y38462D01*
X231316Y39627D01*
X231589Y41000D01*
X231316Y42373D01*
X230538Y43538D01*
X229373Y44316D01*
X228000Y44589D01*
X226627Y44316D01*
X225462Y43538D01*
X224684Y42373D01*
X224411Y41000D01*
X224684Y39627D01*
X225462Y38462D01*
X226195Y37972D01*
Y27500D01*
X221805D01*
Y31472D01*
X222538Y31962D01*
X223316Y33127D01*
X223589Y34500D01*
X223316Y35873D01*
X222538Y37038D01*
X221373Y37816D01*
X220000Y38089D01*
X218627Y37816D01*
X217462Y37038D01*
X216684Y35873D01*
X216411Y34500D01*
X216684Y33127D01*
X217462Y31962D01*
X218195Y31472D01*
Y27500D01*
X206105D01*
Y34922D01*
X206838Y35412D01*
X207616Y36576D01*
X207889Y37950D01*
X207616Y39323D01*
X206838Y40487D01*
X205674Y41265D01*
X204300Y41539D01*
X202927Y41265D01*
X201763Y40487D01*
X201325Y39832D01*
X200055Y40217D01*
Y43000D01*
X199917Y43691D01*
X199526Y44276D01*
X198417Y45385D01*
X198589Y46250D01*
X198316Y47623D01*
X197538Y48788D01*
X196373Y49566D01*
X195000Y49839D01*
X193627Y49566D01*
X192462Y48788D01*
X191684Y47623D01*
X191411Y46250D01*
X191684Y44877D01*
X192462Y43712D01*
X193627Y42934D01*
X195000Y42661D01*
X195375Y42736D01*
X196445Y41810D01*
Y30710D01*
X194744Y29008D01*
X194353Y28423D01*
X194215Y27732D01*
Y27500D01*
X189785D01*
Y34977D01*
X190526Y35719D01*
X190917Y36304D01*
X190992Y36681D01*
X191788Y37212D01*
X192566Y38377D01*
X192839Y39750D01*
X192566Y41123D01*
X191788Y42288D01*
X190623Y43066D01*
X189250Y43339D01*
X187877Y43066D01*
X186712Y42288D01*
X185934Y41123D01*
X185661Y39750D01*
X185934Y38377D01*
X186712Y37212D01*
X186313Y36415D01*
X186175Y35725D01*
Y27500D01*
X181805D01*
Y34722D01*
X182538Y35212D01*
X183316Y36377D01*
X183589Y37750D01*
X183316Y39123D01*
X182538Y40288D01*
X181373Y41066D01*
X180000Y41339D01*
X178627Y41066D01*
X177462Y40288D01*
X176684Y39123D01*
X176411Y37750D01*
X176684Y36377D01*
X177462Y35212D01*
X178195Y34722D01*
Y27500D01*
X166805D01*
Y38250D01*
X166667Y38941D01*
X166276Y39526D01*
X165739Y40063D01*
X165827Y41405D01*
X166288Y41712D01*
X167066Y42877D01*
X167339Y44250D01*
X167066Y45623D01*
X166288Y46788D01*
X165123Y47566D01*
X163750Y47839D01*
X162377Y47566D01*
X161212Y46788D01*
X160434Y45623D01*
X160161Y44250D01*
X160434Y42877D01*
X161212Y41712D01*
X161945Y41222D01*
Y39500D01*
X162083Y38809D01*
X162474Y38224D01*
X163195Y37503D01*
Y27500D01*
X157805D01*
Y29315D01*
X157785Y29416D01*
Y34459D01*
X158538Y34962D01*
X159316Y36127D01*
X159589Y37500D01*
X159316Y38873D01*
X158538Y40038D01*
X157373Y40816D01*
X156000Y41089D01*
X154627Y40816D01*
X153462Y40038D01*
X152684Y38873D01*
X152411Y37500D01*
X152684Y36127D01*
X153462Y34962D01*
X154175Y34486D01*
Y29335D01*
X154195Y29234D01*
Y27500D01*
X149562D01*
Y37474D01*
X150295Y37964D01*
X151073Y39128D01*
X151346Y40502D01*
X151073Y41875D01*
X150295Y43040D01*
X149131Y43818D01*
X147757Y44091D01*
X146384Y43818D01*
X145219Y43040D01*
X144441Y41875D01*
X144168Y40502D01*
X144441Y39128D01*
X145219Y37964D01*
X145953Y37474D01*
Y27500D01*
X142305D01*
Y30972D01*
X143038Y31462D01*
X143816Y32627D01*
X144089Y34000D01*
X143816Y35373D01*
X143038Y36538D01*
X141873Y37316D01*
X140500Y37589D01*
X139127Y37316D01*
X137962Y36538D01*
X137184Y35373D01*
X136911Y34000D01*
X137184Y32627D01*
X137962Y31462D01*
X138695Y30972D01*
Y27500D01*
X121549D01*
Y32500D01*
X121532Y32583D01*
X121543Y32667D01*
X121479Y33646D01*
X121414Y33888D01*
X121398Y34139D01*
X120891Y36030D01*
X120744Y36329D01*
X120636Y36645D01*
X119657Y38340D01*
X119438Y38591D01*
X119252Y38868D01*
X117868Y40252D01*
X117591Y40438D01*
X117340Y40658D01*
X115645Y41637D01*
X115329Y41744D01*
X115030Y41891D01*
X113139Y42398D01*
X112806Y42420D01*
X112479Y42485D01*
X110521D01*
X110194Y42420D01*
X109861Y42398D01*
X107970Y41891D01*
X107671Y41744D01*
X107355Y41636D01*
X105660Y40658D01*
X105409Y40438D01*
X105132Y40252D01*
X103748Y38868D01*
X103562Y38591D01*
X103343Y38340D01*
X102364Y36645D01*
X102256Y36329D01*
X102109Y36030D01*
X101602Y34139D01*
X101586Y33888D01*
X101521Y33646D01*
X101457Y32667D01*
X101468Y32583D01*
X101451Y32500D01*
Y27500D01*
X90000D01*
Y29000D01*
X84684D01*
Y31183D01*
X85302Y31306D01*
X87039Y32467D01*
X88199Y34203D01*
X88607Y36252D01*
X88199Y38300D01*
X87039Y40037D01*
X85302Y41197D01*
X83254Y41605D01*
X81206Y41197D01*
X80004Y40394D01*
X78802Y41197D01*
X76754Y41605D01*
X74705Y41197D01*
X72969Y40037D01*
X71808Y38300D01*
X71401Y36252D01*
X71808Y34203D01*
X72969Y32467D01*
X74705Y31306D01*
X75316Y31185D01*
Y29000D01*
X70000D01*
Y27500D01*
X60805D01*
Y32874D01*
X62075Y33553D01*
X62627Y33184D01*
X64000Y32911D01*
X65373Y33184D01*
X66538Y33962D01*
X67316Y35127D01*
X67589Y36500D01*
X67316Y37873D01*
X66538Y39038D01*
X65373Y39816D01*
X64724Y39945D01*
X64722Y39946D01*
X64167Y41309D01*
X64305Y42000D01*
Y48250D01*
X64167Y48941D01*
X63776Y49526D01*
X61805Y51498D01*
Y62222D01*
X62538Y62712D01*
X63316Y63877D01*
X63589Y65250D01*
X63316Y66623D01*
X62538Y67788D01*
X61373Y68566D01*
X60000Y68839D01*
X58627Y68566D01*
X57961Y68121D01*
X56617Y68559D01*
X56570Y68603D01*
X56566Y68623D01*
X55788Y69788D01*
X54623Y70566D01*
X53250Y70839D01*
X51877Y70566D01*
X50712Y69788D01*
X49934Y68623D01*
X49661Y67250D01*
X49934Y65877D01*
X50712Y64712D01*
X51877Y63934D01*
X53250Y63661D01*
X54623Y63934D01*
X55289Y64379D01*
X56633Y63941D01*
X56680Y63897D01*
X56684Y63877D01*
X57462Y62712D01*
X58195Y62222D01*
Y50750D01*
X58333Y50059D01*
X58519Y49781D01*
X58120Y48865D01*
X58090Y48814D01*
X57844Y48558D01*
X56627Y48316D01*
X56376Y48148D01*
X55375Y47653D01*
X54749Y48472D01*
X54538Y48788D01*
X53373Y49566D01*
X52000Y49839D01*
X50627Y49566D01*
X49462Y48788D01*
X48684Y47624D01*
X47835Y47272D01*
X47330Y47327D01*
X46002Y47591D01*
X44629Y47318D01*
X43464Y46540D01*
X42687Y45376D01*
X42413Y44002D01*
X42687Y42629D01*
X43133Y41961D01*
X42695Y40620D01*
X42651Y40571D01*
X42627Y40566D01*
X41462Y39788D01*
X40684Y38623D01*
X40411Y37250D01*
X40684Y35877D01*
X41431Y34760D01*
Y27500D01*
X39924D01*
X39245Y28770D01*
X39316Y28877D01*
X39589Y30250D01*
X39316Y31623D01*
X38538Y32788D01*
X37373Y33566D01*
X36000Y33839D01*
X34627Y33566D01*
X33462Y32788D01*
X32684Y31623D01*
X32411Y30250D01*
X32684Y28877D01*
X32756Y28770D01*
X32077Y27500D01*
X23719D01*
X23655Y27819D01*
X23559Y28052D01*
X23510Y28298D01*
X22910Y29746D01*
X22771Y29955D01*
X22675Y30187D01*
X21803Y31491D01*
X21626Y31669D01*
X21486Y31878D01*
X20378Y32986D01*
X20169Y33126D01*
X19991Y33303D01*
X18687Y34175D01*
X18455Y34271D01*
X18247Y34410D01*
X16798Y35010D01*
X16552Y35059D01*
X16320Y35155D01*
X14781Y35461D01*
X14592D01*
X14409Y35507D01*
X13625Y35546D01*
X13562Y35536D01*
X13500Y35549D01*
X2549D01*
Y369730D01*
X27730D01*
Y400000D01*
X29000D01*
Y401270D01*
X59270D01*
Y426451D01*
X80265D01*
Y410980D01*
D02*
G37*
G36*
X290235Y359469D02*
X291821D01*
Y361011D01*
X293094D01*
Y359469D01*
X294012D01*
Y358300D01*
X293094D01*
Y356663D01*
X291821D01*
Y358300D01*
X288988D01*
Y359530D01*
X291223Y364337D01*
X292487D01*
X290235Y359469D01*
D02*
G37*
%LPC*%
G36*
X229000Y388589D02*
X227627Y388316D01*
X226462Y387538D01*
X225684Y386373D01*
X225411Y385000D01*
X225684Y383627D01*
X226462Y382462D01*
X227627Y381684D01*
X229000Y381411D01*
X230373Y381684D01*
X231538Y382462D01*
X232316Y383627D01*
X232589Y385000D01*
X232316Y386373D01*
X231538Y387538D01*
X230373Y388316D01*
X229000Y388589D01*
D02*
G37*
G36*
X189000D02*
X187627Y388316D01*
X186462Y387538D01*
X185684Y386373D01*
X185411Y385000D01*
X185684Y383627D01*
X186462Y382462D01*
X187627Y381684D01*
X189000Y381411D01*
X190373Y381684D01*
X191538Y382462D01*
X192316Y383627D01*
X192589Y385000D01*
X192316Y386373D01*
X191538Y387538D01*
X190373Y388316D01*
X189000Y388589D01*
D02*
G37*
G36*
X149000D02*
X147627Y388316D01*
X146462Y387538D01*
X145684Y386373D01*
X145411Y385000D01*
X145684Y383627D01*
X146462Y382462D01*
X147627Y381684D01*
X149000Y381411D01*
X150373Y381684D01*
X151538Y382462D01*
X152316Y383627D01*
X152589Y385000D01*
X152316Y386373D01*
X151538Y387538D01*
X150373Y388316D01*
X149000Y388589D01*
D02*
G37*
G36*
X109000Y388589D02*
X107627Y388316D01*
X106462Y387538D01*
X105684Y386373D01*
X105411Y385000D01*
X105684Y383627D01*
X106462Y382462D01*
X107627Y381684D01*
X109000Y381411D01*
X110373Y381684D01*
X111538Y382462D01*
X112316Y383627D01*
X112589Y385000D01*
X112316Y386373D01*
X111538Y387538D01*
X110373Y388316D01*
X109000Y388589D01*
D02*
G37*
G36*
X59270Y398730D02*
X30270D01*
Y369730D01*
X59270D01*
Y398730D01*
D02*
G37*
G36*
X77500Y341089D02*
X76127Y340816D01*
X74962Y340038D01*
X74184Y338873D01*
X73911Y337500D01*
X74184Y336127D01*
X74962Y334962D01*
X76127Y334184D01*
X77500Y333911D01*
X78873Y334184D01*
X80038Y334962D01*
X80816Y336127D01*
X81089Y337500D01*
X80816Y338873D01*
X80038Y340038D01*
X78873Y340816D01*
X77500Y341089D01*
D02*
G37*
G36*
X11500D02*
X10127Y340816D01*
X8962Y340038D01*
X8184Y338873D01*
X7911Y337500D01*
X8184Y336127D01*
X8962Y334962D01*
X10127Y334184D01*
X11500Y333911D01*
X12873Y334184D01*
X14038Y334962D01*
X14816Y336127D01*
X15089Y337500D01*
X14816Y338873D01*
X14038Y340038D01*
X12873Y340816D01*
X11500Y341089D01*
D02*
G37*
G36*
X100572Y330339D02*
X99199Y330066D01*
X98034Y329288D01*
X97256Y328123D01*
X96983Y326750D01*
X97256Y325377D01*
X98034Y324212D01*
X99199Y323434D01*
X100572Y323161D01*
X101945Y323434D01*
X103110Y324212D01*
X103888Y325377D01*
X104161Y326750D01*
X103888Y328123D01*
X103110Y329288D01*
X101945Y330066D01*
X100572Y330339D01*
D02*
G37*
G36*
X225793Y325775D02*
X224419Y325502D01*
X223255Y324724D01*
X222477Y323560D01*
X222204Y322186D01*
X222477Y320813D01*
X223255Y319648D01*
X224419Y318871D01*
X225793Y318597D01*
X227166Y318871D01*
X228331Y319648D01*
X229109Y320813D01*
X229382Y322186D01*
X229109Y323560D01*
X228331Y324724D01*
X227166Y325502D01*
X225793Y325775D01*
D02*
G37*
G36*
X53750Y324589D02*
X52377Y324316D01*
X51212Y323538D01*
X50434Y322373D01*
X50161Y321000D01*
X50434Y319627D01*
X51212Y318462D01*
X52377Y317684D01*
X53750Y317411D01*
X55123Y317684D01*
X56288Y318462D01*
X57066Y319627D01*
X57339Y321000D01*
X57066Y322373D01*
X56288Y323538D01*
X55123Y324316D01*
X53750Y324589D01*
D02*
G37*
G36*
X44500D02*
X43127Y324316D01*
X41962Y323538D01*
X41184Y322373D01*
X40911Y321000D01*
X41184Y319627D01*
X41962Y318462D01*
X43127Y317684D01*
X44500Y317411D01*
X45873Y317684D01*
X47038Y318462D01*
X47816Y319627D01*
X48089Y321000D01*
X47816Y322373D01*
X47038Y323538D01*
X45873Y324316D01*
X44500Y324589D01*
D02*
G37*
G36*
X35500D02*
X34127Y324316D01*
X32962Y323538D01*
X32184Y322373D01*
X31911Y321000D01*
X32184Y319627D01*
X32962Y318462D01*
X34127Y317684D01*
X35500Y317411D01*
X36873Y317684D01*
X38038Y318462D01*
X38816Y319627D01*
X39089Y321000D01*
X38816Y322373D01*
X38038Y323538D01*
X36873Y324316D01*
X35500Y324589D01*
D02*
G37*
G36*
X26500D02*
X25127Y324316D01*
X23962Y323538D01*
X23184Y322373D01*
X22911Y321000D01*
X23184Y319627D01*
X23962Y318462D01*
X25127Y317684D01*
X26500Y317411D01*
X27873Y317684D01*
X29038Y318462D01*
X29816Y319627D01*
X30089Y321000D01*
X29816Y322373D01*
X29038Y323538D01*
X27873Y324316D01*
X26500Y324589D01*
D02*
G37*
G36*
X17500D02*
X16127Y324316D01*
X14962Y323538D01*
X14184Y322373D01*
X13911Y321000D01*
X14184Y319627D01*
X14962Y318462D01*
X16127Y317684D01*
X17500Y317411D01*
X18873Y317684D01*
X20038Y318462D01*
X20816Y319627D01*
X21089Y321000D01*
X20816Y322373D01*
X20038Y323538D01*
X18873Y324316D01*
X17500Y324589D01*
D02*
G37*
G36*
X151250Y315620D02*
X149877Y315347D01*
X148712Y314569D01*
X147934Y313405D01*
X147748Y312467D01*
X147283Y312332D01*
X146426Y312332D01*
X145788Y313288D01*
X144623Y314066D01*
X143250Y314339D01*
X141877Y314066D01*
X140712Y313288D01*
X139934Y312123D01*
X139661Y310750D01*
X139934Y309377D01*
X140712Y308212D01*
X141877Y307434D01*
X143250Y307161D01*
X144623Y307434D01*
X145788Y308212D01*
X146566Y309377D01*
X146752Y310315D01*
X147217Y310450D01*
X148074Y310449D01*
X148712Y309493D01*
X149877Y308715D01*
X151250Y308442D01*
X152623Y308715D01*
X153788Y309493D01*
X154566Y310658D01*
X154839Y312031D01*
X154566Y313405D01*
X153788Y314569D01*
X152623Y315347D01*
X151250Y315620D01*
D02*
G37*
G36*
X115571Y307796D02*
X114197Y307523D01*
X113033Y306744D01*
X112255Y305580D01*
X111982Y304207D01*
X112255Y302833D01*
X113033Y301669D01*
X114197Y300891D01*
X115571Y300618D01*
X116944Y300891D01*
X118109Y301669D01*
X118886Y302833D01*
X119160Y304207D01*
X118886Y305580D01*
X118109Y306744D01*
X116944Y307523D01*
X115571Y307796D01*
D02*
G37*
G36*
X144031Y291301D02*
X142658Y291028D01*
X141493Y290250D01*
X140715Y289085D01*
X140442Y287712D01*
X140715Y286339D01*
X141493Y285174D01*
X142658Y284396D01*
X144031Y284123D01*
X145405Y284396D01*
X146569Y285174D01*
X147347Y286339D01*
X147620Y287712D01*
X147347Y289085D01*
X146569Y290250D01*
X145405Y291028D01*
X144031Y291301D01*
D02*
G37*
G36*
X70500Y289089D02*
X69127Y288816D01*
X67962Y288038D01*
X67184Y286873D01*
X66911Y285500D01*
X67184Y284127D01*
X67962Y282962D01*
X69127Y282184D01*
X70500Y281911D01*
X71873Y282184D01*
X73038Y282962D01*
X73816Y284127D01*
X74089Y285500D01*
X73816Y286873D01*
X73038Y288038D01*
X71873Y288816D01*
X70500Y289089D01*
D02*
G37*
G36*
X155985Y291285D02*
X154612Y291011D01*
X153447Y290233D01*
X152669Y289069D01*
X152396Y287696D01*
X152669Y286322D01*
X153447Y285158D01*
X153593Y285061D01*
X153953Y283314D01*
X153919Y283264D01*
X153646Y281891D01*
X153919Y280517D01*
X154697Y279353D01*
X155862Y278575D01*
X157235Y278302D01*
X158609Y278575D01*
X158670Y278616D01*
X160409Y278251D01*
X160518Y278087D01*
X161683Y277309D01*
X163056Y277036D01*
X164430Y277309D01*
X165594Y278087D01*
X166372Y279251D01*
X166645Y280625D01*
X166372Y281998D01*
X165594Y283162D01*
X164430Y283940D01*
X163056Y284214D01*
X161683Y283940D01*
X161621Y283899D01*
X159882Y284265D01*
X159773Y284429D01*
X159628Y284526D01*
X159267Y286272D01*
X159301Y286322D01*
X159574Y287696D01*
X159301Y289069D01*
X158523Y290233D01*
X157359Y291011D01*
X155985Y291285D01*
D02*
G37*
G36*
X25000Y287660D02*
X23627Y287387D01*
X22462Y286609D01*
X21684Y285445D01*
X21411Y284071D01*
X21684Y282698D01*
X22462Y281533D01*
X23627Y280755D01*
X25000Y280482D01*
X26373Y280755D01*
X26633Y280929D01*
X27936Y280890D01*
X28714Y279726D01*
X29874Y278951D01*
X30327Y277837D01*
X30184Y277623D01*
X29911Y276250D01*
X30184Y274877D01*
X30962Y273712D01*
X32127Y272934D01*
X33500Y272661D01*
X34873Y272934D01*
X36038Y273712D01*
X36816Y274877D01*
X37089Y276250D01*
X36816Y277623D01*
X36038Y278788D01*
X34878Y279563D01*
X34425Y280677D01*
X34567Y280890D01*
X34841Y282264D01*
X34567Y283637D01*
X33789Y284802D01*
X32625Y285579D01*
X31251Y285853D01*
X29878Y285579D01*
X29618Y285406D01*
X28316Y285445D01*
X27538Y286609D01*
X26373Y287387D01*
X25000Y287660D01*
D02*
G37*
G36*
X129889Y277159D02*
X128516Y276886D01*
X127351Y276108D01*
X126573Y274943D01*
X126300Y273570D01*
X126573Y272196D01*
X126615Y272135D01*
X126264Y270406D01*
X126085Y270287D01*
X125307Y269122D01*
X125258Y269102D01*
X124191Y269814D01*
X122818Y270088D01*
X121445Y269814D01*
X120280Y269037D01*
X119502Y267872D01*
X119229Y266499D01*
X119502Y265125D01*
X119544Y265063D01*
X119178Y263325D01*
X119014Y263215D01*
X118236Y262051D01*
X118187Y262031D01*
X117120Y262743D01*
X115747Y263017D01*
X114373Y262743D01*
X113209Y261965D01*
X112431Y260801D01*
X112158Y259428D01*
X112431Y258054D01*
X113209Y256890D01*
X114373Y256112D01*
X115747Y255839D01*
X117120Y256112D01*
X118285Y256890D01*
X119063Y258054D01*
X119112Y258074D01*
X120178Y257362D01*
X121552Y257089D01*
X122925Y257362D01*
X124089Y258140D01*
X124867Y259304D01*
X125141Y260678D01*
X124867Y262051D01*
X124826Y262113D01*
X125192Y263852D01*
X125356Y263961D01*
X126134Y265125D01*
X126183Y265146D01*
X127249Y264433D01*
X128623Y264160D01*
X129996Y264433D01*
X131160Y265211D01*
X131938Y266375D01*
X132212Y267749D01*
X131938Y269122D01*
X131897Y269184D01*
X132247Y270912D01*
X132427Y271032D01*
X133205Y272196D01*
X133478Y273570D01*
X133205Y274943D01*
X132427Y276108D01*
X131262Y276886D01*
X129889Y277159D01*
D02*
G37*
G36*
X152250Y265839D02*
X150877Y265566D01*
X149712Y264788D01*
X148934Y263623D01*
X148661Y262250D01*
X148934Y260877D01*
X149712Y259712D01*
X150877Y258934D01*
X152250Y258661D01*
X153623Y258934D01*
X154788Y259712D01*
X155566Y260877D01*
X155839Y262250D01*
X155566Y263623D01*
X154788Y264788D01*
X153623Y265566D01*
X152250Y265839D01*
D02*
G37*
G36*
X43500Y262068D02*
X42127Y261795D01*
X40962Y261017D01*
X40184Y259853D01*
X39911Y258479D01*
X40184Y257106D01*
X40962Y255941D01*
X42127Y255163D01*
X43500Y254890D01*
X44873Y255163D01*
X46038Y255941D01*
X46816Y257106D01*
X47089Y258479D01*
X46816Y259853D01*
X46038Y261017D01*
X44873Y261795D01*
X43500Y262068D01*
D02*
G37*
G36*
X173663Y273607D02*
X172289Y273334D01*
X171125Y272556D01*
X170347Y271391D01*
X170074Y270018D01*
X170347Y268645D01*
X171125Y267480D01*
X171270Y267383D01*
X171631Y265637D01*
X171597Y265587D01*
X171324Y264213D01*
X171597Y262840D01*
X172375Y261675D01*
X173539Y260897D01*
X174913Y260624D01*
X176286Y260897D01*
X176348Y260939D01*
X178087Y260573D01*
X178196Y260409D01*
X178341Y260312D01*
X178702Y258566D01*
X178668Y258516D01*
X178395Y257142D01*
X178668Y255769D01*
X179446Y254604D01*
X180611Y253826D01*
X181984Y253553D01*
X183357Y253826D01*
X184415Y254533D01*
X184489Y254502D01*
X185267Y253338D01*
X186432Y252560D01*
X187805Y252287D01*
X189178Y252560D01*
X190343Y253338D01*
X191121Y254502D01*
X191394Y255876D01*
X191121Y257249D01*
X190343Y258414D01*
X189178Y259191D01*
X187805Y259465D01*
X186432Y259191D01*
X185374Y258485D01*
X185300Y258516D01*
X184522Y259680D01*
X184377Y259777D01*
X184016Y261523D01*
X184050Y261573D01*
X184323Y262947D01*
X184050Y264320D01*
X183272Y265485D01*
X182107Y266263D01*
X180734Y266536D01*
X179361Y266263D01*
X179299Y266221D01*
X177560Y266587D01*
X177451Y266751D01*
X177306Y266848D01*
X176945Y268594D01*
X176979Y268645D01*
X177252Y270018D01*
X176979Y271391D01*
X176201Y272556D01*
X175036Y273334D01*
X173663Y273607D01*
D02*
G37*
G36*
X235250Y259089D02*
X233877Y258816D01*
X232712Y258038D01*
X231934Y256873D01*
X231661Y255500D01*
X231934Y254127D01*
X232712Y252962D01*
X233877Y252184D01*
X235250Y251911D01*
X236623Y252184D01*
X237788Y252962D01*
X238566Y254127D01*
X238839Y255500D01*
X238566Y256873D01*
X237788Y258038D01*
X236623Y258816D01*
X235250Y259089D01*
D02*
G37*
G36*
X103874Y246589D02*
X102500Y246316D01*
X101336Y245538D01*
X100558Y244373D01*
X100509Y244353D01*
X99443Y245066D01*
X98069Y245339D01*
X96696Y245066D01*
X95531Y244288D01*
X94753Y243123D01*
X94480Y241750D01*
X94753Y240377D01*
X95531Y239212D01*
X96696Y238434D01*
X98069Y238161D01*
X99443Y238434D01*
X100607Y239212D01*
X101385Y240377D01*
X101434Y240397D01*
X102500Y239684D01*
X103874Y239411D01*
X105247Y239684D01*
X106412Y240462D01*
X107190Y241627D01*
X107463Y243000D01*
X107190Y244373D01*
X106412Y245538D01*
X105247Y246316D01*
X103874Y246589D01*
D02*
G37*
G36*
X75111Y240089D02*
X73738Y239816D01*
X72573Y239038D01*
X71796Y237873D01*
X71522Y236500D01*
X71796Y235127D01*
X72573Y233962D01*
X73738Y233184D01*
X75111Y232911D01*
X76485Y233184D01*
X77649Y233962D01*
X78427Y235127D01*
X78700Y236500D01*
X78427Y237873D01*
X77649Y239038D01*
X76485Y239816D01*
X75111Y240089D01*
D02*
G37*
G36*
X178250Y238839D02*
X176877Y238566D01*
X175712Y237788D01*
X174934Y236623D01*
X174661Y235250D01*
X174934Y233877D01*
X175712Y232712D01*
X176877Y231934D01*
X178250Y231661D01*
X179623Y231934D01*
X180788Y232712D01*
X181566Y233877D01*
X181839Y235250D01*
X181566Y236623D01*
X180788Y237788D01*
X179623Y238566D01*
X178250Y238839D01*
D02*
G37*
G36*
X68000Y234589D02*
X66627Y234316D01*
X65462Y233538D01*
X64684Y232373D01*
X64411Y231000D01*
X64684Y229627D01*
X65462Y228462D01*
X66627Y227684D01*
X68000Y227411D01*
X69373Y227684D01*
X70538Y228462D01*
X71316Y229627D01*
X71589Y231000D01*
X71316Y232373D01*
X70538Y233538D01*
X69373Y234316D01*
X68000Y234589D01*
D02*
G37*
G36*
X236250Y206589D02*
X234877Y206316D01*
X233712Y205538D01*
X232934Y204373D01*
X232661Y203000D01*
X232934Y201627D01*
X233712Y200462D01*
X234877Y199684D01*
X236250Y199411D01*
X237623Y199684D01*
X238788Y200462D01*
X239566Y201627D01*
X239839Y203000D01*
X239566Y204373D01*
X238788Y205538D01*
X237623Y206316D01*
X236250Y206589D01*
D02*
G37*
G36*
X137000Y201089D02*
X135627Y200816D01*
X134462Y200038D01*
X133684Y198873D01*
X133411Y197500D01*
X133684Y196127D01*
X134462Y194962D01*
X135627Y194184D01*
X137000Y193911D01*
X137501Y194011D01*
X138265Y192868D01*
X137934Y192373D01*
X137661Y191000D01*
X137934Y189627D01*
X138712Y188462D01*
X139877Y187684D01*
X141250Y187411D01*
X142623Y187684D01*
X143788Y188462D01*
X144566Y189627D01*
X144839Y191000D01*
X144566Y192373D01*
X143788Y193538D01*
X142623Y194316D01*
X141250Y194589D01*
X140749Y194489D01*
X139986Y195632D01*
X140316Y196127D01*
X140589Y197500D01*
X140316Y198873D01*
X139538Y200038D01*
X138373Y200816D01*
X137000Y201089D01*
D02*
G37*
G36*
X263000Y186089D02*
X261627Y185816D01*
X260462Y185038D01*
X259684Y183873D01*
X259411Y182500D01*
X259684Y181127D01*
X260462Y179962D01*
X261627Y179184D01*
X263000Y178911D01*
X264373Y179184D01*
X265538Y179962D01*
X266316Y181127D01*
X266589Y182500D01*
X266316Y183873D01*
X265538Y185038D01*
X264373Y185816D01*
X263000Y186089D01*
D02*
G37*
G36*
X93053Y192997D02*
X91679Y192724D01*
X90515Y191945D01*
X89737Y190781D01*
X89464Y189408D01*
X89737Y188034D01*
X90515Y186870D01*
X91679Y186092D01*
X91700Y186043D01*
X90987Y184976D01*
X90714Y183603D01*
X90987Y182230D01*
X91765Y181065D01*
X92929Y180287D01*
X94303Y180014D01*
X95676Y180287D01*
X95738Y180329D01*
X97466Y179978D01*
X97586Y179799D01*
X98750Y179021D01*
X100124Y178748D01*
X101497Y179021D01*
X102662Y179799D01*
X103440Y180963D01*
X103713Y182337D01*
X103440Y183710D01*
X102662Y184874D01*
X101497Y185652D01*
X100124Y185926D01*
X98750Y185652D01*
X98688Y185611D01*
X96950Y185977D01*
X96840Y186141D01*
X95676Y186919D01*
X95656Y186968D01*
X96368Y188034D01*
X96642Y189408D01*
X96368Y190781D01*
X95590Y191945D01*
X94426Y192724D01*
X93053Y192997D01*
D02*
G37*
G36*
X139229Y182621D02*
X137856Y182348D01*
X136692Y181570D01*
X135913Y180406D01*
X135640Y179032D01*
X135913Y177659D01*
X136692Y176494D01*
X137856Y175716D01*
X139229Y175443D01*
X140603Y175716D01*
X141767Y176494D01*
X142545Y177659D01*
X142818Y179032D01*
X142545Y180406D01*
X141767Y181570D01*
X140603Y182348D01*
X139229Y182621D01*
D02*
G37*
G36*
X155750Y201339D02*
X154377Y201066D01*
X153212Y200288D01*
X152434Y199123D01*
X152161Y197750D01*
X152434Y196377D01*
X153212Y195212D01*
X154220Y194539D01*
X154408Y194286D01*
X154658Y193083D01*
X154184Y192373D01*
X153911Y191000D01*
X154184Y189627D01*
X154962Y188462D01*
X155588Y188044D01*
X155661Y187718D01*
X155544Y186604D01*
X154697Y186038D01*
X153919Y184873D01*
X153646Y183500D01*
X153919Y182127D01*
X154697Y180962D01*
X155862Y180184D01*
X157235Y179911D01*
X158368Y180136D01*
X158379Y180125D01*
X159060Y179114D01*
X159074Y179080D01*
X158434Y178123D01*
X158161Y176750D01*
X158434Y175377D01*
X159212Y174212D01*
X160377Y173434D01*
X161750Y173161D01*
X163123Y173434D01*
X164288Y174212D01*
X165066Y175377D01*
X165339Y176750D01*
X165066Y178123D01*
X164288Y179288D01*
X163123Y180066D01*
X161750Y180339D01*
X160617Y180114D01*
X160606Y180125D01*
X159925Y181136D01*
X159911Y181169D01*
X160551Y182127D01*
X160824Y183500D01*
X160551Y184873D01*
X159773Y186038D01*
X159147Y186456D01*
X159074Y186782D01*
X159191Y187896D01*
X160038Y188462D01*
X160816Y189627D01*
X161089Y191000D01*
X160816Y192373D01*
X160038Y193538D01*
X159030Y194211D01*
X158842Y194464D01*
X158591Y195667D01*
X159066Y196377D01*
X159339Y197750D01*
X159066Y199123D01*
X158288Y200288D01*
X157123Y201066D01*
X155750Y201339D01*
D02*
G37*
G36*
X37250Y184589D02*
X35877Y184316D01*
X34712Y183538D01*
X33934Y182373D01*
X33661Y181000D01*
X33934Y179627D01*
X34712Y178462D01*
X35415Y177993D01*
X35877Y177684D01*
X36494Y177532D01*
Y176266D01*
X35627Y176094D01*
X34462Y175316D01*
X33684Y174152D01*
X33411Y172778D01*
X33684Y171405D01*
X34462Y170240D01*
X35627Y169462D01*
X37000Y169189D01*
X37710Y168036D01*
X37434Y167623D01*
X37161Y166250D01*
X37434Y164877D01*
X38212Y163712D01*
X39377Y162934D01*
X40750Y162661D01*
X42123Y162934D01*
X43288Y163712D01*
X44066Y164877D01*
X44339Y166250D01*
X44066Y167623D01*
X43288Y168788D01*
X42123Y169566D01*
X41429Y169704D01*
X40652Y171016D01*
X40908Y171813D01*
X41627Y172184D01*
X43000Y171911D01*
X44373Y172184D01*
X45538Y172962D01*
X46316Y174127D01*
X46589Y175500D01*
X46316Y176873D01*
X45538Y178038D01*
X44373Y178816D01*
X43000Y179089D01*
X41627Y178816D01*
X41491Y178725D01*
X40589Y179604D01*
X40567Y179636D01*
X40839Y181000D01*
X40566Y182373D01*
X39788Y183538D01*
X38623Y184316D01*
X37250Y184589D01*
D02*
G37*
G36*
X231600Y175589D02*
X230227Y175316D01*
X229062Y174538D01*
X228284Y173373D01*
X228011Y172000D01*
X228284Y170627D01*
X229062Y169462D01*
X230227Y168684D01*
X231600Y168411D01*
X232973Y168684D01*
X234138Y169462D01*
X234916Y170627D01*
X235189Y172000D01*
X234916Y173373D01*
X234138Y174538D01*
X232973Y175316D01*
X231600Y175589D01*
D02*
G37*
G36*
X104909Y176585D02*
X103536Y176312D01*
X102372Y175534D01*
X101594Y174370D01*
X101320Y172996D01*
X101594Y171623D01*
X102372Y170459D01*
X103536Y169681D01*
X104909Y169408D01*
X106283Y169681D01*
X106344Y169722D01*
X108083Y169356D01*
X108193Y169192D01*
X109357Y168414D01*
X110730Y168141D01*
X112104Y168414D01*
X113268Y169192D01*
X114046Y170357D01*
X114319Y171730D01*
X114046Y173104D01*
X113268Y174268D01*
X112104Y175046D01*
X110730Y175319D01*
X109357Y175046D01*
X109295Y175005D01*
X107556Y175370D01*
X107447Y175534D01*
X106283Y176312D01*
X104909Y176585D01*
D02*
G37*
G36*
X205375Y169964D02*
X204002Y169691D01*
X202837Y168913D01*
X202059Y167748D01*
X201786Y166375D01*
X202059Y165002D01*
X202837Y163837D01*
X204002Y163059D01*
X205375Y162786D01*
X206748Y163059D01*
X207913Y163837D01*
X208691Y165002D01*
X208964Y166375D01*
X208691Y167748D01*
X207913Y168913D01*
X206748Y169691D01*
X205375Y169964D01*
D02*
G37*
G36*
X219000Y156339D02*
X217627Y156066D01*
X216462Y155288D01*
X215684Y154123D01*
X215411Y152750D01*
X215684Y151377D01*
X216462Y150212D01*
X217627Y149434D01*
X219000Y149161D01*
X220373Y149434D01*
X221538Y150212D01*
X222316Y151377D01*
X222589Y152750D01*
X222316Y154123D01*
X221538Y155288D01*
X220373Y156066D01*
X219000Y156339D01*
D02*
G37*
G36*
X202750Y149089D02*
X201377Y148816D01*
X200212Y148038D01*
X199434Y146873D01*
X199259Y145995D01*
X198509Y145714D01*
X197945Y145600D01*
X196873Y146316D01*
X195500Y146589D01*
X194127Y146316D01*
X192962Y145538D01*
X192184Y144373D01*
X191911Y143000D01*
X192184Y141627D01*
X192962Y140462D01*
X194127Y139684D01*
X195500Y139411D01*
X196873Y139684D01*
X198038Y140462D01*
X198816Y141627D01*
X198990Y142505D01*
X199741Y142786D01*
X200305Y142900D01*
X201377Y142184D01*
X202750Y141911D01*
X204123Y142184D01*
X205288Y142962D01*
X206066Y144127D01*
X206339Y145500D01*
X206066Y146873D01*
X205288Y148038D01*
X204123Y148816D01*
X202750Y149089D01*
D02*
G37*
G36*
X170250Y152089D02*
X168877Y151816D01*
X167712Y151038D01*
X166934Y149873D01*
X166661Y148500D01*
X166934Y147127D01*
X167712Y145962D01*
X168877Y145184D01*
X170250Y144911D01*
X171623Y145184D01*
X172788Y145962D01*
X173566Y147127D01*
X173839Y148500D01*
X173566Y149873D01*
X172788Y151038D01*
X171623Y151816D01*
X170250Y152089D01*
D02*
G37*
G36*
X97421Y157182D02*
X95373Y156774D01*
X93636Y155614D01*
X92476Y153877D01*
X92069Y151829D01*
X92476Y149780D01*
X93636Y148044D01*
X95373Y146883D01*
X96360Y146687D01*
X96556Y145700D01*
X97716Y143964D01*
X99453Y142803D01*
X101501Y142396D01*
X103550Y142803D01*
X105286Y143964D01*
X106447Y145700D01*
X106854Y147749D01*
X106447Y149797D01*
X105286Y151534D01*
X103550Y152694D01*
X102563Y152890D01*
X102367Y153877D01*
X101206Y155614D01*
X99470Y156774D01*
X97421Y157182D01*
D02*
G37*
G36*
X280050Y147839D02*
X278677Y147566D01*
X277512Y146788D01*
X276734Y145623D01*
X276461Y144250D01*
X276734Y142877D01*
X277512Y141712D01*
X278677Y140934D01*
X280050Y140661D01*
X281423Y140934D01*
X282588Y141712D01*
X283366Y142877D01*
X283639Y144250D01*
X283366Y145623D01*
X282588Y146788D01*
X281423Y147566D01*
X280050Y147839D01*
D02*
G37*
G36*
X267350D02*
X265977Y147566D01*
X264812Y146788D01*
X264034Y145623D01*
X263761Y144250D01*
X264034Y142877D01*
X264812Y141712D01*
X265977Y140934D01*
X267350Y140661D01*
X268723Y140934D01*
X269888Y141712D01*
X270666Y142877D01*
X270939Y144250D01*
X270666Y145623D01*
X269888Y146788D01*
X268723Y147566D01*
X267350Y147839D01*
D02*
G37*
G36*
X112114Y146339D02*
X110740Y146066D01*
X109576Y145288D01*
X108798Y144123D01*
X108525Y142750D01*
X108798Y141377D01*
X109576Y140212D01*
X110740Y139434D01*
X112114Y139161D01*
X113487Y139434D01*
X114652Y140212D01*
X115430Y141377D01*
X115703Y142750D01*
X115430Y144123D01*
X114652Y145288D01*
X113487Y146066D01*
X112114Y146339D01*
D02*
G37*
G36*
X37000Y145889D02*
X35627Y145616D01*
X34462Y144838D01*
X33684Y143673D01*
X33411Y142300D01*
X33684Y140927D01*
X34462Y139762D01*
X35627Y138984D01*
X37000Y138711D01*
X38373Y138984D01*
X39538Y139762D01*
X40316Y140927D01*
X40589Y142300D01*
X40316Y143673D01*
X39538Y144838D01*
X38373Y145616D01*
X37000Y145889D01*
D02*
G37*
G36*
X163750Y140839D02*
X162377Y140566D01*
X161212Y139788D01*
X160638Y138928D01*
X160087Y138607D01*
X159127Y138562D01*
X158373Y139066D01*
X157000Y139339D01*
X155627Y139066D01*
X154462Y138288D01*
X153684Y137123D01*
X153411Y135750D01*
X153684Y134377D01*
X154462Y133212D01*
X155627Y132434D01*
X157000Y132161D01*
X158373Y132434D01*
X159538Y133212D01*
X160112Y134072D01*
X160663Y134393D01*
X161623Y134438D01*
X162377Y133934D01*
X163750Y133661D01*
X165123Y133934D01*
X166288Y134712D01*
X167066Y135877D01*
X167339Y137250D01*
X167066Y138623D01*
X166288Y139788D01*
X165123Y140566D01*
X163750Y140839D01*
D02*
G37*
G36*
X222655Y145434D02*
X221282Y145161D01*
X220117Y144383D01*
X219339Y143218D01*
X219066Y141845D01*
X219339Y140472D01*
X220117Y139307D01*
X221282Y138529D01*
X222655Y138256D01*
X224028Y138529D01*
X225193Y139307D01*
X225971Y140472D01*
X226244Y141845D01*
X225971Y143218D01*
X225193Y144383D01*
X224028Y145161D01*
X222655Y145434D01*
D02*
G37*
G36*
X209000Y142089D02*
X207627Y141816D01*
X206462Y141038D01*
X205684Y139873D01*
X205411Y138500D01*
X205684Y137127D01*
X206462Y135962D01*
X207627Y135184D01*
X209000Y134911D01*
X210373Y135184D01*
X211538Y135962D01*
X212316Y137127D01*
X212589Y138500D01*
X212316Y139873D01*
X211538Y141038D01*
X210373Y141816D01*
X209000Y142089D01*
D02*
G37*
G36*
X44500Y133189D02*
X43127Y132916D01*
X41962Y132138D01*
X41184Y130973D01*
X40911Y129600D01*
X41184Y128227D01*
X41962Y127062D01*
X43127Y126284D01*
X44500Y126011D01*
X45873Y126284D01*
X47038Y127062D01*
X47816Y128227D01*
X48089Y129600D01*
X47816Y130973D01*
X47038Y132138D01*
X45873Y132916D01*
X44500Y133189D01*
D02*
G37*
G36*
X195750Y130589D02*
X194377Y130316D01*
X193212Y129538D01*
X192434Y128373D01*
X192161Y127000D01*
X192434Y125627D01*
X193002Y124776D01*
X192785Y123336D01*
X192712Y123288D01*
X191934Y122123D01*
X191661Y120750D01*
X191934Y119377D01*
X192712Y118212D01*
X193877Y117434D01*
X195250Y117161D01*
X196623Y117434D01*
X197788Y118212D01*
X198566Y119377D01*
X198839Y120750D01*
X198566Y122123D01*
X197998Y122974D01*
X198215Y124413D01*
X198288Y124462D01*
X199066Y125627D01*
X199339Y127000D01*
X199066Y128373D01*
X198288Y129538D01*
X197123Y130316D01*
X195750Y130589D01*
D02*
G37*
G36*
X223250Y129089D02*
X221877Y128816D01*
X220712Y128038D01*
X219934Y126873D01*
X219661Y125500D01*
X219934Y124127D01*
X220712Y122962D01*
X221877Y122184D01*
X222751Y122010D01*
X223372Y120872D01*
X223393Y120686D01*
X223184Y120373D01*
X222911Y119000D01*
X223184Y117627D01*
X223962Y116462D01*
X224855Y115866D01*
X225136Y115595D01*
X225261Y114363D01*
X224934Y113873D01*
X224661Y112500D01*
X224934Y111127D01*
X225712Y109962D01*
X226877Y109184D01*
X228250Y108911D01*
X229623Y109184D01*
X230788Y109962D01*
X231566Y111127D01*
X231839Y112500D01*
X231663Y113382D01*
X232467Y114384D01*
X232641Y114482D01*
X233000Y114411D01*
X234373Y114684D01*
X235538Y115462D01*
X236316Y116627D01*
X236589Y118000D01*
X236316Y119373D01*
X235538Y120538D01*
X234373Y121316D01*
X233000Y121589D01*
X231627Y121316D01*
X230915Y120840D01*
X230344Y120598D01*
X229320Y121115D01*
X229038Y121538D01*
X227873Y122316D01*
X226999Y122490D01*
X226378Y123628D01*
X226357Y123814D01*
X226566Y124127D01*
X226839Y125500D01*
X226566Y126873D01*
X225788Y128038D01*
X224623Y128816D01*
X223250Y129089D01*
D02*
G37*
G36*
X40000Y120489D02*
X38627Y120216D01*
X37462Y119438D01*
X36684Y118273D01*
X36411Y116900D01*
X36684Y115527D01*
X37462Y114362D01*
X38627Y113584D01*
X40000Y113311D01*
X41373Y113584D01*
X42538Y114362D01*
X43316Y115527D01*
X43589Y116900D01*
X43316Y118273D01*
X42538Y119438D01*
X41373Y120216D01*
X40000Y120489D01*
D02*
G37*
G36*
X182500Y113839D02*
X181127Y113566D01*
X179962Y112788D01*
X179184Y111623D01*
X178911Y110250D01*
X179109Y109256D01*
X178470Y107834D01*
X178377Y107816D01*
X177212Y107038D01*
X176609Y106134D01*
X175571Y106126D01*
X175567Y106126D01*
X175253Y106217D01*
X174538Y107288D01*
X173373Y108066D01*
X172000Y108339D01*
X170627Y108066D01*
X169462Y107288D01*
X168684Y106123D01*
X168411Y104750D01*
X168684Y103377D01*
X169462Y102212D01*
X170627Y101434D01*
X171188Y101323D01*
X171000Y100089D01*
X170584Y100006D01*
X169627Y99816D01*
X168462Y99038D01*
X167684Y97873D01*
X167411Y96500D01*
X167684Y95127D01*
X168462Y93962D01*
X169627Y93184D01*
X171000Y92911D01*
X172373Y93184D01*
X173538Y93962D01*
X174316Y95127D01*
X174589Y96500D01*
X174316Y97873D01*
X173538Y99038D01*
X172373Y99816D01*
X171812Y99927D01*
X172000Y101161D01*
X172416Y101244D01*
X173373Y101434D01*
X174538Y102212D01*
X175142Y103116D01*
X176179Y103124D01*
X176183Y103124D01*
X176497Y103033D01*
X177212Y101962D01*
X178377Y101184D01*
X179750Y100911D01*
X181123Y101184D01*
X182288Y101962D01*
X183066Y103127D01*
X183339Y104500D01*
X183141Y105494D01*
X183780Y106916D01*
X183873Y106934D01*
X185038Y107712D01*
X185816Y108877D01*
X186089Y110250D01*
X185816Y111623D01*
X185038Y112788D01*
X183873Y113566D01*
X182500Y113839D01*
D02*
G37*
G36*
X217750Y96839D02*
X216377Y96566D01*
X215212Y95788D01*
X214434Y94623D01*
X214161Y93250D01*
X214434Y91877D01*
X215212Y90712D01*
X216377Y89934D01*
X217750Y89661D01*
X219123Y89934D01*
X220288Y90712D01*
X221066Y91877D01*
X221339Y93250D01*
X221066Y94623D01*
X220288Y95788D01*
X219123Y96566D01*
X217750Y96839D01*
D02*
G37*
G36*
X261250Y95089D02*
X259877Y94816D01*
X258712Y94038D01*
X257934Y92873D01*
X257661Y91500D01*
X257934Y90127D01*
X258712Y88962D01*
X259877Y88184D01*
X261250Y87911D01*
X262623Y88184D01*
X263788Y88962D01*
X264566Y90127D01*
X264839Y91500D01*
X264566Y92873D01*
X263788Y94038D01*
X262623Y94816D01*
X261250Y95089D01*
D02*
G37*
G36*
X184000Y93089D02*
X182627Y92816D01*
X181462Y92038D01*
X180684Y90873D01*
X180411Y89500D01*
X180684Y88127D01*
X181462Y86962D01*
X182627Y86184D01*
X184000Y85911D01*
X185373Y86184D01*
X186538Y86962D01*
X187316Y88127D01*
X187589Y89500D01*
X187316Y90873D01*
X186538Y92038D01*
X185373Y92816D01*
X184000Y93089D01*
D02*
G37*
G36*
X96250D02*
X94877Y92816D01*
X93712Y92038D01*
X92934Y90873D01*
X92661Y89500D01*
X92934Y88127D01*
X93712Y86962D01*
X94877Y86184D01*
X96250Y85911D01*
X97623Y86184D01*
X98788Y86962D01*
X99566Y88127D01*
X99839Y89500D01*
X99566Y90873D01*
X98788Y92038D01*
X97623Y92816D01*
X96250Y93089D01*
D02*
G37*
G36*
X224250Y90839D02*
X222877Y90566D01*
X221712Y89788D01*
X220934Y88623D01*
X220661Y87250D01*
X220934Y85877D01*
X221712Y84712D01*
X222877Y83934D01*
X224250Y83661D01*
X225623Y83934D01*
X226788Y84712D01*
X227566Y85877D01*
X227839Y87250D01*
X227566Y88623D01*
X226788Y89788D01*
X225623Y90566D01*
X224250Y90839D01*
D02*
G37*
G36*
X144500Y87089D02*
X143127Y86816D01*
X141962Y86038D01*
X141184Y84873D01*
X140911Y83500D01*
X141184Y82127D01*
X141962Y80962D01*
X143127Y80184D01*
X144500Y79911D01*
X145873Y80184D01*
X147038Y80962D01*
X147816Y82127D01*
X148089Y83500D01*
X147816Y84873D01*
X147038Y86038D01*
X145873Y86816D01*
X144500Y87089D01*
D02*
G37*
G36*
X256012Y86843D02*
X254639Y86570D01*
X253475Y85792D01*
X252697Y84628D01*
X252423Y83254D01*
X252697Y81881D01*
X253475Y80716D01*
X254639Y79938D01*
X256012Y79665D01*
X257386Y79938D01*
X258550Y80716D01*
X259328Y81881D01*
X259601Y83254D01*
X259328Y84628D01*
X258550Y85792D01*
X257386Y86570D01*
X256012Y86843D01*
D02*
G37*
G36*
X69750Y98339D02*
X68377Y98066D01*
X67212Y97288D01*
X66434Y96123D01*
X66161Y94750D01*
X66409Y93503D01*
X66066Y92896D01*
X65618Y92313D01*
X64377Y92066D01*
X63212Y91288D01*
X62434Y90123D01*
X62161Y88750D01*
X62434Y87377D01*
X62495Y87286D01*
X61853Y85960D01*
X61127Y85816D01*
X59962Y85038D01*
X59184Y83873D01*
X58911Y82500D01*
X59184Y81127D01*
X59962Y79962D01*
X61127Y79184D01*
X62500Y78911D01*
X63873Y79184D01*
X65038Y79962D01*
X65816Y81127D01*
X66089Y82500D01*
X65816Y83873D01*
X65756Y83964D01*
X66397Y85290D01*
X67123Y85434D01*
X68288Y86212D01*
X69066Y87377D01*
X69339Y88750D01*
X69091Y89997D01*
X69434Y90604D01*
X69882Y91187D01*
X71123Y91434D01*
X72288Y92212D01*
X73066Y93377D01*
X73339Y94750D01*
X73066Y96123D01*
X72288Y97288D01*
X71123Y98066D01*
X69750Y98339D01*
D02*
G37*
G36*
X245250Y83589D02*
X243877Y83316D01*
X242712Y82538D01*
X241934Y81373D01*
X241661Y80000D01*
X241934Y78627D01*
X242712Y77462D01*
X243877Y76684D01*
X245250Y76411D01*
X246623Y76684D01*
X247788Y77462D01*
X248566Y78627D01*
X248839Y80000D01*
X248566Y81373D01*
X247788Y82538D01*
X246623Y83316D01*
X245250Y83589D01*
D02*
G37*
G36*
X176000Y82589D02*
X174627Y82316D01*
X173462Y81538D01*
X172684Y80373D01*
X172411Y79000D01*
X172684Y77627D01*
X173462Y76462D01*
X174627Y75684D01*
X176000Y75411D01*
X177373Y75684D01*
X178538Y76462D01*
X179316Y77627D01*
X179589Y79000D01*
X179316Y80373D01*
X178538Y81538D01*
X177373Y82316D01*
X176000Y82589D01*
D02*
G37*
G36*
X94750D02*
X93377Y82316D01*
X92212Y81538D01*
X91434Y80373D01*
X91161Y79000D01*
X91434Y77627D01*
X92212Y76462D01*
X93377Y75684D01*
X94750Y75411D01*
X96123Y75684D01*
X97288Y76462D01*
X98066Y77627D01*
X98339Y79000D01*
X98066Y80373D01*
X97288Y81538D01*
X96123Y82316D01*
X94750Y82589D01*
D02*
G37*
G36*
X229250Y81589D02*
X227877Y81316D01*
X226712Y80538D01*
X225934Y79373D01*
X225661Y78000D01*
X225934Y76627D01*
X226712Y75462D01*
X227877Y74684D01*
X229250Y74411D01*
X230623Y74684D01*
X231788Y75462D01*
X232566Y76627D01*
X232839Y78000D01*
X232566Y79373D01*
X231788Y80538D01*
X230623Y81316D01*
X229250Y81589D01*
D02*
G37*
G36*
X150250Y77589D02*
X148877Y77316D01*
X147712Y76538D01*
X146934Y75373D01*
X146661Y74000D01*
X146934Y72627D01*
X147712Y71462D01*
X148877Y70684D01*
X150250Y70411D01*
X151623Y70684D01*
X152788Y71462D01*
X153566Y72627D01*
X153839Y74000D01*
X153566Y75373D01*
X152788Y76538D01*
X151623Y77316D01*
X150250Y77589D01*
D02*
G37*
G36*
X65250Y76339D02*
X63877Y76066D01*
X62712Y75288D01*
X61934Y74123D01*
X61661Y72750D01*
X61934Y71377D01*
X62712Y70212D01*
X63877Y69434D01*
X65250Y69161D01*
X66623Y69434D01*
X67788Y70212D01*
X68566Y71377D01*
X68839Y72750D01*
X68566Y74123D01*
X67788Y75288D01*
X66623Y76066D01*
X65250Y76339D01*
D02*
G37*
G36*
X93750Y72839D02*
X92377Y72566D01*
X91212Y71788D01*
X90434Y70623D01*
X90161Y69250D01*
X90434Y67877D01*
X91212Y66712D01*
X92377Y65934D01*
X93750Y65661D01*
X95123Y65934D01*
X96288Y66712D01*
X97066Y67877D01*
X97339Y69250D01*
X97066Y70623D01*
X96288Y71788D01*
X95123Y72566D01*
X93750Y72839D01*
D02*
G37*
G36*
X168587Y72752D02*
X167213Y72479D01*
X166049Y71701D01*
X165271Y70537D01*
X164998Y69163D01*
X165271Y67790D01*
X166049Y66626D01*
X167213Y65848D01*
X168587Y65574D01*
X169960Y65848D01*
X171124Y66626D01*
X171902Y67790D01*
X172176Y69163D01*
X171902Y70537D01*
X171124Y71701D01*
X169960Y72479D01*
X168587Y72752D01*
D02*
G37*
G36*
X38250Y71589D02*
X36877Y71316D01*
X35712Y70538D01*
X34934Y69373D01*
X34661Y68000D01*
X34934Y66627D01*
X35712Y65462D01*
X36877Y64684D01*
X38250Y64411D01*
X39623Y64684D01*
X40788Y65462D01*
X41566Y66627D01*
X41839Y68000D01*
X41566Y69373D01*
X40788Y70538D01*
X39623Y71316D01*
X38250Y71589D01*
D02*
G37*
G36*
X87182Y64339D02*
X85808Y64066D01*
X84644Y63288D01*
X83866Y62123D01*
X83593Y60750D01*
X83866Y59377D01*
X84644Y58212D01*
X85808Y57434D01*
X87182Y57161D01*
X88555Y57434D01*
X89720Y58212D01*
X90498Y59377D01*
X90771Y60750D01*
X90498Y62123D01*
X89720Y63288D01*
X88555Y64066D01*
X87182Y64339D01*
D02*
G37*
G36*
X72750Y51839D02*
X71377Y51566D01*
X70212Y50788D01*
X69434Y49623D01*
X69161Y48250D01*
X69434Y46877D01*
X70212Y45712D01*
X71377Y44934D01*
X72750Y44661D01*
X74123Y44934D01*
X75288Y45712D01*
X76066Y46877D01*
X76339Y48250D01*
X76066Y49623D01*
X75288Y50788D01*
X74123Y51566D01*
X72750Y51839D01*
D02*
G37*
G36*
X36250Y44589D02*
X34877Y44316D01*
X33712Y43538D01*
X32934Y42373D01*
X32661Y41000D01*
X32934Y39627D01*
X33712Y38462D01*
X34877Y37684D01*
X36250Y37411D01*
X37623Y37684D01*
X38788Y38462D01*
X39566Y39627D01*
X39839Y41000D01*
X39566Y42373D01*
X38788Y43538D01*
X37623Y44316D01*
X36250Y44589D01*
D02*
G37*
%LPD*%
D11*
X44000Y13500D02*
Y37250D01*
Y13500D02*
X44000Y13500D01*
X36000D02*
Y30250D01*
X68000Y13500D02*
Y30250D01*
X52000Y46250D02*
X52000Y46250D01*
Y13500D02*
Y46250D01*
X268000Y13500D02*
Y30250D01*
X212000Y13500D02*
Y30250D01*
X132000Y13500D02*
Y30250D01*
X172000Y13500D02*
Y30250D01*
X92000Y13500D02*
Y30250D01*
D58*
X148000Y13500D02*
D03*
X140000D02*
D03*
X164000D02*
D03*
X172000D02*
D03*
X188000D02*
D03*
X212000D02*
D03*
X204000D02*
D03*
X228000D02*
D03*
X244000D02*
D03*
X252000D02*
D03*
X268000D02*
D03*
X180000D02*
D03*
X156000D02*
D03*
X132000D02*
D03*
X236000D02*
D03*
X220000D02*
D03*
X196000D02*
D03*
X260000D02*
D03*
X36000D02*
D03*
X44000D02*
D03*
X52000D02*
D03*
X60000D02*
D03*
X68000D02*
D03*
X76000D02*
D03*
X84000D02*
D03*
X92000D02*
D03*
D61*
X220000Y14673D02*
X220587Y14087D01*
X236111Y14562D02*
X236586Y14087D01*
X189250Y36995D02*
Y39750D01*
X198250Y29962D02*
Y43000D01*
X196020Y27732D02*
X198250Y29962D01*
X196020Y13520D02*
Y27732D01*
X195000Y46250D02*
X198250Y43000D01*
X60000Y65250D02*
X60000Y65250D01*
Y50750D02*
Y65250D01*
X59000Y38500D02*
X62500Y42000D01*
X59000Y14500D02*
Y38500D01*
Y14500D02*
X60000Y13500D01*
Y50750D02*
X62500Y48250D01*
Y42000D02*
Y48250D01*
X140500Y14174D02*
X140587Y14087D01*
X163750Y39500D02*
X165000Y38250D01*
Y18750D02*
Y38250D01*
X164587Y18337D02*
X165000Y18750D01*
X244000Y14673D02*
X244587Y14087D01*
X243000Y34250D02*
X244000Y33250D01*
Y14673D02*
Y33250D01*
X260000Y14673D02*
X260586Y14087D01*
X257750Y31250D02*
X260000Y29000D01*
Y14673D02*
Y29000D01*
X257750Y31250D02*
Y34500D01*
X261250Y38000D01*
X251762Y13737D02*
Y37252D01*
Y13737D02*
X252000Y13500D01*
X243000Y34250D02*
Y41500D01*
X236111Y14562D02*
Y33250D01*
X228000Y13500D02*
X228000Y13500D01*
Y41000D01*
X220000Y14673D02*
Y34500D01*
X204300Y13800D02*
Y37950D01*
X204000Y13500D02*
X204300Y13800D01*
X196000Y13500D02*
X196020Y13520D01*
X187980Y35725D02*
X189250Y36995D01*
X187980Y13520D02*
Y35725D01*
Y13520D02*
X188000Y13500D01*
X180000D02*
X180000Y13500D01*
Y37750D01*
X147757Y13743D02*
Y40502D01*
Y13743D02*
X148000Y13500D01*
X155980Y37480D02*
X156000Y37500D01*
X155980Y29335D02*
Y37480D01*
X140500Y14174D02*
Y34000D01*
X164587Y14087D02*
Y18337D01*
X163750Y39500D02*
Y44250D01*
X155980Y29335D02*
X156000Y29315D01*
Y13500D02*
Y29315D01*
X235288Y424677D02*
X236002Y423963D01*
X236717Y422891D01*
X237431Y421463D01*
X237788Y419678D01*
Y418250D01*
X237431Y416464D01*
X236717Y415036D01*
X236002Y413965D01*
X235288Y413251D01*
X236002Y423963D02*
X236717Y422534D01*
X237074Y421463D01*
X237431Y419678D01*
Y418250D01*
X237074Y416464D01*
X236717Y415393D01*
X236002Y413965D01*
X229575Y419678D02*
X230289Y420392D01*
X231003Y420749D01*
X232075D01*
X232789Y420392D01*
X233503Y419678D01*
X233860Y418606D01*
Y417892D01*
X233503Y416821D01*
X232789Y416107D01*
X232075Y415750D01*
X231003D01*
X230289Y416107D01*
X229575Y416821D01*
X227968Y424677D02*
X227254Y423963D01*
X226540Y422891D01*
X225826Y421463D01*
X225469Y419678D01*
Y418250D01*
X225826Y416464D01*
X226540Y415036D01*
X227254Y413965D01*
X227968Y413251D01*
X227254Y423963D02*
X226540Y422534D01*
X226183Y421463D01*
X225826Y419678D01*
Y418250D01*
X226183Y416464D01*
X226540Y415393D01*
X227254Y413965D01*
X217399Y421463D02*
Y421820D01*
X217042Y422534D01*
X216685Y422891D01*
X215971Y423248D01*
X214543D01*
X213829Y422891D01*
X213472Y422534D01*
X213114Y421820D01*
Y421106D01*
X213472Y420392D01*
X214186Y419321D01*
X217756Y415750D01*
X212757D01*
X208937Y423248D02*
X210008Y422891D01*
X210722Y421820D01*
X211079Y420035D01*
Y418964D01*
X210722Y417178D01*
X210008Y416107D01*
X208937Y415750D01*
X208223D01*
X207151Y416107D01*
X206437Y417178D01*
X206080Y418964D01*
Y420035D01*
X206437Y421820D01*
X207151Y422891D01*
X208223Y423248D01*
X208937D01*
X204402Y421820D02*
X203688Y422177D01*
X202617Y423248D01*
Y415750D01*
X194261Y420749D02*
X194618Y419678D01*
X195333Y418964D01*
X196404Y418606D01*
X196761D01*
X197832Y418964D01*
X198546Y419678D01*
X198903Y420749D01*
Y421106D01*
X198546Y422177D01*
X197832Y422891D01*
X196761Y423248D01*
X196404D01*
X195333Y422891D01*
X194618Y422177D01*
X194261Y420749D01*
Y418964D01*
X194618Y417178D01*
X195333Y416107D01*
X196404Y415750D01*
X197118D01*
X198189Y416107D01*
X198546Y416821D01*
X182764Y423248D02*
Y417535D01*
X183121Y416464D01*
X183478Y416107D01*
X184192Y415750D01*
X184906D01*
X185620Y416107D01*
X185977Y416464D01*
X186334Y417535D01*
Y418250D01*
X179050Y420749D02*
X179764Y420392D01*
X180478Y419678D01*
X180836Y418606D01*
Y417892D01*
X180478Y416821D01*
X179764Y416107D01*
X179050Y415750D01*
X177979D01*
X177265Y416107D01*
X176551Y416821D01*
X176194Y417892D01*
Y418606D01*
X176551Y419678D01*
X177265Y420392D01*
X177979Y420749D01*
X179050D01*
X174551Y423248D02*
Y415750D01*
Y419321D02*
X173480Y420392D01*
X172766Y420749D01*
X171695D01*
X170981Y420392D01*
X170623Y419321D01*
Y415750D01*
X164375Y420749D02*
Y415750D01*
Y419678D02*
X165089Y420392D01*
X165803Y420749D01*
X166874D01*
X167588Y420392D01*
X168303Y419678D01*
X168660Y418606D01*
Y417892D01*
X168303Y416821D01*
X167588Y416107D01*
X166874Y415750D01*
X165803D01*
X165089Y416107D01*
X164375Y416821D01*
X162375Y420749D02*
Y415750D01*
Y419321D02*
X161304Y420392D01*
X160590Y420749D01*
X159519D01*
X158805Y420392D01*
X158448Y419321D01*
Y415750D01*
X156484Y420749D02*
Y415750D01*
Y419321D02*
X155413Y420392D01*
X154698Y420749D01*
X153627D01*
X152913Y420392D01*
X152556Y419321D01*
Y415750D01*
X150592Y418606D02*
X146307D01*
Y419321D01*
X146664Y420035D01*
X147021Y420392D01*
X147736Y420749D01*
X148807D01*
X149521Y420392D01*
X150235Y419678D01*
X150592Y418606D01*
Y417892D01*
X150235Y416821D01*
X149521Y416107D01*
X148807Y415750D01*
X147736D01*
X147021Y416107D01*
X146307Y416821D01*
X140773Y419678D02*
X141130Y420392D01*
X142201Y420749D01*
X143272D01*
X144343Y420392D01*
X144700Y419678D01*
X144343Y418964D01*
X143629Y418606D01*
X141844Y418250D01*
X141130Y417892D01*
X140773Y417178D01*
Y416821D01*
X141130Y416107D01*
X142201Y415750D01*
X143272D01*
X144343Y416107D01*
X144700Y416821D01*
X133310Y423248D02*
Y415750D01*
Y423248D02*
X130096D01*
X129025Y422891D01*
X128668Y422534D01*
X128311Y421820D01*
Y421106D01*
X128668Y420392D01*
X129025Y420035D01*
X130096Y419678D01*
X133310D02*
X130096D01*
X129025Y419321D01*
X128668Y418964D01*
X128311Y418250D01*
Y417178D01*
X128668Y416464D01*
X129025Y416107D01*
X130096Y415750D01*
X133310D01*
X126633Y418606D02*
X122348D01*
Y419321D01*
X122705Y420035D01*
X123062Y420392D01*
X123776Y420749D01*
X124847D01*
X125562Y420392D01*
X126276Y419678D01*
X126633Y418606D01*
Y417892D01*
X126276Y416821D01*
X125562Y416107D01*
X124847Y415750D01*
X123776D01*
X123062Y416107D01*
X122348Y416821D01*
X120741Y420749D02*
Y415750D01*
Y418606D02*
X120384Y419678D01*
X119670Y420392D01*
X118956Y420749D01*
X117885D01*
X117206D02*
Y415750D01*
Y419321D02*
X116135Y420392D01*
X115421Y420749D01*
X114350D01*
X113636Y420392D01*
X113279Y419321D01*
Y415750D01*
X107030Y423248D02*
Y415750D01*
Y419678D02*
X107744Y420392D01*
X108458Y420749D01*
X109529D01*
X110244Y420392D01*
X110958Y419678D01*
X111315Y418606D01*
Y417892D01*
X110958Y416821D01*
X110244Y416107D01*
X109529Y415750D01*
X108458D01*
X107744Y416107D01*
X107030Y416821D01*
X103245Y420749D02*
X103959Y420392D01*
X104673Y419678D01*
X105030Y418606D01*
Y417892D01*
X104673Y416821D01*
X103959Y416107D01*
X103245Y415750D01*
X102174D01*
X101460Y416107D01*
X100745Y416821D01*
X100388Y417892D01*
Y418606D01*
X100745Y419678D01*
X101460Y420392D01*
X102174Y420749D01*
X103245D01*
X98746D02*
Y415750D01*
Y418606D02*
X98389Y419678D01*
X97675Y420392D01*
X96961Y420749D01*
X95889D01*
X92354Y423248D02*
X93069D01*
X93783Y422891D01*
X94140Y421820D01*
Y415750D01*
X95211Y420749D02*
X92711D01*
X91283Y418606D02*
X86999D01*
Y419321D01*
X87355Y420035D01*
X87713Y420392D01*
X88427Y420749D01*
X89498D01*
X90212Y420392D01*
X90926Y419678D01*
X91283Y418606D01*
Y417892D01*
X90926Y416821D01*
X90212Y416107D01*
X89498Y415750D01*
X88427D01*
X87713Y416107D01*
X86999Y416821D01*
X85392Y420749D02*
Y415750D01*
Y418606D02*
X85035Y419678D01*
X84320Y420392D01*
X83606Y420749D01*
X82535D01*
D62*
X78943Y25943D02*
Y34011D01*
X76754Y36201D02*
X78943Y34011D01*
X76754Y36201D02*
Y36252D01*
X76000Y23000D02*
X78943Y25943D01*
X76000Y13500D02*
Y23000D01*
X83254Y36208D02*
Y36252D01*
X81057Y34011D02*
X83254Y36208D01*
X84000Y13500D02*
Y23000D01*
X81057Y25943D02*
Y34011D01*
Y25943D02*
X84000Y23000D01*
D63*
X286000Y353000D02*
X297000D01*
Y368000D01*
X286000D02*
X297000D01*
X286000Y353000D02*
Y368000D01*
D64*
X271000Y400000D02*
D03*
X29000D02*
D03*
D65*
X282500Y289500D02*
D03*
X252250Y331574D02*
D03*
X34841Y352500D02*
D03*
X48500Y284083D02*
D03*
X65250Y173156D02*
D03*
X277250Y62123D02*
D03*
X22500Y76750D02*
D03*
X110946Y52500D02*
D03*
X138500Y221250D02*
D03*
X152448Y242250D02*
D03*
X75500Y298478D02*
D03*
X260750Y128038D02*
D03*
X117340Y101250D02*
D03*
X45124Y199500D02*
D03*
X166597Y321000D02*
D03*
X260000Y219220D02*
D03*
X237500Y403250D02*
D03*
Y383250D02*
D03*
Y393250D02*
D03*
Y373250D02*
D03*
X62500D02*
D03*
Y393250D02*
D03*
Y383250D02*
D03*
Y403250D02*
D03*
Y413250D02*
D03*
Y423250D02*
D03*
X244250Y365500D02*
D03*
Y355500D02*
D03*
X254250Y345500D02*
D03*
X284250D02*
D03*
X274250D02*
D03*
X264250D02*
D03*
X244250D02*
D03*
X55750Y366500D02*
D03*
X35750D02*
D03*
X25750D02*
D03*
X15750D02*
D03*
X45750D02*
D03*
X15750Y38750D02*
D03*
X5750D02*
D03*
Y66500D02*
D03*
Y96500D02*
D03*
Y76500D02*
D03*
Y86500D02*
D03*
Y106500D02*
D03*
Y116500D02*
D03*
Y176500D02*
D03*
Y166500D02*
D03*
Y186500D02*
D03*
Y196500D02*
D03*
Y206500D02*
D03*
Y216500D02*
D03*
Y226500D02*
D03*
Y236500D02*
D03*
Y246500D02*
D03*
Y256500D02*
D03*
Y266500D02*
D03*
Y276500D02*
D03*
Y286500D02*
D03*
Y296500D02*
D03*
Y306500D02*
D03*
Y316500D02*
D03*
Y326500D02*
D03*
Y366500D02*
D03*
Y356500D02*
D03*
Y346500D02*
D03*
Y336500D02*
D03*
X284250Y38750D02*
D03*
X294250D02*
D03*
Y65500D02*
D03*
Y55500D02*
D03*
Y45500D02*
D03*
Y95500D02*
D03*
Y85500D02*
D03*
Y75500D02*
D03*
Y125500D02*
D03*
Y115500D02*
D03*
Y105500D02*
D03*
Y155500D02*
D03*
Y145500D02*
D03*
Y135500D02*
D03*
Y185500D02*
D03*
Y175500D02*
D03*
Y165500D02*
D03*
Y215500D02*
D03*
Y205500D02*
D03*
Y195500D02*
D03*
Y245500D02*
D03*
Y235500D02*
D03*
Y225500D02*
D03*
Y255500D02*
D03*
Y265500D02*
D03*
Y275500D02*
D03*
Y285500D02*
D03*
Y295500D02*
D03*
Y305500D02*
D03*
Y315500D02*
D03*
Y325500D02*
D03*
Y335500D02*
D03*
Y345500D02*
D03*
X53500Y297000D02*
D03*
X22500Y296750D02*
D03*
X88000Y30250D02*
D03*
X233919Y195250D02*
D03*
X189250Y39750D02*
D03*
X195000Y46250D02*
D03*
X13500Y63750D02*
D03*
X92750Y353250D02*
D03*
X146500Y349250D02*
D03*
X213000Y353250D02*
D03*
X172750D02*
D03*
X229000Y385000D02*
D03*
X189000D02*
D03*
X149000D02*
D03*
X109000Y385000D02*
D03*
X115571Y304207D02*
D03*
X121250Y311250D02*
D03*
X87182Y60750D02*
D03*
X40750Y166250D02*
D03*
X43000Y175500D02*
D03*
X37000Y172778D02*
D03*
X231600Y172000D02*
D03*
X241230Y248889D02*
D03*
X230389Y311568D02*
D03*
X206500Y290250D02*
D03*
X225793Y322186D02*
D03*
X214055Y331500D02*
D03*
X43500Y258479D02*
D03*
X55000Y271250D02*
D03*
X70500Y285500D02*
D03*
X11500Y337500D02*
D03*
X151250Y312031D02*
D03*
X143250Y310750D02*
D03*
X25000Y284071D02*
D03*
X31251Y282264D02*
D03*
X33500Y276250D02*
D03*
X53750Y321000D02*
D03*
X44500D02*
D03*
X35500D02*
D03*
X26500D02*
D03*
X17500D02*
D03*
X235250Y255500D02*
D03*
X38250Y68000D02*
D03*
X47250Y71250D02*
D03*
X62500Y82500D02*
D03*
X60000Y65250D02*
D03*
X65750Y88750D02*
D03*
X36250Y41000D02*
D03*
X44000Y37250D02*
D03*
X69750Y94750D02*
D03*
X72750Y48250D02*
D03*
X65250Y72750D02*
D03*
X64000Y36500D02*
D03*
X46002Y44002D02*
D03*
X58000Y45000D02*
D03*
X36000Y30250D02*
D03*
X52000Y46250D02*
D03*
X236250Y203000D02*
D03*
X26750Y32750D02*
D03*
X53250Y67250D02*
D03*
X21000Y96000D02*
D03*
X37250Y181000D02*
D03*
X170250Y148500D02*
D03*
X157000Y135750D02*
D03*
X163750Y137250D02*
D03*
X37000Y142300D02*
D03*
X40000Y116900D02*
D03*
X44500Y129600D02*
D03*
X137000Y197500D02*
D03*
X141250Y191000D02*
D03*
X161750Y176750D02*
D03*
X139229Y179032D02*
D03*
X68000Y231000D02*
D03*
X75111Y236500D02*
D03*
X178250Y235250D02*
D03*
X152250Y262250D02*
D03*
X261250Y38000D02*
D03*
X245250Y80000D02*
D03*
X256012Y83254D02*
D03*
X251762Y37252D02*
D03*
X261250Y91500D02*
D03*
X280050D02*
D03*
X243000Y41500D02*
D03*
X228250Y112500D02*
D03*
X236111Y33250D02*
D03*
X229250Y78000D02*
D03*
X228000Y41000D02*
D03*
X220000Y34500D02*
D03*
X217750Y93250D02*
D03*
X224250Y87250D02*
D03*
X233000Y118000D02*
D03*
X226500Y119000D02*
D03*
X223250Y125500D02*
D03*
X222655Y141845D02*
D03*
X219000Y152750D02*
D03*
X205375Y166375D02*
D03*
X204300Y37950D02*
D03*
X209000Y138500D02*
D03*
X202750Y145500D02*
D03*
X195500Y143000D02*
D03*
X180000Y37750D02*
D03*
X182500Y110250D02*
D03*
X155750Y197750D02*
D03*
X157500Y191000D02*
D03*
X147757Y40502D02*
D03*
X156000Y37500D02*
D03*
X157235Y183500D02*
D03*
X140500Y34000D02*
D03*
X144500Y83500D02*
D03*
X150250Y74000D02*
D03*
X195750Y127000D02*
D03*
X195250Y120750D02*
D03*
X280050Y144250D02*
D03*
X267350D02*
D03*
X171000Y96500D02*
D03*
X172000Y104750D02*
D03*
X179750Y104500D02*
D03*
X110730Y171730D02*
D03*
X104909Y172996D02*
D03*
X94303Y183603D02*
D03*
X93053Y189408D02*
D03*
X100124Y182337D02*
D03*
X246400Y177750D02*
D03*
X263000Y182500D02*
D03*
X155985Y287696D02*
D03*
X157235Y281891D02*
D03*
X187805Y255876D02*
D03*
X180734Y262947D02*
D03*
X181984Y257142D02*
D03*
X173663Y270018D02*
D03*
X174913Y264213D02*
D03*
X163056Y280625D02*
D03*
X144031Y287712D02*
D03*
X77500Y337500D02*
D03*
X100572Y326750D02*
D03*
X129889Y273570D02*
D03*
X122818Y266499D02*
D03*
X128623Y267749D02*
D03*
X115747Y259428D02*
D03*
X121552Y260678D02*
D03*
X163750Y44250D02*
D03*
X103874Y243000D02*
D03*
X98069Y241750D02*
D03*
X264000Y31000D02*
D03*
X192000D02*
D03*
X160000D02*
D03*
X128000D02*
D03*
X93750Y69250D02*
D03*
X168587Y69163D02*
D03*
X94750Y79000D02*
D03*
X176000D02*
D03*
X96250Y89500D02*
D03*
X184000D02*
D03*
X139518Y172250D02*
D03*
X112114Y142750D02*
D03*
X101750Y140000D02*
D03*
X89750Y151000D02*
D03*
X95250Y159250D02*
D03*
X76754Y36252D02*
D03*
X83254D02*
D03*
X101501Y147749D02*
D03*
X97421Y151829D02*
D03*
M02*
