G04*
G04 #@! TF.GenerationSoftware,Altium Limited,Altium Designer,19.0.15 (446)*
G04*
G04 Layer_Physical_Order=4*
G04 Layer_Color=16711680*
%FSLAX44Y44*%
%MOMM*%
G71*
G01*
G75*
%ADD10C,0.2500*%
%ADD11C,0.2000*%
%ADD48R,1.0000X1.0000*%
%ADD49R,1.0000X1.0000*%
%ADD60C,0.1000*%
%ADD62C,5.4000*%
G04:AMPARAMS|DCode=63|XSize=2mm|YSize=2mm|CornerRadius=0.5mm|HoleSize=0mm|Usage=FLASHONLY|Rotation=90.000|XOffset=0mm|YOffset=0mm|HoleType=Round|Shape=RoundedRectangle|*
%AMROUNDEDRECTD63*
21,1,2.0000,1.0000,0,0,90.0*
21,1,1.0000,2.0000,0,0,90.0*
1,1,1.0000,0.5000,0.5000*
1,1,1.0000,0.5000,-0.5000*
1,1,1.0000,-0.5000,-0.5000*
1,1,1.0000,-0.5000,0.5000*
%
%ADD63ROUNDEDRECTD63*%
%ADD64C,2.0000*%
G04:AMPARAMS|DCode=65|XSize=2mm|YSize=2mm|CornerRadius=0.5mm|HoleSize=0mm|Usage=FLASHONLY|Rotation=180.000|XOffset=0mm|YOffset=0mm|HoleType=Round|Shape=RoundedRectangle|*
%AMROUNDEDRECTD65*
21,1,2.0000,1.0000,0,0,180.0*
21,1,1.0000,2.0000,0,0,180.0*
1,1,1.0000,-0.5000,0.5000*
1,1,1.0000,0.5000,0.5000*
1,1,1.0000,0.5000,-0.5000*
1,1,1.0000,-0.5000,-0.5000*
%
%ADD65ROUNDEDRECTD65*%
%ADD66C,4.0000*%
%ADD67C,1.6000*%
%ADD68C,0.4500*%
G36*
X598523Y850052D02*
X601144D01*
Y848013D01*
X598523D01*
Y843478D01*
X596553D01*
X588856Y847056D01*
Y849081D01*
X596650Y845475D01*
Y848013D01*
X594182D01*
Y850052D01*
X596650D01*
Y851522D01*
X598523D01*
Y850052D01*
D02*
G37*
D10*
X17500Y511700D02*
X34600Y494600D01*
X17500Y511700D02*
Y614250D01*
X51250Y648000D01*
X93750D01*
X107900Y633850D01*
X527150D01*
X548000Y613000D01*
Y571250D02*
Y613000D01*
Y571250D02*
X565500Y553750D01*
X584750D01*
X590500Y559500D01*
Y604900D01*
X575000Y620400D02*
X590500Y604900D01*
X530000Y641250D02*
X555000Y616250D01*
Y589600D02*
Y616250D01*
Y589600D02*
X575000Y569600D01*
X111500Y641250D02*
X530000D01*
X98250Y654500D02*
X111500Y641250D01*
X48500Y654500D02*
X98250D01*
X11000Y617000D02*
X48500Y654500D01*
X11000Y492800D02*
Y617000D01*
Y492800D02*
X34600Y469200D01*
X60000Y494600D02*
X125350D01*
X137000Y506250D01*
X181000D01*
D11*
X585000Y840000D02*
Y855000D01*
Y840000D02*
X605000D01*
Y855000D01*
X585000D02*
X605000D01*
X598251Y941353D02*
X599679Y939925D01*
X601108Y937783D01*
X602536Y934926D01*
X603250Y931356D01*
Y928499D01*
X602536Y924928D01*
X601108Y922072D01*
X599679Y919929D01*
X598251Y918501D01*
X599679Y939925D02*
X601108Y937068D01*
X601822Y934926D01*
X602536Y931356D01*
Y928499D01*
X601822Y924928D01*
X601108Y922786D01*
X599679Y919929D01*
X586825Y931356D02*
X588253Y932784D01*
X589682Y933498D01*
X591824D01*
X593252Y932784D01*
X594680Y931356D01*
X595395Y929213D01*
Y927785D01*
X594680Y925642D01*
X593252Y924214D01*
X591824Y923500D01*
X589682D01*
X588253Y924214D01*
X586825Y925642D01*
X583611Y941353D02*
X582183Y939925D01*
X580755Y937783D01*
X579327Y934926D01*
X578612Y931356D01*
Y928499D01*
X579327Y924928D01*
X580755Y922072D01*
X582183Y919929D01*
X583611Y918501D01*
X582183Y939925D02*
X580755Y937068D01*
X580041Y934926D01*
X579327Y931356D01*
Y928499D01*
X580041Y924928D01*
X580755Y922786D01*
X582183Y919929D01*
X562473Y934926D02*
Y935640D01*
X561759Y937068D01*
X561045Y937783D01*
X559617Y938497D01*
X556760D01*
X555332Y937783D01*
X554618Y937068D01*
X553903Y935640D01*
Y934212D01*
X554618Y932784D01*
X556046Y930641D01*
X563187Y923500D01*
X553189D01*
X545548Y938497D02*
X547691Y937783D01*
X549119Y935640D01*
X549833Y932070D01*
Y929927D01*
X549119Y926357D01*
X547691Y924214D01*
X545548Y923500D01*
X544120D01*
X541977Y924214D01*
X540549Y926357D01*
X539835Y929927D01*
Y932070D01*
X540549Y935640D01*
X541977Y937783D01*
X544120Y938497D01*
X545548D01*
X536479Y935640D02*
X535050Y936354D01*
X532908Y938497D01*
Y923500D01*
X516197Y933498D02*
X516911Y931356D01*
X518340Y929927D01*
X520482Y929213D01*
X521196D01*
X523339Y929927D01*
X524767Y931356D01*
X525481Y933498D01*
Y934212D01*
X524767Y936354D01*
X523339Y937783D01*
X521196Y938497D01*
X520482D01*
X518340Y937783D01*
X516911Y936354D01*
X516197Y933498D01*
Y929927D01*
X516911Y926357D01*
X518340Y924214D01*
X520482Y923500D01*
X521910D01*
X524053Y924214D01*
X524767Y925642D01*
X493202Y938497D02*
Y927071D01*
X493916Y924928D01*
X494630Y924214D01*
X496059Y923500D01*
X497487D01*
X498915Y924214D01*
X499629Y924928D01*
X500344Y927071D01*
Y928499D01*
X485775Y933498D02*
X487203Y932784D01*
X488632Y931356D01*
X489346Y929213D01*
Y927785D01*
X488632Y925642D01*
X487203Y924214D01*
X485775Y923500D01*
X483633D01*
X482205Y924214D01*
X480776Y925642D01*
X480062Y927785D01*
Y929213D01*
X480776Y931356D01*
X482205Y932784D01*
X483633Y933498D01*
X485775D01*
X476777Y938497D02*
Y923500D01*
Y930641D02*
X474635Y932784D01*
X473206Y933498D01*
X471064D01*
X469636Y932784D01*
X468922Y930641D01*
Y923500D01*
X456424Y933498D02*
Y923500D01*
Y931356D02*
X457853Y932784D01*
X459281Y933498D01*
X461423D01*
X462852Y932784D01*
X464280Y931356D01*
X464994Y929213D01*
Y927785D01*
X464280Y925642D01*
X462852Y924214D01*
X461423Y923500D01*
X459281D01*
X457853Y924214D01*
X456424Y925642D01*
X452425Y933498D02*
Y923500D01*
Y930641D02*
X450283Y932784D01*
X448855Y933498D01*
X446712D01*
X445284Y932784D01*
X444570Y930641D01*
Y923500D01*
X440642Y933498D02*
Y923500D01*
Y930641D02*
X438500Y932784D01*
X437071Y933498D01*
X434929D01*
X433501Y932784D01*
X432787Y930641D01*
Y923500D01*
X428859Y929213D02*
X420289D01*
Y930641D01*
X421003Y932070D01*
X421717Y932784D01*
X423146Y933498D01*
X425288D01*
X426716Y932784D01*
X428145Y931356D01*
X428859Y929213D01*
Y927785D01*
X428145Y925642D01*
X426716Y924214D01*
X425288Y923500D01*
X423146D01*
X421717Y924214D01*
X420289Y925642D01*
X409220Y931356D02*
X409934Y932784D01*
X412077Y933498D01*
X414219D01*
X416362Y932784D01*
X417076Y931356D01*
X416362Y929927D01*
X414933Y929213D01*
X411363Y928499D01*
X409934Y927785D01*
X409220Y926357D01*
Y925642D01*
X409934Y924214D01*
X412077Y923500D01*
X414219D01*
X416362Y924214D01*
X417076Y925642D01*
X394295Y938497D02*
Y923500D01*
Y938497D02*
X387868D01*
X385725Y937783D01*
X385011Y937068D01*
X384297Y935640D01*
Y934212D01*
X385011Y932784D01*
X385725Y932070D01*
X387868Y931356D01*
X394295D02*
X387868D01*
X385725Y930641D01*
X385011Y929927D01*
X384297Y928499D01*
Y926357D01*
X385011Y924928D01*
X385725Y924214D01*
X387868Y923500D01*
X394295D01*
X380941Y929213D02*
X372371D01*
Y930641D01*
X373085Y932070D01*
X373799Y932784D01*
X375228Y933498D01*
X377370D01*
X378798Y932784D01*
X380226Y931356D01*
X380941Y929213D01*
Y927785D01*
X380226Y925642D01*
X378798Y924214D01*
X377370Y923500D01*
X375228D01*
X373799Y924214D01*
X372371Y925642D01*
X369157Y933498D02*
Y923500D01*
Y929213D02*
X368443Y931356D01*
X367015Y932784D01*
X365587Y933498D01*
X363444D01*
X362087D02*
Y923500D01*
Y930641D02*
X359945Y932784D01*
X358517Y933498D01*
X356374D01*
X354946Y932784D01*
X354232Y930641D01*
Y923500D01*
X341735Y938497D02*
Y923500D01*
Y931356D02*
X343163Y932784D01*
X344591Y933498D01*
X346734D01*
X348162Y932784D01*
X349590Y931356D01*
X350304Y929213D01*
Y927785D01*
X349590Y925642D01*
X348162Y924214D01*
X346734Y923500D01*
X344591D01*
X343163Y924214D01*
X341735Y925642D01*
X334165Y933498D02*
X335593Y932784D01*
X337021Y931356D01*
X337735Y929213D01*
Y927785D01*
X337021Y925642D01*
X335593Y924214D01*
X334165Y923500D01*
X332022D01*
X330594Y924214D01*
X329166Y925642D01*
X328452Y927785D01*
Y929213D01*
X329166Y931356D01*
X330594Y932784D01*
X332022Y933498D01*
X334165D01*
X325167D02*
Y923500D01*
Y929213D02*
X324453Y931356D01*
X323024Y932784D01*
X321596Y933498D01*
X319454D01*
X312384Y938497D02*
X313812D01*
X315240Y937783D01*
X315954Y935640D01*
Y923500D01*
X318097Y933498D02*
X313098D01*
X310241Y929213D02*
X301672D01*
Y930641D01*
X302386Y932070D01*
X303100Y932784D01*
X304528Y933498D01*
X306671D01*
X308099Y932784D01*
X309527Y931356D01*
X310241Y929213D01*
Y927785D01*
X309527Y925642D01*
X308099Y924214D01*
X306671Y923500D01*
X304528D01*
X303100Y924214D01*
X301672Y925642D01*
X298458Y933498D02*
Y923500D01*
Y929213D02*
X297744Y931356D01*
X296316Y932784D01*
X294888Y933498D01*
X292745D01*
D48*
X460000Y480000D02*
D03*
Y500000D02*
D03*
X480000Y480000D02*
D03*
Y500000D02*
D03*
Y520000D02*
D03*
Y540000D02*
D03*
X440000Y520000D02*
D03*
X460000Y540000D02*
D03*
Y520000D02*
D03*
X420000Y540000D02*
D03*
X440000Y560000D02*
D03*
X380000Y600000D02*
D03*
X360000D02*
D03*
X340000D02*
D03*
Y580000D02*
D03*
Y620000D02*
D03*
X360000D02*
D03*
X380000D02*
D03*
X400000D02*
D03*
X420000D02*
D03*
Y600000D02*
D03*
Y560000D02*
D03*
Y580000D02*
D03*
X400000Y560000D02*
D03*
X380000D02*
D03*
X540000Y660000D02*
D03*
X560000D02*
D03*
Y640000D02*
D03*
X580000D02*
D03*
Y660000D02*
D03*
X600000Y700000D02*
D03*
Y680000D02*
D03*
Y620000D02*
D03*
Y640000D02*
D03*
Y660000D02*
D03*
Y880000D02*
D03*
X580000D02*
D03*
X520000D02*
D03*
X500000D02*
D03*
X480000D02*
D03*
X460000D02*
D03*
X480000Y860000D02*
D03*
X520000D02*
D03*
X500000D02*
D03*
X540000Y780000D02*
D03*
Y800000D02*
D03*
Y820000D02*
D03*
X560000D02*
D03*
Y800000D02*
D03*
X140000Y460000D02*
D03*
Y480000D02*
D03*
X160000Y480000D02*
D03*
X120000D02*
D03*
X100000Y480000D02*
D03*
X80000Y480000D02*
D03*
X120000Y460000D02*
D03*
X100000Y460000D02*
D03*
X80000Y460000D02*
D03*
Y440000D02*
D03*
X100000Y440000D02*
D03*
X120000Y440000D02*
D03*
X80000Y320000D02*
D03*
X100000D02*
D03*
X120000D02*
D03*
Y340000D02*
D03*
X140000D02*
D03*
Y360000D02*
D03*
X160000D02*
D03*
Y380000D02*
D03*
X180000D02*
D03*
Y400000D02*
D03*
X200000D02*
D03*
X220000Y440000D02*
D03*
Y420000D02*
D03*
X200000D02*
D03*
X360000Y520000D02*
D03*
Y500000D02*
D03*
Y480000D02*
D03*
X340000D02*
D03*
Y460000D02*
D03*
X400000Y420000D02*
D03*
X360000Y460000D02*
D03*
X380000Y440000D02*
D03*
X360000D02*
D03*
X400000Y400000D02*
D03*
X420000Y380000D02*
D03*
X440000D02*
D03*
X460000Y360000D02*
D03*
X440000D02*
D03*
X460000Y340000D02*
D03*
X480000D02*
D03*
X500000D02*
D03*
X520000D02*
D03*
X480000Y240000D02*
D03*
X500000D02*
D03*
X520000D02*
D03*
X600000Y540000D02*
D03*
Y520000D02*
D03*
Y500000D02*
D03*
Y420000D02*
D03*
Y440000D02*
D03*
Y460000D02*
D03*
Y480000D02*
D03*
Y400000D02*
D03*
Y380000D02*
D03*
Y360000D02*
D03*
Y280000D02*
D03*
Y300000D02*
D03*
Y320000D02*
D03*
Y340000D02*
D03*
Y260000D02*
D03*
Y240000D02*
D03*
Y220000D02*
D03*
Y160000D02*
D03*
Y180000D02*
D03*
Y200000D02*
D03*
Y220000D02*
D03*
Y140000D02*
D03*
Y120000D02*
D03*
Y100000D02*
D03*
Y60000D02*
D03*
Y80000D02*
D03*
X580000Y20000D02*
D03*
Y40000D02*
D03*
Y60000D02*
D03*
X560000Y40000D02*
D03*
Y60000D02*
D03*
X540000Y40000D02*
D03*
Y60000D02*
D03*
X580000Y140000D02*
D03*
X520000D02*
D03*
X540000D02*
D03*
Y120000D02*
D03*
Y100000D02*
D03*
X560000Y140000D02*
D03*
Y120000D02*
D03*
Y100000D02*
D03*
X580000Y120000D02*
D03*
Y100000D02*
D03*
Y80000D02*
D03*
D49*
X60000Y760000D02*
D03*
X40000D02*
D03*
X20000D02*
D03*
X80000D02*
D03*
X60000Y740000D02*
D03*
X40000D02*
D03*
X20000D02*
D03*
X80000D02*
D03*
X320000Y400000D02*
D03*
X340000Y380000D02*
D03*
X360000Y360000D02*
D03*
X380000Y340000D02*
D03*
X400000Y320000D02*
D03*
X420000Y300000D02*
D03*
X440000Y280000D02*
D03*
X460000Y260000D02*
D03*
X500000Y620000D02*
D03*
Y600000D02*
D03*
Y580000D02*
D03*
X460000Y560000D02*
D03*
X480000D02*
D03*
X520000Y480000D02*
D03*
Y500000D02*
D03*
Y520000D02*
D03*
Y540000D02*
D03*
X560000D02*
D03*
X540000D02*
D03*
X520000Y460000D02*
D03*
X500000D02*
D03*
X480000D02*
D03*
X460000D02*
D03*
X600000Y900000D02*
D03*
X560000D02*
D03*
X580000D02*
D03*
X540000D02*
D03*
X520000D02*
D03*
X420000D02*
D03*
X440000D02*
D03*
X460000D02*
D03*
X480000D02*
D03*
X500000D02*
D03*
X320000D02*
D03*
X300000D02*
D03*
X280000D02*
D03*
X260000D02*
D03*
X240000D02*
D03*
X220000D02*
D03*
X200000D02*
D03*
X340000D02*
D03*
X360000D02*
D03*
X200000Y920000D02*
D03*
X220000D02*
D03*
X240000D02*
D03*
X260000D02*
D03*
X280000D02*
D03*
X200000Y940000D02*
D03*
X220000D02*
D03*
X240000D02*
D03*
X260000D02*
D03*
X280000D02*
D03*
X140000D02*
D03*
X120000D02*
D03*
X100000D02*
D03*
X160000D02*
D03*
X180000D02*
D03*
X140000Y920000D02*
D03*
X120000D02*
D03*
X100000D02*
D03*
X160000D02*
D03*
X180000D02*
D03*
Y900000D02*
D03*
X160000D02*
D03*
X100000D02*
D03*
X120000D02*
D03*
X140000D02*
D03*
X400000D02*
D03*
X380000D02*
D03*
X500000Y780000D02*
D03*
X520000D02*
D03*
X500000Y740000D02*
D03*
X520000D02*
D03*
Y760000D02*
D03*
X500000D02*
D03*
X520000Y720000D02*
D03*
X500000D02*
D03*
X460000Y820000D02*
D03*
Y760000D02*
D03*
X480000D02*
D03*
Y740000D02*
D03*
X460000D02*
D03*
X480000Y780000D02*
D03*
X460000D02*
D03*
Y800000D02*
D03*
Y720000D02*
D03*
X480000D02*
D03*
X460000Y700000D02*
D03*
Y660000D02*
D03*
X480000D02*
D03*
Y680000D02*
D03*
X460000D02*
D03*
X440000Y820000D02*
D03*
X420000D02*
D03*
Y760000D02*
D03*
X440000D02*
D03*
Y740000D02*
D03*
X420000D02*
D03*
X440000Y780000D02*
D03*
X420000D02*
D03*
X440000Y800000D02*
D03*
X420000D02*
D03*
Y720000D02*
D03*
X440000D02*
D03*
X420000Y700000D02*
D03*
X440000D02*
D03*
X420000Y660000D02*
D03*
X440000D02*
D03*
Y680000D02*
D03*
X420000D02*
D03*
X380000Y840000D02*
D03*
X400000D02*
D03*
Y820000D02*
D03*
X380000D02*
D03*
X400000Y860000D02*
D03*
X380000D02*
D03*
X400000Y880000D02*
D03*
X380000D02*
D03*
Y760000D02*
D03*
X400000D02*
D03*
Y740000D02*
D03*
X380000D02*
D03*
X400000Y780000D02*
D03*
X380000D02*
D03*
X400000Y800000D02*
D03*
X380000D02*
D03*
Y720000D02*
D03*
X400000D02*
D03*
X380000Y700000D02*
D03*
X400000D02*
D03*
Y680000D02*
D03*
X380000D02*
D03*
X80000Y940000D02*
D03*
Y920000D02*
D03*
Y900000D02*
D03*
X20000Y680000D02*
D03*
Y660000D02*
D03*
X60000Y680000D02*
D03*
X80000D02*
D03*
X160000Y660000D02*
D03*
X120000D02*
D03*
X140000D02*
D03*
Y680000D02*
D03*
X120000D02*
D03*
X100000D02*
D03*
X160000D02*
D03*
X140000Y840000D02*
D03*
X120000D02*
D03*
X100000D02*
D03*
X80000D02*
D03*
X60000D02*
D03*
X40000D02*
D03*
X20000D02*
D03*
X160000D02*
D03*
X180000D02*
D03*
Y820000D02*
D03*
X160000D02*
D03*
X20000D02*
D03*
X40000D02*
D03*
X60000D02*
D03*
X80000D02*
D03*
X100000D02*
D03*
X120000D02*
D03*
X140000D02*
D03*
X180000Y860000D02*
D03*
X160000D02*
D03*
X20000D02*
D03*
X40000D02*
D03*
X60000D02*
D03*
X80000D02*
D03*
X100000D02*
D03*
X120000D02*
D03*
X140000D02*
D03*
X180000Y880000D02*
D03*
X160000D02*
D03*
X20000D02*
D03*
X40000D02*
D03*
X60000D02*
D03*
X80000D02*
D03*
X100000D02*
D03*
X120000D02*
D03*
X140000D02*
D03*
Y760000D02*
D03*
X120000D02*
D03*
X100000D02*
D03*
X160000D02*
D03*
X180000D02*
D03*
Y740000D02*
D03*
X160000D02*
D03*
X100000D02*
D03*
X120000D02*
D03*
X140000D02*
D03*
X180000Y780000D02*
D03*
X160000D02*
D03*
X20000D02*
D03*
X40000D02*
D03*
X60000D02*
D03*
X80000D02*
D03*
X100000D02*
D03*
X120000D02*
D03*
X140000D02*
D03*
X180000Y800000D02*
D03*
X160000D02*
D03*
X20000D02*
D03*
X40000D02*
D03*
X60000D02*
D03*
X80000D02*
D03*
X100000D02*
D03*
X120000D02*
D03*
X140000D02*
D03*
Y720000D02*
D03*
X120000D02*
D03*
X100000D02*
D03*
X80000D02*
D03*
X60000D02*
D03*
X40000D02*
D03*
X20000D02*
D03*
X160000D02*
D03*
X180000D02*
D03*
X140000Y700000D02*
D03*
X120000D02*
D03*
X100000D02*
D03*
X40000D02*
D03*
X20000D02*
D03*
X160000D02*
D03*
X180000D02*
D03*
X80000Y580000D02*
D03*
X60000D02*
D03*
Y560000D02*
D03*
X80000D02*
D03*
X120000D02*
D03*
X100000D02*
D03*
Y540000D02*
D03*
X120000D02*
D03*
X140000D02*
D03*
Y560000D02*
D03*
X160000D02*
D03*
X180000D02*
D03*
X160000Y540000D02*
D03*
Y520000D02*
D03*
X140000D02*
D03*
X120000D02*
D03*
X100000D02*
D03*
X80000D02*
D03*
Y540000D02*
D03*
X60000D02*
D03*
X40000D02*
D03*
Y560000D02*
D03*
Y580000D02*
D03*
X60000Y600000D02*
D03*
X40000D02*
D03*
X60000Y620000D02*
D03*
X80000Y600000D02*
D03*
X100000Y580000D02*
D03*
X120000D02*
D03*
X140000D02*
D03*
X160000D02*
D03*
X120000Y620000D02*
D03*
X140000D02*
D03*
X160000D02*
D03*
X300000D02*
D03*
X280000D02*
D03*
X260000D02*
D03*
X240000D02*
D03*
X220000D02*
D03*
X200000D02*
D03*
X320000D02*
D03*
X300000Y600000D02*
D03*
X280000D02*
D03*
X260000D02*
D03*
X240000D02*
D03*
X220000D02*
D03*
X200000D02*
D03*
X320000D02*
D03*
X300000Y560000D02*
D03*
X280000D02*
D03*
X260000D02*
D03*
X240000D02*
D03*
X220000D02*
D03*
X320000D02*
D03*
Y580000D02*
D03*
X200000D02*
D03*
X220000D02*
D03*
X240000D02*
D03*
X260000D02*
D03*
X280000D02*
D03*
X300000D02*
D03*
X320000Y680000D02*
D03*
X300000D02*
D03*
X280000D02*
D03*
X260000D02*
D03*
X240000D02*
D03*
X220000D02*
D03*
X200000D02*
D03*
X340000D02*
D03*
X360000D02*
D03*
Y660000D02*
D03*
X340000D02*
D03*
X220000D02*
D03*
X240000D02*
D03*
X260000D02*
D03*
X280000D02*
D03*
X300000D02*
D03*
X320000D02*
D03*
X360000Y700000D02*
D03*
X340000D02*
D03*
X200000D02*
D03*
X220000D02*
D03*
X240000D02*
D03*
X260000D02*
D03*
X280000D02*
D03*
X300000D02*
D03*
X320000D02*
D03*
X360000Y720000D02*
D03*
X340000D02*
D03*
X200000D02*
D03*
X220000D02*
D03*
X240000D02*
D03*
X260000D02*
D03*
X280000D02*
D03*
X300000D02*
D03*
X320000D02*
D03*
Y800000D02*
D03*
X300000D02*
D03*
X280000D02*
D03*
X260000D02*
D03*
X240000D02*
D03*
X220000D02*
D03*
X200000D02*
D03*
X340000D02*
D03*
X360000D02*
D03*
X320000Y780000D02*
D03*
X300000D02*
D03*
X280000D02*
D03*
X260000D02*
D03*
X240000D02*
D03*
X220000D02*
D03*
X200000D02*
D03*
X340000D02*
D03*
X360000D02*
D03*
X320000Y740000D02*
D03*
X300000D02*
D03*
X280000D02*
D03*
X260000D02*
D03*
X240000D02*
D03*
X220000D02*
D03*
X200000D02*
D03*
X340000D02*
D03*
X360000D02*
D03*
Y760000D02*
D03*
X340000D02*
D03*
X200000D02*
D03*
X220000D02*
D03*
X240000D02*
D03*
X260000D02*
D03*
X280000D02*
D03*
X300000D02*
D03*
X320000D02*
D03*
Y880000D02*
D03*
X300000D02*
D03*
X280000D02*
D03*
X260000D02*
D03*
X240000D02*
D03*
X220000D02*
D03*
X200000D02*
D03*
X340000D02*
D03*
X360000D02*
D03*
X320000Y860000D02*
D03*
X300000D02*
D03*
X280000D02*
D03*
X260000D02*
D03*
X240000D02*
D03*
X220000D02*
D03*
X200000D02*
D03*
X340000D02*
D03*
X360000D02*
D03*
X320000Y820000D02*
D03*
X300000D02*
D03*
X280000D02*
D03*
X260000D02*
D03*
X240000D02*
D03*
X220000D02*
D03*
X200000D02*
D03*
X340000D02*
D03*
X360000D02*
D03*
Y840000D02*
D03*
X340000D02*
D03*
X200000D02*
D03*
X220000D02*
D03*
X240000D02*
D03*
X260000D02*
D03*
X280000D02*
D03*
X300000D02*
D03*
X320000D02*
D03*
X600000Y40000D02*
D03*
X540000Y20000D02*
D03*
X560000D02*
D03*
Y80000D02*
D03*
X540000D02*
D03*
X520000D02*
D03*
X60000D02*
D03*
X40000D02*
D03*
X20000D02*
D03*
Y100000D02*
D03*
X40000D02*
D03*
X60000D02*
D03*
X20000Y120000D02*
D03*
X40000D02*
D03*
X60000D02*
D03*
Y140000D02*
D03*
X40000Y140000D02*
D03*
X20000D02*
D03*
X80000D02*
D03*
X100000D02*
D03*
X180000Y240000D02*
D03*
Y260000D02*
D03*
X200000D02*
D03*
Y240000D02*
D03*
Y220000D02*
D03*
X180000D02*
D03*
X160000D02*
D03*
X140000D02*
D03*
X80000Y180000D02*
D03*
X100000Y160000D02*
D03*
X80000D02*
D03*
X100000Y180000D02*
D03*
X100000Y200000D02*
D03*
X120000Y220000D02*
D03*
X160000Y240000D02*
D03*
X140000D02*
D03*
X160000Y260000D02*
D03*
X200000Y280000D02*
D03*
X180000D02*
D03*
X200000Y300000D02*
D03*
X240000Y340000D02*
D03*
X500000Y120000D02*
D03*
X480000D02*
D03*
Y100000D02*
D03*
X500000D02*
D03*
Y80000D02*
D03*
X480000D02*
D03*
X460000Y80000D02*
D03*
X440000D02*
D03*
X460000Y100000D02*
D03*
X440000D02*
D03*
Y120000D02*
D03*
X460000D02*
D03*
Y140000D02*
D03*
X440000D02*
D03*
X460000Y160000D02*
D03*
X440000D02*
D03*
X400000Y40000D02*
D03*
X420000D02*
D03*
Y20000D02*
D03*
X400000D02*
D03*
Y60000D02*
D03*
Y80000D02*
D03*
Y160000D02*
D03*
X420000D02*
D03*
X400000Y140000D02*
D03*
X420000D02*
D03*
X400000Y100000D02*
D03*
X420000Y120000D02*
D03*
X400000D02*
D03*
Y180000D02*
D03*
X420000D02*
D03*
Y200000D02*
D03*
X400000D02*
D03*
X500000Y140000D02*
D03*
X480000D02*
D03*
Y160000D02*
D03*
X460000Y180000D02*
D03*
X440000D02*
D03*
Y200000D02*
D03*
X420000Y220000D02*
D03*
X400000D02*
D03*
Y240000D02*
D03*
X380000Y260000D02*
D03*
X360000D02*
D03*
Y280000D02*
D03*
X340000Y300000D02*
D03*
X320000D02*
D03*
Y320000D02*
D03*
X280000Y360000D02*
D03*
X260000D02*
D03*
Y340000D02*
D03*
X280000D02*
D03*
X300000D02*
D03*
X340000Y280000D02*
D03*
X320000D02*
D03*
X340000Y260000D02*
D03*
X320000D02*
D03*
X300000Y280000D02*
D03*
X280000D02*
D03*
X260000D02*
D03*
X240000D02*
D03*
X220000D02*
D03*
X300000Y260000D02*
D03*
X280000D02*
D03*
X260000D02*
D03*
X240000D02*
D03*
X220000D02*
D03*
X300000Y300000D02*
D03*
X280000D02*
D03*
X260000D02*
D03*
X240000D02*
D03*
X220000D02*
D03*
Y320000D02*
D03*
X240000D02*
D03*
X260000D02*
D03*
X280000D02*
D03*
X300000D02*
D03*
X200000Y160000D02*
D03*
X180000D02*
D03*
X160000D02*
D03*
X140000D02*
D03*
X120000D02*
D03*
X200000Y140000D02*
D03*
X180000D02*
D03*
X160000D02*
D03*
X140000D02*
D03*
X120000D02*
D03*
X200000Y180000D02*
D03*
X180000D02*
D03*
X160000D02*
D03*
X140000D02*
D03*
X120000D02*
D03*
Y200000D02*
D03*
X140000D02*
D03*
X160000D02*
D03*
X180000D02*
D03*
X200000D02*
D03*
Y40000D02*
D03*
X160000D02*
D03*
X140000D02*
D03*
X120000D02*
D03*
X100000D02*
D03*
X80000D02*
D03*
X200000Y20000D02*
D03*
X180000D02*
D03*
X160000D02*
D03*
X140000D02*
D03*
X120000D02*
D03*
X100000D02*
D03*
X80000D02*
D03*
X200000Y120000D02*
D03*
X180000D02*
D03*
X160000D02*
D03*
X140000D02*
D03*
X120000D02*
D03*
X100000D02*
D03*
X80000D02*
D03*
X200000Y100000D02*
D03*
X180000D02*
D03*
X160000D02*
D03*
X140000D02*
D03*
X120000D02*
D03*
X100000D02*
D03*
X80000D02*
D03*
X200000Y60000D02*
D03*
X160000D02*
D03*
X140000D02*
D03*
X120000D02*
D03*
X100000D02*
D03*
X80000D02*
D03*
Y80000D02*
D03*
X100000D02*
D03*
X120000D02*
D03*
X140000D02*
D03*
X160000D02*
D03*
X200000D02*
D03*
X340000Y200000D02*
D03*
X320000D02*
D03*
X300000D02*
D03*
X280000D02*
D03*
X260000D02*
D03*
X240000D02*
D03*
X220000D02*
D03*
X360000D02*
D03*
X380000D02*
D03*
Y180000D02*
D03*
X360000D02*
D03*
X220000D02*
D03*
X240000D02*
D03*
X260000D02*
D03*
X280000D02*
D03*
X300000D02*
D03*
X320000D02*
D03*
X340000D02*
D03*
X380000Y220000D02*
D03*
X360000D02*
D03*
X220000D02*
D03*
X240000D02*
D03*
X260000D02*
D03*
X280000D02*
D03*
X300000D02*
D03*
X320000D02*
D03*
X340000D02*
D03*
X380000Y240000D02*
D03*
X360000D02*
D03*
X220000D02*
D03*
X240000D02*
D03*
X260000D02*
D03*
X280000D02*
D03*
X300000D02*
D03*
X320000D02*
D03*
X340000D02*
D03*
Y120000D02*
D03*
X320000D02*
D03*
X300000D02*
D03*
X280000D02*
D03*
X260000D02*
D03*
X240000D02*
D03*
X220000D02*
D03*
X360000D02*
D03*
X380000D02*
D03*
Y100000D02*
D03*
X360000D02*
D03*
X220000D02*
D03*
X240000D02*
D03*
X260000D02*
D03*
X280000D02*
D03*
X300000D02*
D03*
X320000D02*
D03*
X340000D02*
D03*
X380000Y140000D02*
D03*
X360000D02*
D03*
X220000D02*
D03*
X240000D02*
D03*
X260000D02*
D03*
X280000D02*
D03*
X300000D02*
D03*
X320000D02*
D03*
X340000D02*
D03*
X380000Y160000D02*
D03*
X360000D02*
D03*
X220000D02*
D03*
X240000D02*
D03*
X260000D02*
D03*
X280000D02*
D03*
X300000D02*
D03*
X320000D02*
D03*
X340000D02*
D03*
Y80000D02*
D03*
X320000D02*
D03*
X300000D02*
D03*
X280000D02*
D03*
X260000D02*
D03*
X240000D02*
D03*
X220000D02*
D03*
X360000D02*
D03*
X380000D02*
D03*
X340000Y60000D02*
D03*
X320000D02*
D03*
X300000D02*
D03*
X280000D02*
D03*
X260000D02*
D03*
X240000D02*
D03*
X220000D02*
D03*
X360000D02*
D03*
X380000D02*
D03*
X340000Y20000D02*
D03*
X320000D02*
D03*
X300000D02*
D03*
X280000D02*
D03*
X260000D02*
D03*
X240000D02*
D03*
X220000D02*
D03*
X360000D02*
D03*
X380000D02*
D03*
Y40000D02*
D03*
X360000D02*
D03*
X220000D02*
D03*
X240000D02*
D03*
X260000D02*
D03*
X280000D02*
D03*
X300000D02*
D03*
X320000D02*
D03*
X340000D02*
D03*
D60*
X477000Y266000D02*
X550000D01*
X303000Y432250D02*
X321250Y414000D01*
X329000D02*
X477000Y266000D01*
X321250Y414000D02*
X329000D01*
X508750Y681000D02*
X508808Y680942D01*
Y657750D02*
Y680942D01*
X199000Y536500D02*
Y558250D01*
X164500Y592750D02*
X199000Y558250D01*
X111450Y592750D02*
X164500D01*
X74100Y630100D02*
X111450Y592750D01*
X372250Y582000D02*
X386500D01*
X394000Y589500D01*
X343750Y553500D02*
X372250Y582000D01*
X343750Y508500D02*
Y553500D01*
X327000Y491750D02*
X343750Y508500D01*
X338750Y511000D02*
Y556500D01*
X371500Y589250D01*
X327000Y499250D02*
X338750Y511000D01*
X277000Y427000D02*
X279000Y429000D01*
X277000Y419250D02*
Y427000D01*
Y419250D02*
X279000Y417250D01*
X287000Y429000D02*
X289000Y427000D01*
Y419500D02*
Y427000D01*
X287000Y417500D02*
X289000Y419500D01*
X237000Y427000D02*
X239000Y429000D01*
X237000Y420500D02*
Y427000D01*
Y420500D02*
X239000Y418500D01*
X247000Y429000D02*
X249000Y427000D01*
Y420500D02*
Y427000D01*
X247000Y418500D02*
X249000Y420500D01*
X239000Y429000D02*
Y536500D01*
Y390750D02*
Y418500D01*
X247000Y429000D02*
Y536500D01*
Y387250D02*
Y418500D01*
X287000Y401500D02*
Y417500D01*
X279000Y398250D02*
Y417250D01*
Y429000D02*
Y536500D01*
X287000Y429000D02*
Y536500D01*
X303000Y432250D02*
Y536500D01*
X399000Y484750D02*
X439950Y443800D01*
X550000D01*
X399000Y484750D02*
Y536500D01*
X375000Y475250D02*
X482650Y367600D01*
X550000D01*
X375000Y475250D02*
Y536500D01*
X383000Y478000D02*
X468000Y393000D01*
X550000D01*
X383000Y478000D02*
Y536500D01*
X391000Y481250D02*
X453850Y418400D01*
X550000D01*
X391000Y481250D02*
Y536500D01*
X271000Y395000D02*
X501600Y164400D01*
X550000D01*
X271000Y395000D02*
Y536500D01*
X279000Y398250D02*
X487450Y189800D01*
X550000D01*
X287000Y401500D02*
X473300Y215200D01*
X550000D01*
X311000Y442500D02*
X462100Y291400D01*
X550000D01*
X311000Y442500D02*
Y536500D01*
X319000Y445250D02*
X447450Y316800D01*
X550000D01*
X319000Y445250D02*
Y536500D01*
X60000Y215200D02*
X86700D01*
X255000Y383500D01*
Y536500D01*
X60000Y240600D02*
X100350D01*
X247000Y387250D01*
X60000Y266000D02*
X114250D01*
X239000Y390750D01*
X60000Y291400D02*
X128150D01*
X231000Y394250D01*
Y536500D01*
X60000Y342200D02*
X92700D01*
X223000Y472500D01*
Y536500D01*
X60000Y367600D02*
X106350D01*
X215000Y476250D01*
Y536500D01*
X60000Y393000D02*
X120750D01*
X207000Y479250D01*
Y536500D01*
X60000Y418400D02*
X135400D01*
X199000Y482000D01*
Y536500D01*
D62*
X570000Y750000D02*
D03*
X490000Y40000D02*
D03*
X40000D02*
D03*
Y920000D02*
D03*
D63*
X575000Y569600D02*
D03*
X550000Y520000D02*
D03*
X60000Y164400D02*
D03*
X502000Y493600D02*
D03*
D64*
X575000Y595000D02*
D03*
Y620400D02*
D03*
X550000Y694000D02*
D03*
X524600D02*
D03*
X550000Y266000D02*
D03*
X575400D02*
D03*
X550000Y240600D02*
D03*
X575400D02*
D03*
X550000Y215200D02*
D03*
X575400D02*
D03*
X550000Y189800D02*
D03*
X575400D02*
D03*
X550000Y164400D02*
D03*
X575400D02*
D03*
Y291400D02*
D03*
X550000D02*
D03*
X575400Y316800D02*
D03*
X550000D02*
D03*
X575400Y342200D02*
D03*
X550000D02*
D03*
X575400Y367600D02*
D03*
X550000D02*
D03*
X575400Y393000D02*
D03*
X550000D02*
D03*
X575400Y418400D02*
D03*
X550000D02*
D03*
X575400Y443800D02*
D03*
X550000D02*
D03*
X575400Y469200D02*
D03*
X550000D02*
D03*
X575400Y494600D02*
D03*
X550000D02*
D03*
X575400Y520000D02*
D03*
X60000Y418400D02*
D03*
X34600D02*
D03*
X60000Y443800D02*
D03*
X34600D02*
D03*
X60000Y469200D02*
D03*
X34600D02*
D03*
X60000Y494600D02*
D03*
X34600D02*
D03*
X60000Y520000D02*
D03*
X34600D02*
D03*
Y393000D02*
D03*
X60000D02*
D03*
X34600Y367600D02*
D03*
X60000D02*
D03*
X34600Y342200D02*
D03*
X60000D02*
D03*
X34600Y316800D02*
D03*
X60000D02*
D03*
X34600Y291400D02*
D03*
X60000D02*
D03*
X34600Y266000D02*
D03*
X60000D02*
D03*
X34600Y240600D02*
D03*
X60000D02*
D03*
X34600Y215200D02*
D03*
X60000D02*
D03*
X34600Y189800D02*
D03*
X60000D02*
D03*
X34600Y164400D02*
D03*
X502000Y519000D02*
D03*
Y544400D02*
D03*
D65*
X575400Y694000D02*
D03*
D66*
X432200Y857100D02*
D03*
X552600D02*
D03*
D67*
X480000Y830000D02*
D03*
X504900D02*
D03*
Y810000D02*
D03*
X479900D02*
D03*
D68*
X389750Y652750D02*
D03*
X406000Y591000D02*
D03*
X415500Y404000D02*
D03*
X432500D02*
D03*
X525000Y109750D02*
D03*
Y30250D02*
D03*
X438500Y30000D02*
D03*
X171500D02*
D03*
X184000Y89000D02*
D03*
X426000D02*
D03*
X28250Y829750D02*
D03*
X28500Y548500D02*
D03*
X54600Y708000D02*
D03*
X77400Y708000D02*
D03*
X38500Y681000D02*
D03*
X71500Y641250D02*
D03*
Y663100D02*
D03*
X181000Y619750D02*
D03*
X181750Y677000D02*
D03*
X193000Y654500D02*
D03*
X431500Y541000D02*
D03*
X554000Y671500D02*
D03*
X484500Y704000D02*
D03*
X508750Y681000D02*
D03*
X440000Y620000D02*
D03*
X450000D02*
D03*
X460000D02*
D03*
X480000Y610000D02*
D03*
Y600000D02*
D03*
Y590000D02*
D03*
Y580000D02*
D03*
Y570000D02*
D03*
X470000D02*
D03*
X460000D02*
D03*
X470000Y580000D02*
D03*
Y590000D02*
D03*
X460000D02*
D03*
X470000Y600000D02*
D03*
X460000D02*
D03*
X450000D02*
D03*
X460000Y580000D02*
D03*
X450000D02*
D03*
Y590000D02*
D03*
X440000D02*
D03*
Y600000D02*
D03*
Y610000D02*
D03*
X450000D02*
D03*
X460000D02*
D03*
X470000D02*
D03*
X533250Y562750D02*
D03*
X512500Y566250D02*
D03*
X525750Y562750D02*
D03*
X518250D02*
D03*
X522000Y622000D02*
D03*
X522000Y613000D02*
D03*
Y568000D02*
D03*
Y577000D02*
D03*
Y595000D02*
D03*
Y586000D02*
D03*
X522000Y604000D02*
D03*
X508808Y657750D02*
D03*
X74100Y630100D02*
D03*
X181000Y506250D02*
D03*
X327000Y491750D02*
D03*
Y499250D02*
D03*
X394000Y589500D02*
D03*
X371500Y589250D02*
D03*
X423000Y505500D02*
D03*
X367000Y536500D02*
D03*
X387000Y423500D02*
D03*
X363000D02*
D03*
X187000D02*
D03*
X323000D02*
D03*
X283000D02*
D03*
X243000D02*
D03*
X191000Y536500D02*
D03*
X327000D02*
D03*
X295000D02*
D03*
X263000D02*
D03*
X399000D02*
D03*
X391000D02*
D03*
X383000D02*
D03*
X375000D02*
D03*
X319000D02*
D03*
X311000D02*
D03*
X303000D02*
D03*
X287000D02*
D03*
X279000D02*
D03*
X271000D02*
D03*
X255000D02*
D03*
X247000D02*
D03*
X239000D02*
D03*
X231000D02*
D03*
X223000D02*
D03*
X215000D02*
D03*
X207000D02*
D03*
X199000D02*
D03*
M02*
