G04*
G04 #@! TF.GenerationSoftware,Altium Limited,Altium Designer,19.0.15 (446)*
G04*
G04 Layer_Physical_Order=2*
G04 Layer_Color=36540*
%FSLAX44Y44*%
%MOMM*%
G71*
G01*
G75*
%ADD11C,0.2000*%
%ADD62C,5.4000*%
%ADD64C,2.0000*%
%ADD66C,4.0000*%
%ADD67C,1.6000*%
%ADD68C,0.4500*%
G36*
X594347Y954330D02*
X597059Y953206D01*
X599500Y951575D01*
X601575Y949500D01*
X603206Y947059D01*
X604329Y944347D01*
X604902Y941468D01*
X604902Y940000D01*
Y859000D01*
X581000D01*
Y791000D01*
X604902D01*
Y20000D01*
X604902Y18532D01*
X604329Y15653D01*
X603206Y12941D01*
X601575Y10500D01*
X599500Y8425D01*
X597059Y6794D01*
X594347Y5670D01*
X591468Y5098D01*
X18532D01*
X15653Y5670D01*
X12941Y6794D01*
X10500Y8425D01*
X8425Y10500D01*
X6794Y12941D01*
X5670Y15653D01*
X5098Y18532D01*
Y20000D01*
Y940000D01*
Y941468D01*
X5670Y944347D01*
X6794Y947059D01*
X8425Y949500D01*
X10500Y951575D01*
X12941Y953206D01*
X15653Y954330D01*
X18532Y954902D01*
X591468D01*
X594347Y954330D01*
D02*
G37*
G36*
X592511Y821279D02*
X592705Y821251D01*
X592927Y821224D01*
X593176Y821168D01*
X593426Y821099D01*
X593662Y821002D01*
X593689Y820988D01*
X593759Y820946D01*
X593884Y820891D01*
X594022Y820808D01*
X594203Y820697D01*
X594383Y820572D01*
X594577Y820419D01*
X594757Y820253D01*
X594771Y820239D01*
X594841Y820170D01*
X594924Y820086D01*
X595035Y819962D01*
X595159Y819809D01*
X595284Y819643D01*
X595423Y819448D01*
X595548Y819254D01*
X595562Y819227D01*
X595603Y819157D01*
X595673Y819046D01*
X595756Y818908D01*
X595867Y818741D01*
X596006Y818547D01*
X596158Y818325D01*
X596324Y818103D01*
X596338Y818089D01*
X596380Y818020D01*
X596435Y817937D01*
X596519Y817826D01*
X596616Y817687D01*
X596713Y817549D01*
X596949Y817230D01*
X596962Y817216D01*
X597004Y817160D01*
X597060Y817091D01*
X597143Y816994D01*
X597240Y816869D01*
X597351Y816744D01*
X597614Y816495D01*
X597628Y816481D01*
X597683Y816439D01*
X597753Y816384D01*
X597850Y816300D01*
X597961Y816217D01*
X598100Y816120D01*
X598405Y815954D01*
X598419Y815940D01*
X598474Y815926D01*
X598557Y815884D01*
X598668Y815857D01*
X598807Y815815D01*
X598959Y815773D01*
X599112Y815760D01*
X599292Y815746D01*
X599375D01*
Y821140D01*
X601248D01*
Y813707D01*
X600180D01*
X600166D01*
X600138D01*
X600069D01*
X600000D01*
X599902D01*
X599791Y813721D01*
X599542Y813735D01*
X599251Y813749D01*
X598932Y813790D01*
X598613Y813832D01*
X598308Y813901D01*
X598294D01*
X598266Y813915D01*
X598224Y813929D01*
X598169Y813943D01*
X598016Y813984D01*
X597822Y814054D01*
X597600Y814151D01*
X597365Y814248D01*
X597115Y814373D01*
X596865Y814525D01*
X596851D01*
X596838Y814539D01*
X596754Y814608D01*
X596629Y814692D01*
X596477Y814817D01*
X596297Y814969D01*
X596102Y815163D01*
X595895Y815371D01*
X595700Y815593D01*
Y815607D01*
X595673Y815621D01*
X595645Y815662D01*
X595603Y815704D01*
X595506Y815843D01*
X595368Y816023D01*
X595201Y816259D01*
X595021Y816522D01*
X594813Y816814D01*
X594605Y817146D01*
X594591Y817160D01*
X594577Y817202D01*
X594535Y817257D01*
X594480Y817340D01*
X594411Y817438D01*
X594341Y817549D01*
X594175Y817812D01*
X594161Y817826D01*
X594133Y817881D01*
X594078Y817951D01*
X594008Y818048D01*
X593939Y818159D01*
X593842Y818270D01*
X593634Y818519D01*
X593620Y818533D01*
X593578Y818575D01*
X593523Y818630D01*
X593440Y818714D01*
X593357Y818797D01*
X593246Y818880D01*
X593010Y819046D01*
X592996Y819060D01*
X592954Y819074D01*
X592885Y819116D01*
X592788Y819157D01*
X592677Y819185D01*
X592552Y819227D01*
X592413Y819240D01*
X592261Y819254D01*
X592247D01*
X592206D01*
X592150D01*
X592067Y819240D01*
X591873Y819199D01*
X591651Y819116D01*
X591637D01*
X591595Y819088D01*
X591540Y819060D01*
X591470Y819019D01*
X591304Y818894D01*
X591124Y818741D01*
X591110Y818727D01*
X591082Y818700D01*
X591041Y818644D01*
X590999Y818589D01*
X590943Y818505D01*
X590874Y818408D01*
X590763Y818200D01*
Y818186D01*
X590736Y818145D01*
X590722Y818089D01*
X590694Y818006D01*
X590666Y817909D01*
X590652Y817812D01*
X590625Y817576D01*
Y817424D01*
X590638Y817313D01*
X590652Y817174D01*
X590666Y817035D01*
X590736Y816703D01*
Y816689D01*
X590749Y816619D01*
X590777Y816536D01*
X590805Y816425D01*
X590846Y816286D01*
X590888Y816134D01*
X590999Y815801D01*
X591013Y815787D01*
X591027Y815732D01*
X591068Y815635D01*
X591110Y815524D01*
X591165Y815399D01*
X591235Y815246D01*
X591401Y814941D01*
X591415Y814927D01*
X591443Y814872D01*
X591484Y814775D01*
X591540Y814664D01*
X591623Y814511D01*
X591706Y814345D01*
X591803Y814137D01*
X591900Y813915D01*
X589834D01*
X589820Y813929D01*
X589806Y813957D01*
X589779Y813998D01*
X589737Y814054D01*
X589695Y814123D01*
X589640Y814206D01*
X589515Y814414D01*
X589376Y814650D01*
X589238Y814941D01*
X589113Y815246D01*
X589002Y815579D01*
Y815593D01*
X588988Y815621D01*
X588974Y815662D01*
X588960Y815732D01*
X588946Y815815D01*
X588919Y815912D01*
X588877Y816134D01*
X588835Y816397D01*
X588794Y816689D01*
X588766Y816994D01*
X588752Y817313D01*
Y817451D01*
X588766Y817604D01*
X588780Y817812D01*
X588808Y818034D01*
X588849Y818297D01*
X588905Y818561D01*
X588974Y818838D01*
Y818852D01*
X588988Y818866D01*
X589002Y818908D01*
X589016Y818963D01*
X589057Y819102D01*
X589127Y819268D01*
X589224Y819462D01*
X589335Y819670D01*
X589460Y819892D01*
X589612Y820100D01*
X589626Y820128D01*
X589695Y820197D01*
X589779Y820294D01*
X589903Y820419D01*
X590070Y820558D01*
X590250Y820697D01*
X590458Y820849D01*
X590694Y820974D01*
X590708D01*
X590722Y820988D01*
X590763Y821002D01*
X590805Y821030D01*
X590943Y821071D01*
X591124Y821140D01*
X591346Y821196D01*
X591609Y821237D01*
X591886Y821279D01*
X592206Y821293D01*
X592219D01*
X592247D01*
X592289D01*
X592344D01*
X592511Y821279D01*
D02*
G37*
%LPC*%
G36*
X41250Y948259D02*
Y921250D01*
X68259D01*
X68008Y924436D01*
X66969Y928763D01*
X65267Y932874D01*
X62942Y936668D01*
X60052Y940052D01*
X56668Y942942D01*
X52874Y945267D01*
X48763Y946970D01*
X44436Y948008D01*
X41250Y948259D01*
D02*
G37*
G36*
X38750D02*
X35564Y948008D01*
X31237Y946970D01*
X27126Y945267D01*
X23332Y942942D01*
X19948Y940052D01*
X17058Y936668D01*
X14733Y932874D01*
X13031Y928763D01*
X11992Y924436D01*
X11741Y921250D01*
X38750D01*
Y948259D01*
D02*
G37*
G36*
X68259Y918750D02*
X41250D01*
Y891741D01*
X44436Y891992D01*
X48763Y893030D01*
X52874Y894733D01*
X56668Y897058D01*
X60052Y899948D01*
X62942Y903332D01*
X65267Y907126D01*
X66969Y911237D01*
X68008Y915564D01*
X68259Y918750D01*
D02*
G37*
G36*
X38750D02*
X11741D01*
X11992Y915564D01*
X13031Y911237D01*
X14733Y907126D01*
X17058Y903332D01*
X19948Y899948D01*
X23332Y897058D01*
X27126Y894733D01*
X31237Y893030D01*
X35564Y891992D01*
X38750Y891741D01*
Y918750D01*
D02*
G37*
G36*
X553850Y878350D02*
Y858350D01*
X573850D01*
X573562Y861270D01*
X572346Y865279D01*
X570371Y868974D01*
X567713Y872213D01*
X564474Y874871D01*
X560779Y876846D01*
X556770Y878062D01*
X553850Y878350D01*
D02*
G37*
G36*
X433450D02*
Y858350D01*
X453450D01*
X453162Y861270D01*
X451946Y865279D01*
X449971Y868974D01*
X447313Y872213D01*
X444074Y874871D01*
X440379Y876846D01*
X436370Y878062D01*
X433450Y878350D01*
D02*
G37*
G36*
X430950D02*
X428030Y878062D01*
X424021Y876846D01*
X420326Y874871D01*
X417087Y872213D01*
X414429Y868974D01*
X412454Y865279D01*
X411238Y861270D01*
X410950Y858350D01*
X430950D01*
Y878350D01*
D02*
G37*
G36*
X551350D02*
X548430Y878062D01*
X544421Y876846D01*
X540726Y874871D01*
X537487Y872213D01*
X534829Y868974D01*
X532854Y865279D01*
X531638Y861270D01*
X531350Y858350D01*
X551350D01*
Y878350D01*
D02*
G37*
G36*
X573850Y855850D02*
X553850D01*
Y835850D01*
X556770Y836138D01*
X560779Y837354D01*
X564474Y839329D01*
X567713Y841987D01*
X570371Y845226D01*
X572346Y848921D01*
X573562Y852930D01*
X573850Y855850D01*
D02*
G37*
G36*
X430950D02*
X410950D01*
X411238Y852930D01*
X412454Y848921D01*
X414429Y845226D01*
X417087Y841987D01*
X420326Y839329D01*
X424021Y837354D01*
X428030Y836138D01*
X430950Y835850D01*
Y855850D01*
D02*
G37*
G36*
X453450D02*
X433450D01*
Y835850D01*
X436370Y836138D01*
X440379Y837354D01*
X444074Y839329D01*
X447313Y841987D01*
X449971Y845226D01*
X451946Y848921D01*
X453162Y852930D01*
X453450Y855850D01*
D02*
G37*
G36*
X551350D02*
X531350D01*
X531638Y852930D01*
X532854Y848921D01*
X534829Y845226D01*
X537487Y841987D01*
X540726Y839329D01*
X544421Y837354D01*
X548430Y836138D01*
X551350Y835850D01*
Y855850D01*
D02*
G37*
G36*
X481250Y839185D02*
Y831250D01*
X489185D01*
X489031Y832420D01*
X488097Y834675D01*
X486611Y836611D01*
X484675Y838097D01*
X482420Y839031D01*
X481250Y839185D01*
D02*
G37*
G36*
X478750D02*
X477580Y839031D01*
X475325Y838097D01*
X473389Y836611D01*
X471903Y834675D01*
X470969Y832420D01*
X470815Y831250D01*
X478750D01*
Y839185D01*
D02*
G37*
G36*
X504900Y838967D02*
X502579Y838661D01*
X500417Y837765D01*
X498560Y836340D01*
X497135Y834483D01*
X496239Y832321D01*
X495933Y830000D01*
X496239Y827679D01*
X497135Y825517D01*
X498560Y823660D01*
X500417Y822235D01*
X502579Y821339D01*
X504900Y821033D01*
X507221Y821339D01*
X509383Y822235D01*
X511240Y823660D01*
X512665Y825517D01*
X513561Y827679D01*
X513867Y830000D01*
X513561Y832321D01*
X512665Y834483D01*
X511240Y836340D01*
X509383Y837765D01*
X507221Y838661D01*
X504900Y838967D01*
D02*
G37*
G36*
X489185Y828750D02*
X481250D01*
Y820815D01*
X482420Y820969D01*
X484675Y821903D01*
X486611Y823389D01*
X488097Y825325D01*
X489031Y827580D01*
X489185Y828750D01*
D02*
G37*
G36*
X478750D02*
X470815D01*
X470969Y827580D01*
X471903Y825325D01*
X473389Y823389D01*
X475325Y821903D01*
X477580Y820969D01*
X478750Y820815D01*
Y828750D01*
D02*
G37*
G36*
X504900Y818967D02*
X502579Y818661D01*
X500417Y817765D01*
X498560Y816340D01*
X497135Y814483D01*
X496239Y812321D01*
X495933Y810000D01*
X496239Y807679D01*
X497135Y805517D01*
X498560Y803660D01*
X500417Y802235D01*
X502579Y801339D01*
X504900Y801033D01*
X507221Y801339D01*
X509383Y802235D01*
X511240Y803660D01*
X512665Y805517D01*
X513561Y807679D01*
X513867Y810000D01*
X513561Y812321D01*
X512665Y814483D01*
X511240Y816340D01*
X509383Y817765D01*
X507221Y818661D01*
X504900Y818967D01*
D02*
G37*
G36*
X479900D02*
X477579Y818661D01*
X475417Y817765D01*
X473560Y816340D01*
X472135Y814483D01*
X471239Y812321D01*
X470933Y810000D01*
X471239Y807679D01*
X472135Y805517D01*
X473560Y803660D01*
X475417Y802235D01*
X477579Y801339D01*
X479900Y801033D01*
X482221Y801339D01*
X484383Y802235D01*
X486240Y803660D01*
X487665Y805517D01*
X488561Y807679D01*
X488867Y810000D01*
X488561Y812321D01*
X487665Y814483D01*
X486240Y816340D01*
X484383Y817765D01*
X482221Y818661D01*
X479900Y818967D01*
D02*
G37*
G36*
X571250Y778259D02*
Y751250D01*
X598259D01*
X598008Y754436D01*
X596969Y758763D01*
X595267Y762874D01*
X592942Y766668D01*
X590052Y770052D01*
X586668Y772942D01*
X582874Y775267D01*
X578763Y776970D01*
X574436Y778008D01*
X571250Y778259D01*
D02*
G37*
G36*
X568750D02*
X565564Y778008D01*
X561237Y776970D01*
X557126Y775267D01*
X553332Y772942D01*
X549948Y770052D01*
X547058Y766668D01*
X544733Y762874D01*
X543031Y758763D01*
X541992Y754436D01*
X541741Y751250D01*
X568750D01*
Y778259D01*
D02*
G37*
G36*
X598259Y748750D02*
X571250D01*
Y721741D01*
X574436Y721992D01*
X578763Y723030D01*
X582874Y724733D01*
X586668Y727058D01*
X590052Y729948D01*
X592942Y733332D01*
X595267Y737126D01*
X596969Y741237D01*
X598008Y745564D01*
X598259Y748750D01*
D02*
G37*
G36*
X568750D02*
X541741D01*
X541992Y745564D01*
X543031Y741237D01*
X544733Y737126D01*
X547058Y733332D01*
X549948Y729948D01*
X553332Y727058D01*
X557126Y724733D01*
X561237Y723030D01*
X565564Y721992D01*
X568750Y721741D01*
Y748750D01*
D02*
G37*
G36*
X54600Y711589D02*
X53227Y711316D01*
X52062Y710538D01*
X51284Y709373D01*
X51011Y708000D01*
X51284Y706627D01*
X52062Y705462D01*
X53227Y704684D01*
X54600Y704411D01*
X55973Y704684D01*
X57138Y705462D01*
X57916Y706627D01*
X58189Y708000D01*
X57916Y709373D01*
X57138Y710538D01*
X55973Y711316D01*
X54600Y711589D01*
D02*
G37*
G36*
X525850Y705203D02*
Y695250D01*
X535803D01*
X535580Y696942D01*
X534444Y699684D01*
X532638Y702038D01*
X530284Y703844D01*
X527542Y704980D01*
X525850Y705203D01*
D02*
G37*
G36*
X523350D02*
X521658Y704980D01*
X518916Y703844D01*
X516562Y702038D01*
X514756Y699684D01*
X513620Y696942D01*
X513397Y695250D01*
X523350D01*
Y705203D01*
D02*
G37*
G36*
X550000Y704984D02*
X547157Y704610D01*
X544508Y703512D01*
X542233Y701767D01*
X540488Y699492D01*
X539390Y696843D01*
X539016Y694000D01*
X539390Y691157D01*
X540488Y688508D01*
X542233Y686233D01*
X544508Y684488D01*
X547157Y683390D01*
X550000Y683016D01*
X552843Y683390D01*
X555492Y684488D01*
X557767Y686233D01*
X559512Y688508D01*
X560610Y691157D01*
X560984Y694000D01*
X560610Y696843D01*
X559512Y699492D01*
X557767Y701767D01*
X555492Y703512D01*
X552843Y704610D01*
X550000Y704984D01*
D02*
G37*
G36*
X580400Y705005D02*
X570400D01*
X568102Y704548D01*
X566154Y703247D01*
X564852Y701298D01*
X564395Y699000D01*
Y689000D01*
X564852Y686702D01*
X566154Y684754D01*
X568102Y683452D01*
X570400Y682995D01*
X580400D01*
X582698Y683452D01*
X584646Y684754D01*
X585948Y686702D01*
X586405Y689000D01*
Y699000D01*
X585948Y701298D01*
X584646Y703247D01*
X582698Y704548D01*
X580400Y705005D01*
D02*
G37*
G36*
X523350Y692750D02*
X513397D01*
X513620Y691058D01*
X514756Y688316D01*
X516562Y685962D01*
X518916Y684156D01*
X521658Y683020D01*
X523350Y682797D01*
Y692750D01*
D02*
G37*
G36*
X535803D02*
X525850D01*
Y682797D01*
X527542Y683020D01*
X530284Y684156D01*
X532638Y685962D01*
X534444Y688316D01*
X535580Y691058D01*
X535803Y692750D01*
D02*
G37*
G36*
X508750Y684589D02*
X507377Y684316D01*
X506212Y683538D01*
X505434Y682373D01*
X505161Y681000D01*
X505434Y679627D01*
X506212Y678462D01*
X507377Y677684D01*
X508750Y677411D01*
X510123Y677684D01*
X511288Y678462D01*
X512066Y679627D01*
X512339Y681000D01*
X512066Y682373D01*
X511288Y683538D01*
X510123Y684316D01*
X508750Y684589D01*
D02*
G37*
G36*
X508808Y661339D02*
X507435Y661066D01*
X506270Y660288D01*
X505492Y659123D01*
X505219Y657750D01*
X505492Y656377D01*
X506270Y655212D01*
X507435Y654434D01*
X508808Y654161D01*
X510181Y654434D01*
X511346Y655212D01*
X512124Y656377D01*
X512397Y657750D01*
X512124Y659123D01*
X511346Y660288D01*
X510181Y661066D01*
X508808Y661339D01*
D02*
G37*
G36*
X193000Y658089D02*
X191627Y657816D01*
X190462Y657038D01*
X189684Y655873D01*
X189411Y654500D01*
X189684Y653127D01*
X190462Y651962D01*
X191627Y651184D01*
X193000Y650911D01*
X194373Y651184D01*
X195538Y651962D01*
X196316Y653127D01*
X196589Y654500D01*
X196316Y655873D01*
X195538Y657038D01*
X194373Y657816D01*
X193000Y658089D01*
D02*
G37*
G36*
X71500Y644839D02*
X70127Y644566D01*
X68962Y643788D01*
X68184Y642623D01*
X67911Y641250D01*
X68184Y639877D01*
X68962Y638712D01*
X70127Y637934D01*
X71500Y637661D01*
X72873Y637934D01*
X74038Y638712D01*
X74816Y639877D01*
X75089Y641250D01*
X74816Y642623D01*
X74038Y643788D01*
X72873Y644566D01*
X71500Y644839D01*
D02*
G37*
G36*
X74100Y633689D02*
X72727Y633416D01*
X71562Y632638D01*
X70784Y631474D01*
X70511Y630100D01*
X70784Y628727D01*
X71562Y627562D01*
X72727Y626784D01*
X74100Y626511D01*
X75473Y626784D01*
X76638Y627562D01*
X77416Y628727D01*
X77689Y630100D01*
X77416Y631474D01*
X76638Y632638D01*
X75473Y633416D01*
X74100Y633689D01*
D02*
G37*
G36*
X460000Y623589D02*
X458627Y623316D01*
X457462Y622538D01*
X456684Y621373D01*
X456411Y620000D01*
X456684Y618627D01*
X457462Y617462D01*
X458627Y616684D01*
X460000Y616411D01*
X461373Y616684D01*
X462538Y617462D01*
X463316Y618627D01*
X463589Y620000D01*
X463316Y621373D01*
X462538Y622538D01*
X461373Y623316D01*
X460000Y623589D01*
D02*
G37*
G36*
X450000D02*
X448627Y623316D01*
X447462Y622538D01*
X446684Y621373D01*
X446411Y620000D01*
X446684Y618627D01*
X447462Y617462D01*
X448627Y616684D01*
X450000Y616411D01*
X451373Y616684D01*
X452538Y617462D01*
X453316Y618627D01*
X453589Y620000D01*
X453316Y621373D01*
X452538Y622538D01*
X451373Y623316D01*
X450000Y623589D01*
D02*
G37*
G36*
X440000D02*
X438627Y623316D01*
X437462Y622538D01*
X436684Y621373D01*
X436411Y620000D01*
X436684Y618627D01*
X437462Y617462D01*
X438627Y616684D01*
X440000Y616411D01*
X441373Y616684D01*
X442538Y617462D01*
X443316Y618627D01*
X443589Y620000D01*
X443316Y621373D01*
X442538Y622538D01*
X441373Y623316D01*
X440000Y623589D01*
D02*
G37*
G36*
X575000Y631384D02*
X572157Y631010D01*
X569508Y629912D01*
X567233Y628167D01*
X565488Y625892D01*
X564390Y623243D01*
X564016Y620400D01*
X564390Y617557D01*
X565488Y614908D01*
X567233Y612633D01*
X569508Y610888D01*
X572157Y609790D01*
X575000Y609416D01*
X577843Y609790D01*
X580492Y610888D01*
X582767Y612633D01*
X584512Y614908D01*
X585610Y617557D01*
X585984Y620400D01*
X585610Y623243D01*
X584512Y625892D01*
X582767Y628167D01*
X580492Y629912D01*
X577843Y631010D01*
X575000Y631384D01*
D02*
G37*
G36*
X480000Y613589D02*
X478627Y613316D01*
X477462Y612538D01*
X476684Y611373D01*
X476411Y610000D01*
X476684Y608627D01*
X477462Y607462D01*
X478627Y606684D01*
X480000Y606411D01*
X481373Y606684D01*
X482538Y607462D01*
X483316Y608627D01*
X483589Y610000D01*
X483316Y611373D01*
X482538Y612538D01*
X481373Y613316D01*
X480000Y613589D01*
D02*
G37*
G36*
X470000D02*
X468627Y613316D01*
X467462Y612538D01*
X466684Y611373D01*
X466411Y610000D01*
X466684Y608627D01*
X467462Y607462D01*
X468627Y606684D01*
X470000Y606411D01*
X471373Y606684D01*
X472538Y607462D01*
X473316Y608627D01*
X473589Y610000D01*
X473316Y611373D01*
X472538Y612538D01*
X471373Y613316D01*
X470000Y613589D01*
D02*
G37*
G36*
X460000D02*
X458627Y613316D01*
X457462Y612538D01*
X456684Y611373D01*
X456411Y610000D01*
X456684Y608627D01*
X457462Y607462D01*
X458627Y606684D01*
X460000Y606411D01*
X461373Y606684D01*
X462538Y607462D01*
X463316Y608627D01*
X463589Y610000D01*
X463316Y611373D01*
X462538Y612538D01*
X461373Y613316D01*
X460000Y613589D01*
D02*
G37*
G36*
X450000D02*
X448627Y613316D01*
X447462Y612538D01*
X446684Y611373D01*
X446411Y610000D01*
X446684Y608627D01*
X447462Y607462D01*
X448627Y606684D01*
X450000Y606411D01*
X451373Y606684D01*
X452538Y607462D01*
X453316Y608627D01*
X453589Y610000D01*
X453316Y611373D01*
X452538Y612538D01*
X451373Y613316D01*
X450000Y613589D01*
D02*
G37*
G36*
X440000D02*
X438627Y613316D01*
X437462Y612538D01*
X436684Y611373D01*
X436411Y610000D01*
X436684Y608627D01*
X437462Y607462D01*
X438627Y606684D01*
X440000Y606411D01*
X441373Y606684D01*
X442538Y607462D01*
X443316Y608627D01*
X443589Y610000D01*
X443316Y611373D01*
X442538Y612538D01*
X441373Y613316D01*
X440000Y613589D01*
D02*
G37*
G36*
X480000Y603589D02*
X478627Y603316D01*
X477462Y602538D01*
X476684Y601373D01*
X476411Y600000D01*
X476684Y598627D01*
X477462Y597462D01*
X478627Y596684D01*
X480000Y596411D01*
X481373Y596684D01*
X482538Y597462D01*
X483316Y598627D01*
X483589Y600000D01*
X483316Y601373D01*
X482538Y602538D01*
X481373Y603316D01*
X480000Y603589D01*
D02*
G37*
G36*
X470000D02*
X468627Y603316D01*
X467462Y602538D01*
X466684Y601373D01*
X466411Y600000D01*
X466684Y598627D01*
X467462Y597462D01*
X468627Y596684D01*
X470000Y596411D01*
X471373Y596684D01*
X472538Y597462D01*
X473316Y598627D01*
X473589Y600000D01*
X473316Y601373D01*
X472538Y602538D01*
X471373Y603316D01*
X470000Y603589D01*
D02*
G37*
G36*
X460000D02*
X458627Y603316D01*
X457462Y602538D01*
X456684Y601373D01*
X456411Y600000D01*
X456684Y598627D01*
X457462Y597462D01*
X458627Y596684D01*
X460000Y596411D01*
X461373Y596684D01*
X462538Y597462D01*
X463316Y598627D01*
X463589Y600000D01*
X463316Y601373D01*
X462538Y602538D01*
X461373Y603316D01*
X460000Y603589D01*
D02*
G37*
G36*
X450000D02*
X448627Y603316D01*
X447462Y602538D01*
X446684Y601373D01*
X446411Y600000D01*
X446684Y598627D01*
X447462Y597462D01*
X448627Y596684D01*
X450000Y596411D01*
X451373Y596684D01*
X452538Y597462D01*
X453316Y598627D01*
X453589Y600000D01*
X453316Y601373D01*
X452538Y602538D01*
X451373Y603316D01*
X450000Y603589D01*
D02*
G37*
G36*
X440000D02*
X438627Y603316D01*
X437462Y602538D01*
X436684Y601373D01*
X436411Y600000D01*
X436684Y598627D01*
X437462Y597462D01*
X438627Y596684D01*
X440000Y596411D01*
X441373Y596684D01*
X442538Y597462D01*
X443316Y598627D01*
X443589Y600000D01*
X443316Y601373D01*
X442538Y602538D01*
X441373Y603316D01*
X440000Y603589D01*
D02*
G37*
G36*
X406000Y594589D02*
X404627Y594316D01*
X403462Y593538D01*
X402684Y592373D01*
X402411Y591000D01*
X402684Y589627D01*
X403462Y588462D01*
X404627Y587684D01*
X406000Y587411D01*
X407373Y587684D01*
X408538Y588462D01*
X409316Y589627D01*
X409589Y591000D01*
X409316Y592373D01*
X408538Y593538D01*
X407373Y594316D01*
X406000Y594589D01*
D02*
G37*
G36*
X480000Y593589D02*
X478627Y593316D01*
X477462Y592538D01*
X476684Y591373D01*
X476411Y590000D01*
X476684Y588627D01*
X477462Y587462D01*
X478627Y586684D01*
X480000Y586411D01*
X481373Y586684D01*
X482538Y587462D01*
X483316Y588627D01*
X483589Y590000D01*
X483316Y591373D01*
X482538Y592538D01*
X481373Y593316D01*
X480000Y593589D01*
D02*
G37*
G36*
X470000D02*
X468627Y593316D01*
X467462Y592538D01*
X466684Y591373D01*
X466411Y590000D01*
X466684Y588627D01*
X467462Y587462D01*
X468627Y586684D01*
X470000Y586411D01*
X471373Y586684D01*
X472538Y587462D01*
X473316Y588627D01*
X473589Y590000D01*
X473316Y591373D01*
X472538Y592538D01*
X471373Y593316D01*
X470000Y593589D01*
D02*
G37*
G36*
X460000D02*
X458627Y593316D01*
X457462Y592538D01*
X456684Y591373D01*
X456411Y590000D01*
X456684Y588627D01*
X457462Y587462D01*
X458627Y586684D01*
X460000Y586411D01*
X461373Y586684D01*
X462538Y587462D01*
X463316Y588627D01*
X463589Y590000D01*
X463316Y591373D01*
X462538Y592538D01*
X461373Y593316D01*
X460000Y593589D01*
D02*
G37*
G36*
X450000D02*
X448627Y593316D01*
X447462Y592538D01*
X446684Y591373D01*
X446411Y590000D01*
X446684Y588627D01*
X447462Y587462D01*
X448627Y586684D01*
X450000Y586411D01*
X451373Y586684D01*
X452538Y587462D01*
X453316Y588627D01*
X453589Y590000D01*
X453316Y591373D01*
X452538Y592538D01*
X451373Y593316D01*
X450000Y593589D01*
D02*
G37*
G36*
X440000D02*
X438627Y593316D01*
X437462Y592538D01*
X436684Y591373D01*
X436411Y590000D01*
X436684Y588627D01*
X437462Y587462D01*
X438627Y586684D01*
X440000Y586411D01*
X441373Y586684D01*
X442538Y587462D01*
X443316Y588627D01*
X443589Y590000D01*
X443316Y591373D01*
X442538Y592538D01*
X441373Y593316D01*
X440000Y593589D01*
D02*
G37*
G36*
X394000Y593089D02*
X392627Y592816D01*
X391462Y592038D01*
X390684Y590873D01*
X390411Y589500D01*
X390684Y588127D01*
X391462Y586962D01*
X392627Y586184D01*
X394000Y585911D01*
X395373Y586184D01*
X396538Y586962D01*
X397316Y588127D01*
X397589Y589500D01*
X397316Y590873D01*
X396538Y592038D01*
X395373Y592816D01*
X394000Y593089D01*
D02*
G37*
G36*
X371500Y592839D02*
X370127Y592566D01*
X368962Y591788D01*
X368184Y590623D01*
X367911Y589250D01*
X368184Y587877D01*
X368962Y586712D01*
X370127Y585934D01*
X371500Y585661D01*
X372873Y585934D01*
X374038Y586712D01*
X374816Y587877D01*
X375089Y589250D01*
X374816Y590623D01*
X374038Y591788D01*
X372873Y592566D01*
X371500Y592839D01*
D02*
G37*
G36*
X575000Y605984D02*
X572157Y605610D01*
X569508Y604512D01*
X567233Y602767D01*
X565488Y600492D01*
X564390Y597843D01*
X564016Y595000D01*
X564390Y592157D01*
X565488Y589508D01*
X567233Y587233D01*
X569508Y585488D01*
X572157Y584390D01*
X575000Y584016D01*
X577843Y584390D01*
X580492Y585488D01*
X582767Y587233D01*
X584512Y589508D01*
X585610Y592157D01*
X585984Y595000D01*
X585610Y597843D01*
X584512Y600492D01*
X582767Y602767D01*
X580492Y604512D01*
X577843Y605610D01*
X575000Y605984D01*
D02*
G37*
G36*
X480000Y583589D02*
X478627Y583316D01*
X477462Y582538D01*
X476684Y581373D01*
X476411Y580000D01*
X476684Y578627D01*
X477462Y577462D01*
X478627Y576684D01*
X480000Y576411D01*
X481373Y576684D01*
X482538Y577462D01*
X483316Y578627D01*
X483589Y580000D01*
X483316Y581373D01*
X482538Y582538D01*
X481373Y583316D01*
X480000Y583589D01*
D02*
G37*
G36*
X470000D02*
X468627Y583316D01*
X467462Y582538D01*
X466684Y581373D01*
X466411Y580000D01*
X466684Y578627D01*
X467462Y577462D01*
X468627Y576684D01*
X470000Y576411D01*
X471373Y576684D01*
X472538Y577462D01*
X473316Y578627D01*
X473589Y580000D01*
X473316Y581373D01*
X472538Y582538D01*
X471373Y583316D01*
X470000Y583589D01*
D02*
G37*
G36*
X460000D02*
X458627Y583316D01*
X457462Y582538D01*
X456684Y581373D01*
X456411Y580000D01*
X456684Y578627D01*
X457462Y577462D01*
X458627Y576684D01*
X460000Y576411D01*
X461373Y576684D01*
X462538Y577462D01*
X463316Y578627D01*
X463589Y580000D01*
X463316Y581373D01*
X462538Y582538D01*
X461373Y583316D01*
X460000Y583589D01*
D02*
G37*
G36*
X450000D02*
X448627Y583316D01*
X447462Y582538D01*
X446684Y581373D01*
X446411Y580000D01*
X446684Y578627D01*
X447462Y577462D01*
X448627Y576684D01*
X450000Y576411D01*
X451373Y576684D01*
X452538Y577462D01*
X453316Y578627D01*
X453589Y580000D01*
X453316Y581373D01*
X452538Y582538D01*
X451373Y583316D01*
X450000Y583589D01*
D02*
G37*
G36*
X480000Y573589D02*
X478627Y573316D01*
X477462Y572538D01*
X476684Y571373D01*
X476411Y570000D01*
X476684Y568627D01*
X477462Y567462D01*
X478627Y566684D01*
X480000Y566411D01*
X481373Y566684D01*
X482538Y567462D01*
X483316Y568627D01*
X483589Y570000D01*
X483316Y571373D01*
X482538Y572538D01*
X481373Y573316D01*
X480000Y573589D01*
D02*
G37*
G36*
X470000D02*
X468627Y573316D01*
X467462Y572538D01*
X466684Y571373D01*
X466411Y570000D01*
X466684Y568627D01*
X467462Y567462D01*
X468627Y566684D01*
X470000Y566411D01*
X471373Y566684D01*
X472538Y567462D01*
X473316Y568627D01*
X473589Y570000D01*
X473316Y571373D01*
X472538Y572538D01*
X471373Y573316D01*
X470000Y573589D01*
D02*
G37*
G36*
X460000D02*
X458627Y573316D01*
X457462Y572538D01*
X456684Y571373D01*
X456411Y570000D01*
X456684Y568627D01*
X457462Y567462D01*
X458627Y566684D01*
X460000Y566411D01*
X461373Y566684D01*
X462538Y567462D01*
X463316Y568627D01*
X463589Y570000D01*
X463316Y571373D01*
X462538Y572538D01*
X461373Y573316D01*
X460000Y573589D01*
D02*
G37*
G36*
X580000Y580605D02*
X570000D01*
X567702Y580148D01*
X565754Y578847D01*
X564452Y576898D01*
X563995Y574600D01*
Y564600D01*
X564452Y562302D01*
X565754Y560354D01*
X567702Y559052D01*
X570000Y558595D01*
X580000D01*
X582298Y559052D01*
X584246Y560354D01*
X585548Y562302D01*
X586005Y564600D01*
Y574600D01*
X585548Y576898D01*
X584246Y578847D01*
X582298Y580148D01*
X580000Y580605D01*
D02*
G37*
G36*
X503250Y555603D02*
Y545650D01*
X513203D01*
X512980Y547342D01*
X511844Y550084D01*
X510038Y552438D01*
X507684Y554244D01*
X504942Y555380D01*
X503250Y555603D01*
D02*
G37*
G36*
X500750D02*
X499058Y555380D01*
X496316Y554244D01*
X493962Y552438D01*
X492156Y550084D01*
X491020Y547342D01*
X490797Y545650D01*
X500750D01*
Y555603D01*
D02*
G37*
G36*
X399000Y540089D02*
X397626Y539816D01*
X396462Y539038D01*
X395684Y537873D01*
X395647Y537688D01*
X394352D01*
X394315Y537873D01*
X393538Y539038D01*
X392373Y539816D01*
X391000Y540089D01*
X389626Y539816D01*
X388462Y539038D01*
X387684Y537873D01*
X387647Y537688D01*
X386352D01*
X386316Y537873D01*
X385538Y539038D01*
X384373Y539816D01*
X383000Y540089D01*
X381626Y539816D01*
X380462Y539038D01*
X379684Y537873D01*
X379647Y537688D01*
X378352D01*
X378316Y537873D01*
X377538Y539038D01*
X376373Y539816D01*
X375000Y540089D01*
X373626Y539816D01*
X372462Y539038D01*
X371684Y537873D01*
X371411Y536500D01*
X371684Y535127D01*
X372462Y533962D01*
X373626Y533184D01*
X375000Y532911D01*
X376373Y533184D01*
X377538Y533962D01*
X378316Y535127D01*
X378352Y535312D01*
X379647D01*
X379684Y535127D01*
X380462Y533962D01*
X381626Y533184D01*
X383000Y532911D01*
X384373Y533184D01*
X385538Y533962D01*
X386316Y535127D01*
X386352Y535312D01*
X387647D01*
X387684Y535127D01*
X388462Y533962D01*
X389626Y533184D01*
X391000Y532911D01*
X392373Y533184D01*
X393538Y533962D01*
X394315Y535127D01*
X394352Y535312D01*
X395647D01*
X395684Y535127D01*
X396462Y533962D01*
X397626Y533184D01*
X399000Y532911D01*
X400373Y533184D01*
X401538Y533962D01*
X402315Y535127D01*
X402589Y536500D01*
X402315Y537873D01*
X401538Y539038D01*
X400373Y539816D01*
X399000Y540089D01*
D02*
G37*
G36*
X319000D02*
X317626Y539816D01*
X316462Y539038D01*
X315684Y537873D01*
X315647Y537688D01*
X314352D01*
X314315Y537873D01*
X313538Y539038D01*
X312373Y539816D01*
X311000Y540089D01*
X309626Y539816D01*
X308462Y539038D01*
X307684Y537873D01*
X307647Y537688D01*
X306352D01*
X306315Y537873D01*
X305538Y539038D01*
X304373Y539816D01*
X303000Y540089D01*
X301626Y539816D01*
X300462Y539038D01*
X299684Y537873D01*
X299411Y536500D01*
X299684Y535127D01*
X300462Y533962D01*
X301626Y533184D01*
X303000Y532911D01*
X304373Y533184D01*
X305538Y533962D01*
X306315Y535127D01*
X306352Y535312D01*
X307647D01*
X307684Y535127D01*
X308462Y533962D01*
X309626Y533184D01*
X311000Y532911D01*
X312373Y533184D01*
X313538Y533962D01*
X314315Y535127D01*
X314352Y535312D01*
X315647D01*
X315684Y535127D01*
X316462Y533962D01*
X317626Y533184D01*
X319000Y532911D01*
X320373Y533184D01*
X321538Y533962D01*
X322315Y535127D01*
X322589Y536500D01*
X322315Y537873D01*
X321538Y539038D01*
X320373Y539816D01*
X319000Y540089D01*
D02*
G37*
G36*
X287000D02*
X285626Y539816D01*
X284462Y539038D01*
X283684Y537873D01*
X283647Y537688D01*
X282352D01*
X282316Y537873D01*
X281538Y539038D01*
X280373Y539816D01*
X279000Y540089D01*
X277626Y539816D01*
X276462Y539038D01*
X275684Y537873D01*
X275647Y537688D01*
X274352D01*
X274316Y537873D01*
X273538Y539038D01*
X272373Y539816D01*
X271000Y540089D01*
X269626Y539816D01*
X268462Y539038D01*
X267684Y537873D01*
X267411Y536500D01*
X267684Y535127D01*
X268462Y533962D01*
X269626Y533184D01*
X271000Y532911D01*
X272373Y533184D01*
X273538Y533962D01*
X274316Y535127D01*
X274352Y535312D01*
X275647D01*
X275684Y535127D01*
X276462Y533962D01*
X277626Y533184D01*
X279000Y532911D01*
X280373Y533184D01*
X281538Y533962D01*
X282316Y535127D01*
X282352Y535312D01*
X283647D01*
X283684Y535127D01*
X284462Y533962D01*
X285626Y533184D01*
X287000Y532911D01*
X288373Y533184D01*
X289538Y533962D01*
X290316Y535127D01*
X290589Y536500D01*
X290316Y537873D01*
X289538Y539038D01*
X288373Y539816D01*
X287000Y540089D01*
D02*
G37*
G36*
X255000D02*
X253626Y539816D01*
X252462Y539038D01*
X251684Y537873D01*
X251647Y537688D01*
X250352D01*
X250316Y537873D01*
X249538Y539038D01*
X248373Y539816D01*
X247000Y540089D01*
X245627Y539816D01*
X244462Y539038D01*
X243684Y537873D01*
X243647Y537688D01*
X242353D01*
X242316Y537873D01*
X241538Y539038D01*
X240373Y539816D01*
X239000Y540089D01*
X237626Y539816D01*
X236462Y539038D01*
X235684Y537873D01*
X235647Y537688D01*
X234352D01*
X234316Y537873D01*
X233538Y539038D01*
X232373Y539816D01*
X231000Y540089D01*
X229627Y539816D01*
X228462Y539038D01*
X227684Y537873D01*
X227647Y537688D01*
X226353D01*
X226316Y537873D01*
X225538Y539038D01*
X224373Y539816D01*
X223000Y540089D01*
X221626Y539816D01*
X220462Y539038D01*
X219684Y537873D01*
X219647Y537688D01*
X218353D01*
X218316Y537873D01*
X217538Y539038D01*
X216373Y539816D01*
X215000Y540089D01*
X213626Y539816D01*
X212462Y539038D01*
X211684Y537873D01*
X211647Y537688D01*
X210352D01*
X210316Y537873D01*
X209538Y539038D01*
X208373Y539816D01*
X207000Y540089D01*
X205627Y539816D01*
X204462Y539038D01*
X203684Y537873D01*
X203647Y537688D01*
X202353D01*
X202316Y537873D01*
X201538Y539038D01*
X200373Y539816D01*
X199000Y540089D01*
X197627Y539816D01*
X196462Y539038D01*
X195684Y537873D01*
X195411Y536500D01*
X195684Y535127D01*
X196462Y533962D01*
X197627Y533184D01*
X199000Y532911D01*
X200373Y533184D01*
X201538Y533962D01*
X202316Y535127D01*
X202353Y535312D01*
X203647D01*
X203684Y535127D01*
X204462Y533962D01*
X205627Y533184D01*
X207000Y532911D01*
X208373Y533184D01*
X209538Y533962D01*
X210316Y535127D01*
X210352Y535312D01*
X211647D01*
X211684Y535127D01*
X212462Y533962D01*
X213626Y533184D01*
X215000Y532911D01*
X216373Y533184D01*
X217538Y533962D01*
X218316Y535127D01*
X218353Y535312D01*
X219647D01*
X219684Y535127D01*
X220462Y533962D01*
X221626Y533184D01*
X223000Y532911D01*
X224373Y533184D01*
X225538Y533962D01*
X226316Y535127D01*
X226353Y535312D01*
X227647D01*
X227684Y535127D01*
X228462Y533962D01*
X229627Y533184D01*
X231000Y532911D01*
X232373Y533184D01*
X233538Y533962D01*
X234316Y535127D01*
X234352Y535312D01*
X235647D01*
X235684Y535127D01*
X236462Y533962D01*
X237626Y533184D01*
X239000Y532911D01*
X240373Y533184D01*
X241538Y533962D01*
X242316Y535127D01*
X242353Y535312D01*
X243647D01*
X243684Y535127D01*
X244462Y533962D01*
X245627Y533184D01*
X247000Y532911D01*
X248373Y533184D01*
X249538Y533962D01*
X250316Y535127D01*
X250352Y535312D01*
X251647D01*
X251684Y535127D01*
X252462Y533962D01*
X253626Y533184D01*
X255000Y532911D01*
X256373Y533184D01*
X257538Y533962D01*
X258316Y535127D01*
X258589Y536500D01*
X258316Y537873D01*
X257538Y539038D01*
X256373Y539816D01*
X255000Y540089D01*
D02*
G37*
G36*
X431500Y544589D02*
X430127Y544316D01*
X428962Y543538D01*
X428184Y542373D01*
X427911Y541000D01*
X428184Y539627D01*
X428962Y538462D01*
X430127Y537684D01*
X431500Y537411D01*
X432873Y537684D01*
X434038Y538462D01*
X434816Y539627D01*
X435089Y541000D01*
X434816Y542373D01*
X434038Y543538D01*
X432873Y544316D01*
X431500Y544589D01*
D02*
G37*
G36*
X500750Y543150D02*
X490797D01*
X491020Y541458D01*
X492156Y538716D01*
X493962Y536362D01*
X496316Y534556D01*
X499058Y533420D01*
X500750Y533197D01*
Y543150D01*
D02*
G37*
G36*
X513203D02*
X503250D01*
Y533197D01*
X504942Y533420D01*
X507684Y534556D01*
X510038Y536362D01*
X511844Y538716D01*
X512980Y541458D01*
X513203Y543150D01*
D02*
G37*
G36*
X61250Y531203D02*
Y521250D01*
X71203D01*
X70980Y522942D01*
X69844Y525684D01*
X68038Y528038D01*
X65684Y529844D01*
X62942Y530980D01*
X61250Y531203D01*
D02*
G37*
G36*
X35850D02*
Y521250D01*
X45803D01*
X45580Y522942D01*
X44444Y525684D01*
X42638Y528038D01*
X40284Y529844D01*
X37542Y530980D01*
X35850Y531203D01*
D02*
G37*
G36*
X58750D02*
X57058Y530980D01*
X54316Y529844D01*
X51962Y528038D01*
X50156Y525684D01*
X49020Y522942D01*
X48797Y521250D01*
X58750D01*
Y531203D01*
D02*
G37*
G36*
X33350D02*
X31658Y530980D01*
X28916Y529844D01*
X26562Y528038D01*
X24756Y525684D01*
X23620Y522942D01*
X23397Y521250D01*
X33350D01*
Y531203D01*
D02*
G37*
G36*
X575400Y530984D02*
X572557Y530610D01*
X569908Y529512D01*
X567633Y527767D01*
X565888Y525492D01*
X564790Y522843D01*
X564416Y520000D01*
X564790Y517157D01*
X565888Y514508D01*
X567633Y512233D01*
X569908Y510488D01*
X572557Y509390D01*
X575400Y509016D01*
X578243Y509390D01*
X580892Y510488D01*
X583167Y512233D01*
X584912Y514508D01*
X586010Y517157D01*
X586384Y520000D01*
X586010Y522843D01*
X584912Y525492D01*
X583167Y527767D01*
X580892Y529512D01*
X578243Y530610D01*
X575400Y530984D01*
D02*
G37*
G36*
X555000Y531005D02*
X545000D01*
X542702Y530548D01*
X540754Y529246D01*
X539452Y527298D01*
X538995Y525000D01*
Y515000D01*
X539452Y512702D01*
X540754Y510754D01*
X542702Y509452D01*
X545000Y508995D01*
X555000D01*
X557298Y509452D01*
X559246Y510754D01*
X560548Y512702D01*
X561005Y515000D01*
Y525000D01*
X560548Y527298D01*
X559246Y529246D01*
X557298Y530548D01*
X555000Y531005D01*
D02*
G37*
G36*
X58750Y518750D02*
X48797D01*
X49020Y517058D01*
X50156Y514316D01*
X51962Y511962D01*
X54316Y510156D01*
X57058Y509020D01*
X58750Y508797D01*
Y518750D01*
D02*
G37*
G36*
X33350D02*
X23397D01*
X23620Y517058D01*
X24756Y514316D01*
X26562Y511962D01*
X28916Y510156D01*
X31658Y509020D01*
X33350Y508797D01*
Y518750D01*
D02*
G37*
G36*
X71203D02*
X61250D01*
Y508797D01*
X62942Y509020D01*
X65684Y510156D01*
X68038Y511962D01*
X69844Y514316D01*
X70980Y517058D01*
X71203Y518750D01*
D02*
G37*
G36*
X45803D02*
X35850D01*
Y508797D01*
X37542Y509020D01*
X40284Y510156D01*
X42638Y511962D01*
X44444Y514316D01*
X45580Y517058D01*
X45803Y518750D01*
D02*
G37*
G36*
X502000Y529984D02*
X499157Y529610D01*
X496508Y528512D01*
X494233Y526767D01*
X492488Y524492D01*
X491390Y521843D01*
X491016Y519000D01*
X491390Y516157D01*
X492488Y513508D01*
X494233Y511233D01*
X496508Y509488D01*
X499157Y508390D01*
X502000Y508016D01*
X504843Y508390D01*
X507492Y509488D01*
X509767Y511233D01*
X511512Y513508D01*
X512610Y516157D01*
X512984Y519000D01*
X512610Y521843D01*
X511512Y524492D01*
X509767Y526767D01*
X507492Y528512D01*
X504843Y529610D01*
X502000Y529984D01*
D02*
G37*
G36*
X181000Y509839D02*
X179627Y509566D01*
X178462Y508788D01*
X177684Y507623D01*
X177411Y506250D01*
X177684Y504877D01*
X178462Y503712D01*
X179627Y502934D01*
X181000Y502661D01*
X182373Y502934D01*
X183538Y503712D01*
X184316Y504877D01*
X184589Y506250D01*
X184316Y507623D01*
X183538Y508788D01*
X182373Y509566D01*
X181000Y509839D01*
D02*
G37*
G36*
X327000Y502839D02*
X325627Y502566D01*
X324462Y501788D01*
X323684Y500623D01*
X323411Y499250D01*
X323684Y497877D01*
X324462Y496712D01*
X325220Y496206D01*
X325248Y496127D01*
Y494873D01*
X325220Y494794D01*
X324462Y494288D01*
X323684Y493123D01*
X323411Y491750D01*
X323684Y490377D01*
X324462Y489212D01*
X325627Y488434D01*
X327000Y488161D01*
X328373Y488434D01*
X329538Y489212D01*
X330316Y490377D01*
X330589Y491750D01*
X330316Y493123D01*
X329538Y494288D01*
X328779Y494794D01*
X328751Y494873D01*
Y496127D01*
X328779Y496206D01*
X329538Y496712D01*
X330316Y497877D01*
X330589Y499250D01*
X330316Y500623D01*
X329538Y501788D01*
X328373Y502566D01*
X327000Y502839D01*
D02*
G37*
G36*
X575400Y505584D02*
X572557Y505210D01*
X569908Y504112D01*
X567633Y502367D01*
X565888Y500092D01*
X564790Y497443D01*
X564416Y494600D01*
X564790Y491757D01*
X565888Y489108D01*
X567633Y486833D01*
X569908Y485088D01*
X572557Y483990D01*
X575400Y483616D01*
X578243Y483990D01*
X580892Y485088D01*
X583167Y486833D01*
X584912Y489108D01*
X586010Y491757D01*
X586384Y494600D01*
X586010Y497443D01*
X584912Y500092D01*
X583167Y502367D01*
X580892Y504112D01*
X578243Y505210D01*
X575400Y505584D01*
D02*
G37*
G36*
X550000D02*
X547157Y505210D01*
X544508Y504112D01*
X542233Y502367D01*
X540488Y500092D01*
X539390Y497443D01*
X539016Y494600D01*
X539390Y491757D01*
X540488Y489108D01*
X542233Y486833D01*
X544508Y485088D01*
X547157Y483990D01*
X550000Y483616D01*
X552843Y483990D01*
X555492Y485088D01*
X557767Y486833D01*
X559512Y489108D01*
X560610Y491757D01*
X560984Y494600D01*
X560610Y497443D01*
X559512Y500092D01*
X557767Y502367D01*
X555492Y504112D01*
X552843Y505210D01*
X550000Y505584D01*
D02*
G37*
G36*
X60000D02*
X57157Y505210D01*
X54508Y504112D01*
X52233Y502367D01*
X50488Y500092D01*
X49390Y497443D01*
X49016Y494600D01*
X49390Y491757D01*
X50488Y489108D01*
X52233Y486833D01*
X54508Y485088D01*
X57157Y483990D01*
X60000Y483616D01*
X62843Y483990D01*
X65492Y485088D01*
X67767Y486833D01*
X69512Y489108D01*
X70610Y491757D01*
X70984Y494600D01*
X70610Y497443D01*
X69512Y500092D01*
X67767Y502367D01*
X65492Y504112D01*
X62843Y505210D01*
X60000Y505584D01*
D02*
G37*
G36*
X34600D02*
X31757Y505210D01*
X29108Y504112D01*
X26833Y502367D01*
X25088Y500092D01*
X23990Y497443D01*
X23616Y494600D01*
X23990Y491757D01*
X25088Y489108D01*
X26833Y486833D01*
X29108Y485088D01*
X31757Y483990D01*
X34600Y483616D01*
X37443Y483990D01*
X40092Y485088D01*
X42367Y486833D01*
X44112Y489108D01*
X45210Y491757D01*
X45584Y494600D01*
X45210Y497443D01*
X44112Y500092D01*
X42367Y502367D01*
X40092Y504112D01*
X37443Y505210D01*
X34600Y505584D01*
D02*
G37*
G36*
X507000Y504605D02*
X497000D01*
X494702Y504148D01*
X492753Y502846D01*
X491452Y500898D01*
X490995Y498600D01*
Y488600D01*
X491452Y486302D01*
X492753Y484353D01*
X494702Y483052D01*
X497000Y482595D01*
X507000D01*
X509298Y483052D01*
X511246Y484353D01*
X512548Y486302D01*
X513005Y488600D01*
Y498600D01*
X512548Y500898D01*
X511246Y502846D01*
X509298Y504148D01*
X507000Y504605D01*
D02*
G37*
G36*
X180000Y486515D02*
X177507Y486019D01*
X175393Y484607D01*
X173981Y482493D01*
X173485Y480000D01*
X173981Y477507D01*
X175393Y475393D01*
X177507Y473981D01*
X180000Y473485D01*
X182493Y473981D01*
X184607Y475393D01*
X186019Y477507D01*
X186515Y480000D01*
X186019Y482493D01*
X184607Y484607D01*
X182493Y486019D01*
X180000Y486515D01*
D02*
G37*
G36*
X430000Y488967D02*
X427679Y488661D01*
X425517Y487765D01*
X423660Y486340D01*
X422235Y484483D01*
X421339Y482321D01*
X421033Y480000D01*
X421339Y477679D01*
X422235Y475517D01*
X423660Y473660D01*
X425517Y472235D01*
X427679Y471339D01*
X430000Y471033D01*
X432321Y471339D01*
X434483Y472235D01*
X436340Y473660D01*
X437765Y475517D01*
X438661Y477679D01*
X438967Y480000D01*
X438661Y482321D01*
X437765Y484483D01*
X436340Y486340D01*
X434483Y487765D01*
X432321Y488661D01*
X430000Y488967D01*
D02*
G37*
G36*
X61250Y480403D02*
Y470450D01*
X71203D01*
X70980Y472142D01*
X69844Y474884D01*
X68038Y477238D01*
X65684Y479044D01*
X62942Y480180D01*
X61250Y480403D01*
D02*
G37*
G36*
X58750D02*
X57058Y480180D01*
X54316Y479044D01*
X51962Y477238D01*
X50156Y474884D01*
X49020Y472142D01*
X48797Y470450D01*
X58750D01*
Y480403D01*
D02*
G37*
G36*
X576650D02*
Y470450D01*
X586603D01*
X586380Y472142D01*
X585244Y474884D01*
X583438Y477238D01*
X581084Y479044D01*
X578342Y480180D01*
X576650Y480403D01*
D02*
G37*
G36*
X551250D02*
Y470450D01*
X561203D01*
X560980Y472142D01*
X559844Y474884D01*
X558038Y477238D01*
X555684Y479044D01*
X552942Y480180D01*
X551250Y480403D01*
D02*
G37*
G36*
X548750D02*
X547058Y480180D01*
X544316Y479044D01*
X541962Y477238D01*
X540156Y474884D01*
X539020Y472142D01*
X538797Y470450D01*
X548750D01*
Y480403D01*
D02*
G37*
G36*
X574150D02*
X572458Y480180D01*
X569716Y479044D01*
X567362Y477238D01*
X565556Y474884D01*
X564420Y472142D01*
X564197Y470450D01*
X574150D01*
Y480403D01*
D02*
G37*
G36*
X34600Y480184D02*
X31757Y479810D01*
X29108Y478712D01*
X26833Y476967D01*
X25088Y474692D01*
X23990Y472043D01*
X23616Y469200D01*
X23990Y466357D01*
X25088Y463708D01*
X26833Y461433D01*
X29108Y459688D01*
X31757Y458590D01*
X34600Y458216D01*
X37443Y458590D01*
X40092Y459688D01*
X42367Y461433D01*
X44112Y463708D01*
X45210Y466357D01*
X45584Y469200D01*
X45210Y472043D01*
X44112Y474692D01*
X42367Y476967D01*
X40092Y478712D01*
X37443Y479810D01*
X34600Y480184D01*
D02*
G37*
G36*
X58750Y467950D02*
X48797D01*
X49020Y466258D01*
X50156Y463516D01*
X51962Y461162D01*
X54316Y459356D01*
X57058Y458220D01*
X58750Y457997D01*
Y467950D01*
D02*
G37*
G36*
X586603Y467950D02*
X576650D01*
Y457997D01*
X578342Y458220D01*
X581084Y459356D01*
X583438Y461162D01*
X585244Y463516D01*
X586380Y466258D01*
X586603Y467950D01*
D02*
G37*
G36*
X561203D02*
X551250D01*
Y457997D01*
X552942Y458220D01*
X555684Y459356D01*
X558038Y461162D01*
X559844Y463516D01*
X560980Y466258D01*
X561203Y467950D01*
D02*
G37*
G36*
X574150D02*
X564197D01*
X564420Y466258D01*
X565556Y463516D01*
X567362Y461162D01*
X569716Y459356D01*
X572458Y458220D01*
X574150Y457997D01*
Y467950D01*
D02*
G37*
G36*
X548750D02*
X538797D01*
X539020Y466258D01*
X540156Y463516D01*
X541962Y461162D01*
X544316Y459356D01*
X547058Y458220D01*
X548750Y457997D01*
Y467950D01*
D02*
G37*
G36*
X71203Y467950D02*
X61250D01*
Y457997D01*
X62942Y458220D01*
X65684Y459356D01*
X68038Y461162D01*
X69844Y463516D01*
X70980Y466258D01*
X71203Y467950D01*
D02*
G37*
G36*
X61250Y455003D02*
Y445050D01*
X71203D01*
X70980Y446742D01*
X69844Y449484D01*
X68038Y451838D01*
X65684Y453644D01*
X62942Y454780D01*
X61250Y455003D01*
D02*
G37*
G36*
X35850D02*
Y445050D01*
X45803D01*
X45580Y446742D01*
X44444Y449484D01*
X42638Y451838D01*
X40284Y453644D01*
X37542Y454780D01*
X35850Y455003D01*
D02*
G37*
G36*
X58750D02*
X57058Y454780D01*
X54316Y453644D01*
X51962Y451838D01*
X50156Y449484D01*
X49020Y446742D01*
X48797Y445050D01*
X58750D01*
Y455003D01*
D02*
G37*
G36*
X33350D02*
X31658Y454780D01*
X28916Y453644D01*
X26562Y451838D01*
X24756Y449484D01*
X23620Y446742D01*
X23397Y445050D01*
X33350D01*
Y455003D01*
D02*
G37*
G36*
X575400Y454784D02*
X572557Y454410D01*
X569908Y453312D01*
X567633Y451567D01*
X565888Y449292D01*
X564790Y446643D01*
X564416Y443800D01*
X564790Y440957D01*
X565888Y438308D01*
X567633Y436033D01*
X569908Y434288D01*
X572557Y433190D01*
X575400Y432816D01*
X578243Y433190D01*
X580892Y434288D01*
X583167Y436033D01*
X584912Y438308D01*
X586010Y440957D01*
X586384Y443800D01*
X586010Y446643D01*
X584912Y449292D01*
X583167Y451567D01*
X580892Y453312D01*
X578243Y454410D01*
X575400Y454784D01*
D02*
G37*
G36*
X550000D02*
X547157Y454410D01*
X544508Y453312D01*
X542233Y451567D01*
X540488Y449292D01*
X539390Y446643D01*
X539016Y443800D01*
X539390Y440957D01*
X540488Y438308D01*
X542233Y436033D01*
X544508Y434288D01*
X547157Y433190D01*
X550000Y432816D01*
X552843Y433190D01*
X555492Y434288D01*
X557767Y436033D01*
X559512Y438308D01*
X560610Y440957D01*
X560984Y443800D01*
X560610Y446643D01*
X559512Y449292D01*
X557767Y451567D01*
X555492Y453312D01*
X552843Y454410D01*
X550000Y454784D01*
D02*
G37*
G36*
X58750Y442550D02*
X48797D01*
X49020Y440858D01*
X50156Y438116D01*
X51962Y435762D01*
X54316Y433956D01*
X57058Y432820D01*
X58750Y432597D01*
Y442550D01*
D02*
G37*
G36*
X33350D02*
X23397D01*
X23620Y440858D01*
X24756Y438116D01*
X26562Y435762D01*
X28916Y433956D01*
X31658Y432820D01*
X33350Y432597D01*
Y442550D01*
D02*
G37*
G36*
X71203D02*
X61250D01*
Y432597D01*
X62942Y432820D01*
X65684Y433956D01*
X68038Y435762D01*
X69844Y438116D01*
X70980Y440858D01*
X71203Y442550D01*
D02*
G37*
G36*
X45803D02*
X35850D01*
Y432597D01*
X37542Y432820D01*
X40284Y433956D01*
X42638Y435762D01*
X44444Y438116D01*
X45580Y440858D01*
X45803Y442550D01*
D02*
G37*
G36*
X575400Y429384D02*
X572557Y429010D01*
X569908Y427912D01*
X567633Y426167D01*
X565888Y423892D01*
X564790Y421243D01*
X564416Y418400D01*
X564790Y415557D01*
X565888Y412908D01*
X567633Y410633D01*
X569908Y408888D01*
X572557Y407790D01*
X575400Y407416D01*
X578243Y407790D01*
X580892Y408888D01*
X583167Y410633D01*
X584912Y412908D01*
X586010Y415557D01*
X586384Y418400D01*
X586010Y421243D01*
X584912Y423892D01*
X583167Y426167D01*
X580892Y427912D01*
X578243Y429010D01*
X575400Y429384D01*
D02*
G37*
G36*
X550000D02*
X547157Y429010D01*
X544508Y427912D01*
X542233Y426167D01*
X540488Y423892D01*
X539390Y421243D01*
X539016Y418400D01*
X539390Y415557D01*
X540488Y412908D01*
X542233Y410633D01*
X544508Y408888D01*
X547157Y407790D01*
X550000Y407416D01*
X552843Y407790D01*
X555492Y408888D01*
X557767Y410633D01*
X559512Y412908D01*
X560610Y415557D01*
X560984Y418400D01*
X560610Y421243D01*
X559512Y423892D01*
X557767Y426167D01*
X555492Y427912D01*
X552843Y429010D01*
X550000Y429384D01*
D02*
G37*
G36*
X60000D02*
X57157Y429010D01*
X54508Y427912D01*
X52233Y426167D01*
X50488Y423892D01*
X49390Y421243D01*
X49016Y418400D01*
X49390Y415557D01*
X50488Y412908D01*
X52233Y410633D01*
X54508Y408888D01*
X57157Y407790D01*
X60000Y407416D01*
X62843Y407790D01*
X65492Y408888D01*
X67767Y410633D01*
X69512Y412908D01*
X70610Y415557D01*
X70984Y418400D01*
X70610Y421243D01*
X69512Y423892D01*
X67767Y426167D01*
X65492Y427912D01*
X62843Y429010D01*
X60000Y429384D01*
D02*
G37*
G36*
X34600D02*
X31757Y429010D01*
X29108Y427912D01*
X26833Y426167D01*
X25088Y423892D01*
X23990Y421243D01*
X23616Y418400D01*
X23990Y415557D01*
X25088Y412908D01*
X26833Y410633D01*
X29108Y408888D01*
X31757Y407790D01*
X34600Y407416D01*
X37443Y407790D01*
X40092Y408888D01*
X42367Y410633D01*
X44112Y412908D01*
X45210Y415557D01*
X45584Y418400D01*
X45210Y421243D01*
X44112Y423892D01*
X42367Y426167D01*
X40092Y427912D01*
X37443Y429010D01*
X34600Y429384D01*
D02*
G37*
G36*
X415500Y407589D02*
X414127Y407316D01*
X412962Y406538D01*
X412184Y405373D01*
X411911Y404000D01*
X412184Y402627D01*
X412962Y401462D01*
X414127Y400684D01*
X415500Y400411D01*
X416873Y400684D01*
X418038Y401462D01*
X418816Y402627D01*
X419089Y404000D01*
X418816Y405373D01*
X418038Y406538D01*
X416873Y407316D01*
X415500Y407589D01*
D02*
G37*
G36*
X35850Y404203D02*
Y394250D01*
X45803D01*
X45580Y395942D01*
X44444Y398684D01*
X42638Y401038D01*
X40284Y402844D01*
X37542Y403980D01*
X35850Y404203D01*
D02*
G37*
G36*
X33350D02*
X31658Y403980D01*
X28916Y402844D01*
X26562Y401038D01*
X24756Y398684D01*
X23620Y395942D01*
X23397Y394250D01*
X33350D01*
Y404203D01*
D02*
G37*
G36*
X576650D02*
Y394250D01*
X586603D01*
X586380Y395942D01*
X585244Y398684D01*
X583438Y401038D01*
X581084Y402844D01*
X578342Y403980D01*
X576650Y404203D01*
D02*
G37*
G36*
X574150D02*
X572458Y403980D01*
X569716Y402844D01*
X567362Y401038D01*
X565556Y398684D01*
X564420Y395942D01*
X564197Y394250D01*
X574150D01*
Y404203D01*
D02*
G37*
G36*
X550000Y403984D02*
X547157Y403610D01*
X544508Y402512D01*
X542233Y400767D01*
X540488Y398492D01*
X539390Y395843D01*
X539016Y393000D01*
X539390Y390157D01*
X540488Y387508D01*
X542233Y385233D01*
X544508Y383488D01*
X547157Y382390D01*
X550000Y382016D01*
X552843Y382390D01*
X555492Y383488D01*
X557767Y385233D01*
X559512Y387508D01*
X560610Y390157D01*
X560984Y393000D01*
X560610Y395843D01*
X559512Y398492D01*
X557767Y400767D01*
X555492Y402512D01*
X552843Y403610D01*
X550000Y403984D01*
D02*
G37*
G36*
X60000D02*
X57157Y403610D01*
X54508Y402512D01*
X52233Y400767D01*
X50488Y398492D01*
X49390Y395843D01*
X49016Y393000D01*
X49390Y390157D01*
X50488Y387508D01*
X52233Y385233D01*
X54508Y383488D01*
X57157Y382390D01*
X60000Y382016D01*
X62843Y382390D01*
X65492Y383488D01*
X67767Y385233D01*
X69512Y387508D01*
X70610Y390157D01*
X70984Y393000D01*
X70610Y395843D01*
X69512Y398492D01*
X67767Y400767D01*
X65492Y402512D01*
X62843Y403610D01*
X60000Y403984D01*
D02*
G37*
G36*
X574150Y391750D02*
X564197D01*
X564420Y390058D01*
X565556Y387316D01*
X567362Y384962D01*
X569716Y383156D01*
X572458Y382020D01*
X574150Y381797D01*
Y391750D01*
D02*
G37*
G36*
X45803Y391750D02*
X35850D01*
Y381797D01*
X37542Y382020D01*
X40284Y383156D01*
X42638Y384962D01*
X44444Y387316D01*
X45580Y390058D01*
X45803Y391750D01*
D02*
G37*
G36*
X33350D02*
X23397D01*
X23620Y390058D01*
X24756Y387316D01*
X26562Y384962D01*
X28916Y383156D01*
X31658Y382020D01*
X33350Y381797D01*
Y391750D01*
D02*
G37*
G36*
X586603Y391750D02*
X576650D01*
Y381797D01*
X578342Y382020D01*
X581084Y383156D01*
X583438Y384962D01*
X585244Y387316D01*
X586380Y390058D01*
X586603Y391750D01*
D02*
G37*
G36*
X575400Y378584D02*
X572557Y378210D01*
X569908Y377112D01*
X567633Y375367D01*
X565888Y373092D01*
X564790Y370443D01*
X564416Y367600D01*
X564790Y364757D01*
X565888Y362108D01*
X567633Y359833D01*
X569908Y358088D01*
X572557Y356990D01*
X575400Y356616D01*
X578243Y356990D01*
X580892Y358088D01*
X583167Y359833D01*
X584912Y362108D01*
X586010Y364757D01*
X586384Y367600D01*
X586010Y370443D01*
X584912Y373092D01*
X583167Y375367D01*
X580892Y377112D01*
X578243Y378210D01*
X575400Y378584D01*
D02*
G37*
G36*
X550000D02*
X547157Y378210D01*
X544508Y377112D01*
X542233Y375367D01*
X540488Y373092D01*
X539390Y370443D01*
X539016Y367600D01*
X539390Y364757D01*
X540488Y362108D01*
X542233Y359833D01*
X544508Y358088D01*
X547157Y356990D01*
X550000Y356616D01*
X552843Y356990D01*
X555492Y358088D01*
X557767Y359833D01*
X559512Y362108D01*
X560610Y364757D01*
X560984Y367600D01*
X560610Y370443D01*
X559512Y373092D01*
X557767Y375367D01*
X555492Y377112D01*
X552843Y378210D01*
X550000Y378584D01*
D02*
G37*
G36*
X60000D02*
X57157Y378210D01*
X54508Y377112D01*
X52233Y375367D01*
X50488Y373092D01*
X49390Y370443D01*
X49016Y367600D01*
X49390Y364757D01*
X50488Y362108D01*
X52233Y359833D01*
X54508Y358088D01*
X57157Y356990D01*
X60000Y356616D01*
X62843Y356990D01*
X65492Y358088D01*
X67767Y359833D01*
X69512Y362108D01*
X70610Y364757D01*
X70984Y367600D01*
X70610Y370443D01*
X69512Y373092D01*
X67767Y375367D01*
X65492Y377112D01*
X62843Y378210D01*
X60000Y378584D01*
D02*
G37*
G36*
X34600D02*
X31757Y378210D01*
X29108Y377112D01*
X26833Y375367D01*
X25088Y373092D01*
X23990Y370443D01*
X23616Y367600D01*
X23990Y364757D01*
X25088Y362108D01*
X26833Y359833D01*
X29108Y358088D01*
X31757Y356990D01*
X34600Y356616D01*
X37443Y356990D01*
X40092Y358088D01*
X42367Y359833D01*
X44112Y362108D01*
X45210Y364757D01*
X45584Y367600D01*
X45210Y370443D01*
X44112Y373092D01*
X42367Y375367D01*
X40092Y377112D01*
X37443Y378210D01*
X34600Y378584D01*
D02*
G37*
G36*
X551250Y353403D02*
Y343450D01*
X561203D01*
X560980Y345142D01*
X559844Y347884D01*
X558038Y350238D01*
X555684Y352044D01*
X552942Y353180D01*
X551250Y353403D01*
D02*
G37*
G36*
X548750D02*
X547058Y353180D01*
X544316Y352044D01*
X541962Y350238D01*
X540156Y347884D01*
X539020Y345142D01*
X538797Y343450D01*
X548750D01*
Y353403D01*
D02*
G37*
G36*
X575400Y353184D02*
X572557Y352810D01*
X569908Y351712D01*
X567633Y349967D01*
X565888Y347692D01*
X564790Y345043D01*
X564416Y342200D01*
X564790Y339357D01*
X565888Y336708D01*
X567633Y334433D01*
X569908Y332688D01*
X572557Y331590D01*
X575400Y331216D01*
X578243Y331590D01*
X580892Y332688D01*
X583167Y334433D01*
X584912Y336708D01*
X586010Y339357D01*
X586384Y342200D01*
X586010Y345043D01*
X584912Y347692D01*
X583167Y349967D01*
X580892Y351712D01*
X578243Y352810D01*
X575400Y353184D01*
D02*
G37*
G36*
X60000D02*
X57157Y352810D01*
X54508Y351712D01*
X52233Y349967D01*
X50488Y347692D01*
X49390Y345043D01*
X49016Y342200D01*
X49390Y339357D01*
X50488Y336708D01*
X52233Y334433D01*
X54508Y332688D01*
X57157Y331590D01*
X60000Y331216D01*
X62843Y331590D01*
X65492Y332688D01*
X67767Y334433D01*
X69512Y336708D01*
X70610Y339357D01*
X70984Y342200D01*
X70610Y345043D01*
X69512Y347692D01*
X67767Y349967D01*
X65492Y351712D01*
X62843Y352810D01*
X60000Y353184D01*
D02*
G37*
G36*
X34600D02*
X31757Y352810D01*
X29108Y351712D01*
X26833Y349967D01*
X25088Y347692D01*
X23990Y345043D01*
X23616Y342200D01*
X23990Y339357D01*
X25088Y336708D01*
X26833Y334433D01*
X29108Y332688D01*
X31757Y331590D01*
X34600Y331216D01*
X37443Y331590D01*
X40092Y332688D01*
X42367Y334433D01*
X44112Y336708D01*
X45210Y339357D01*
X45584Y342200D01*
X45210Y345043D01*
X44112Y347692D01*
X42367Y349967D01*
X40092Y351712D01*
X37443Y352810D01*
X34600Y353184D01*
D02*
G37*
G36*
X548750Y340950D02*
X538797D01*
X539020Y339258D01*
X540156Y336516D01*
X541962Y334162D01*
X544316Y332356D01*
X547058Y331220D01*
X548750Y330997D01*
Y340950D01*
D02*
G37*
G36*
X561203D02*
X551250D01*
Y330997D01*
X552942Y331220D01*
X555684Y332356D01*
X558038Y334162D01*
X559844Y336516D01*
X560980Y339258D01*
X561203Y340950D01*
D02*
G37*
G36*
X61250Y328003D02*
Y318050D01*
X71203D01*
X70980Y319742D01*
X69844Y322484D01*
X68038Y324838D01*
X65684Y326644D01*
X62942Y327780D01*
X61250Y328003D01*
D02*
G37*
G36*
X35850D02*
Y318050D01*
X45803D01*
X45580Y319742D01*
X44444Y322484D01*
X42638Y324838D01*
X40284Y326644D01*
X37542Y327780D01*
X35850Y328003D01*
D02*
G37*
G36*
X58750D02*
X57058Y327780D01*
X54316Y326644D01*
X51962Y324838D01*
X50156Y322484D01*
X49020Y319742D01*
X48797Y318050D01*
X58750D01*
Y328003D01*
D02*
G37*
G36*
X33350D02*
X31658Y327780D01*
X28916Y326644D01*
X26562Y324838D01*
X24756Y322484D01*
X23620Y319742D01*
X23397Y318050D01*
X33350D01*
Y328003D01*
D02*
G37*
G36*
X576650D02*
Y318050D01*
X586603D01*
X586380Y319742D01*
X585244Y322484D01*
X583438Y324838D01*
X581084Y326644D01*
X578342Y327780D01*
X576650Y328003D01*
D02*
G37*
G36*
X574150D02*
X572458Y327780D01*
X569716Y326644D01*
X567362Y324838D01*
X565556Y322484D01*
X564420Y319742D01*
X564197Y318050D01*
X574150D01*
Y328003D01*
D02*
G37*
G36*
X550000Y327784D02*
X547157Y327410D01*
X544508Y326312D01*
X542233Y324567D01*
X540488Y322292D01*
X539390Y319643D01*
X539016Y316800D01*
X539390Y313957D01*
X540488Y311308D01*
X542233Y309033D01*
X544508Y307288D01*
X547157Y306190D01*
X550000Y305816D01*
X552843Y306190D01*
X555492Y307288D01*
X557767Y309033D01*
X559512Y311308D01*
X560610Y313957D01*
X560984Y316800D01*
X560610Y319643D01*
X559512Y322292D01*
X557767Y324567D01*
X555492Y326312D01*
X552843Y327410D01*
X550000Y327784D01*
D02*
G37*
G36*
X574150Y315550D02*
X564197D01*
X564420Y313858D01*
X565556Y311116D01*
X567362Y308762D01*
X569716Y306956D01*
X572458Y305820D01*
X574150Y305597D01*
Y315550D01*
D02*
G37*
G36*
X45803Y315550D02*
X35850D01*
Y305597D01*
X37542Y305820D01*
X40284Y306956D01*
X42638Y308762D01*
X44444Y311116D01*
X45580Y313858D01*
X45803Y315550D01*
D02*
G37*
G36*
X71203D02*
X61250D01*
Y305597D01*
X62942Y305820D01*
X65684Y306956D01*
X68038Y308762D01*
X69844Y311116D01*
X70980Y313858D01*
X71203Y315550D01*
D02*
G37*
G36*
X58750D02*
X48797D01*
X49020Y313858D01*
X50156Y311116D01*
X51962Y308762D01*
X54316Y306956D01*
X57058Y305820D01*
X58750Y305597D01*
Y315550D01*
D02*
G37*
G36*
X33350D02*
X23397D01*
X23620Y313858D01*
X24756Y311116D01*
X26562Y308762D01*
X28916Y306956D01*
X31658Y305820D01*
X33350Y305597D01*
Y315550D01*
D02*
G37*
G36*
X586603Y315550D02*
X576650D01*
Y305597D01*
X578342Y305820D01*
X581084Y306956D01*
X583438Y308762D01*
X585244Y311116D01*
X586380Y313858D01*
X586603Y315550D01*
D02*
G37*
G36*
X575400Y302384D02*
X572557Y302010D01*
X569908Y300912D01*
X567633Y299167D01*
X565888Y296892D01*
X564790Y294243D01*
X564416Y291400D01*
X564790Y288557D01*
X565888Y285908D01*
X567633Y283633D01*
X569908Y281888D01*
X572557Y280790D01*
X575400Y280416D01*
X578243Y280790D01*
X580892Y281888D01*
X583167Y283633D01*
X584912Y285908D01*
X586010Y288557D01*
X586384Y291400D01*
X586010Y294243D01*
X584912Y296892D01*
X583167Y299167D01*
X580892Y300912D01*
X578243Y302010D01*
X575400Y302384D01*
D02*
G37*
G36*
X550000D02*
X547157Y302010D01*
X544508Y300912D01*
X542233Y299167D01*
X540488Y296892D01*
X539390Y294243D01*
X539016Y291400D01*
X539390Y288557D01*
X540488Y285908D01*
X542233Y283633D01*
X544508Y281888D01*
X547157Y280790D01*
X550000Y280416D01*
X552843Y280790D01*
X555492Y281888D01*
X557767Y283633D01*
X559512Y285908D01*
X560610Y288557D01*
X560984Y291400D01*
X560610Y294243D01*
X559512Y296892D01*
X557767Y299167D01*
X555492Y300912D01*
X552843Y302010D01*
X550000Y302384D01*
D02*
G37*
G36*
X60000D02*
X57157Y302010D01*
X54508Y300912D01*
X52233Y299167D01*
X50488Y296892D01*
X49390Y294243D01*
X49016Y291400D01*
X49390Y288557D01*
X50488Y285908D01*
X52233Y283633D01*
X54508Y281888D01*
X57157Y280790D01*
X60000Y280416D01*
X62843Y280790D01*
X65492Y281888D01*
X67767Y283633D01*
X69512Y285908D01*
X70610Y288557D01*
X70984Y291400D01*
X70610Y294243D01*
X69512Y296892D01*
X67767Y299167D01*
X65492Y300912D01*
X62843Y302010D01*
X60000Y302384D01*
D02*
G37*
G36*
X34600D02*
X31757Y302010D01*
X29108Y300912D01*
X26833Y299167D01*
X25088Y296892D01*
X23990Y294243D01*
X23616Y291400D01*
X23990Y288557D01*
X25088Y285908D01*
X26833Y283633D01*
X29108Y281888D01*
X31757Y280790D01*
X34600Y280416D01*
X37443Y280790D01*
X40092Y281888D01*
X42367Y283633D01*
X44112Y285908D01*
X45210Y288557D01*
X45584Y291400D01*
X45210Y294243D01*
X44112Y296892D01*
X42367Y299167D01*
X40092Y300912D01*
X37443Y302010D01*
X34600Y302384D01*
D02*
G37*
G36*
X575400Y276984D02*
X572557Y276610D01*
X569908Y275512D01*
X567633Y273767D01*
X565888Y271492D01*
X564790Y268843D01*
X564416Y266000D01*
X564790Y263157D01*
X565888Y260508D01*
X567633Y258233D01*
X569908Y256488D01*
X572557Y255390D01*
X575400Y255016D01*
X578243Y255390D01*
X580892Y256488D01*
X583167Y258233D01*
X584912Y260508D01*
X586010Y263157D01*
X586384Y266000D01*
X586010Y268843D01*
X584912Y271492D01*
X583167Y273767D01*
X580892Y275512D01*
X578243Y276610D01*
X575400Y276984D01*
D02*
G37*
G36*
X550000D02*
X547157Y276610D01*
X544508Y275512D01*
X542233Y273767D01*
X540488Y271492D01*
X539390Y268843D01*
X539016Y266000D01*
X539390Y263157D01*
X540488Y260508D01*
X542233Y258233D01*
X544508Y256488D01*
X547157Y255390D01*
X550000Y255016D01*
X552843Y255390D01*
X555492Y256488D01*
X557767Y258233D01*
X559512Y260508D01*
X560610Y263157D01*
X560984Y266000D01*
X560610Y268843D01*
X559512Y271492D01*
X557767Y273767D01*
X555492Y275512D01*
X552843Y276610D01*
X550000Y276984D01*
D02*
G37*
G36*
X60000D02*
X57157Y276610D01*
X54508Y275512D01*
X52233Y273767D01*
X50488Y271492D01*
X49390Y268843D01*
X49016Y266000D01*
X49390Y263157D01*
X50488Y260508D01*
X52233Y258233D01*
X54508Y256488D01*
X57157Y255390D01*
X60000Y255016D01*
X62843Y255390D01*
X65492Y256488D01*
X67767Y258233D01*
X69512Y260508D01*
X70610Y263157D01*
X70984Y266000D01*
X70610Y268843D01*
X69512Y271492D01*
X67767Y273767D01*
X65492Y275512D01*
X62843Y276610D01*
X60000Y276984D01*
D02*
G37*
G36*
X34600D02*
X31757Y276610D01*
X29108Y275512D01*
X26833Y273767D01*
X25088Y271492D01*
X23990Y268843D01*
X23616Y266000D01*
X23990Y263157D01*
X25088Y260508D01*
X26833Y258233D01*
X29108Y256488D01*
X31757Y255390D01*
X34600Y255016D01*
X37443Y255390D01*
X40092Y256488D01*
X42367Y258233D01*
X44112Y260508D01*
X45210Y263157D01*
X45584Y266000D01*
X45210Y268843D01*
X44112Y271492D01*
X42367Y273767D01*
X40092Y275512D01*
X37443Y276610D01*
X34600Y276984D01*
D02*
G37*
G36*
X576650Y251803D02*
Y241850D01*
X586603D01*
X586380Y243542D01*
X585244Y246284D01*
X583438Y248638D01*
X581084Y250444D01*
X578342Y251580D01*
X576650Y251803D01*
D02*
G37*
G36*
X551250D02*
Y241850D01*
X561203D01*
X560980Y243542D01*
X559844Y246284D01*
X558038Y248638D01*
X555684Y250444D01*
X552942Y251580D01*
X551250Y251803D01*
D02*
G37*
G36*
X574150D02*
X572458Y251580D01*
X569716Y250444D01*
X567362Y248638D01*
X565556Y246284D01*
X564420Y243542D01*
X564197Y241850D01*
X574150D01*
Y251803D01*
D02*
G37*
G36*
X548750D02*
X547058Y251580D01*
X544316Y250444D01*
X541962Y248638D01*
X540156Y246284D01*
X539020Y243542D01*
X538797Y241850D01*
X548750D01*
Y251803D01*
D02*
G37*
G36*
X60000Y251584D02*
X57157Y251210D01*
X54508Y250112D01*
X52233Y248367D01*
X50488Y246092D01*
X49390Y243443D01*
X49016Y240600D01*
X49390Y237757D01*
X50488Y235108D01*
X52233Y232833D01*
X54508Y231088D01*
X57157Y229990D01*
X60000Y229616D01*
X62843Y229990D01*
X65492Y231088D01*
X67767Y232833D01*
X69512Y235108D01*
X70610Y237757D01*
X70984Y240600D01*
X70610Y243443D01*
X69512Y246092D01*
X67767Y248367D01*
X65492Y250112D01*
X62843Y251210D01*
X60000Y251584D01*
D02*
G37*
G36*
X34600D02*
X31757Y251210D01*
X29108Y250112D01*
X26833Y248367D01*
X25088Y246092D01*
X23990Y243443D01*
X23616Y240600D01*
X23990Y237757D01*
X25088Y235108D01*
X26833Y232833D01*
X29108Y231088D01*
X31757Y229990D01*
X34600Y229616D01*
X37443Y229990D01*
X40092Y231088D01*
X42367Y232833D01*
X44112Y235108D01*
X45210Y237757D01*
X45584Y240600D01*
X45210Y243443D01*
X44112Y246092D01*
X42367Y248367D01*
X40092Y250112D01*
X37443Y251210D01*
X34600Y251584D01*
D02*
G37*
G36*
X574150Y239350D02*
X564197D01*
X564420Y237658D01*
X565556Y234916D01*
X567362Y232562D01*
X569716Y230756D01*
X572458Y229620D01*
X574150Y229397D01*
Y239350D01*
D02*
G37*
G36*
X548750D02*
X538797D01*
X539020Y237658D01*
X540156Y234916D01*
X541962Y232562D01*
X544316Y230756D01*
X547058Y229620D01*
X548750Y229397D01*
Y239350D01*
D02*
G37*
G36*
X586603D02*
X576650D01*
Y229397D01*
X578342Y229620D01*
X581084Y230756D01*
X583438Y232562D01*
X585244Y234916D01*
X586380Y237658D01*
X586603Y239350D01*
D02*
G37*
G36*
X561203D02*
X551250D01*
Y229397D01*
X552942Y229620D01*
X555684Y230756D01*
X558038Y232562D01*
X559844Y234916D01*
X560980Y237658D01*
X561203Y239350D01*
D02*
G37*
G36*
X575400Y226184D02*
X572557Y225810D01*
X569908Y224712D01*
X567633Y222967D01*
X565888Y220692D01*
X564790Y218043D01*
X564416Y215200D01*
X564790Y212357D01*
X565888Y209708D01*
X567633Y207433D01*
X569908Y205688D01*
X572557Y204590D01*
X575400Y204216D01*
X578243Y204590D01*
X580892Y205688D01*
X583167Y207433D01*
X584912Y209708D01*
X586010Y212357D01*
X586384Y215200D01*
X586010Y218043D01*
X584912Y220692D01*
X583167Y222967D01*
X580892Y224712D01*
X578243Y225810D01*
X575400Y226184D01*
D02*
G37*
G36*
X550000D02*
X547157Y225810D01*
X544508Y224712D01*
X542233Y222967D01*
X540488Y220692D01*
X539390Y218043D01*
X539016Y215200D01*
X539390Y212357D01*
X540488Y209708D01*
X542233Y207433D01*
X544508Y205688D01*
X547157Y204590D01*
X550000Y204216D01*
X552843Y204590D01*
X555492Y205688D01*
X557767Y207433D01*
X559512Y209708D01*
X560610Y212357D01*
X560984Y215200D01*
X560610Y218043D01*
X559512Y220692D01*
X557767Y222967D01*
X555492Y224712D01*
X552843Y225810D01*
X550000Y226184D01*
D02*
G37*
G36*
X60000D02*
X57157Y225810D01*
X54508Y224712D01*
X52233Y222967D01*
X50488Y220692D01*
X49390Y218043D01*
X49016Y215200D01*
X49390Y212357D01*
X50488Y209708D01*
X52233Y207433D01*
X54508Y205688D01*
X57157Y204590D01*
X60000Y204216D01*
X62843Y204590D01*
X65492Y205688D01*
X67767Y207433D01*
X69512Y209708D01*
X70610Y212357D01*
X70984Y215200D01*
X70610Y218043D01*
X69512Y220692D01*
X67767Y222967D01*
X65492Y224712D01*
X62843Y225810D01*
X60000Y226184D01*
D02*
G37*
G36*
X34600D02*
X31757Y225810D01*
X29108Y224712D01*
X26833Y222967D01*
X25088Y220692D01*
X23990Y218043D01*
X23616Y215200D01*
X23990Y212357D01*
X25088Y209708D01*
X26833Y207433D01*
X29108Y205688D01*
X31757Y204590D01*
X34600Y204216D01*
X37443Y204590D01*
X40092Y205688D01*
X42367Y207433D01*
X44112Y209708D01*
X45210Y212357D01*
X45584Y215200D01*
X45210Y218043D01*
X44112Y220692D01*
X42367Y222967D01*
X40092Y224712D01*
X37443Y225810D01*
X34600Y226184D01*
D02*
G37*
G36*
X61250Y201003D02*
Y191050D01*
X71203D01*
X70980Y192742D01*
X69844Y195484D01*
X68038Y197838D01*
X65684Y199644D01*
X62942Y200780D01*
X61250Y201003D01*
D02*
G37*
G36*
X35850D02*
Y191050D01*
X45803D01*
X45580Y192742D01*
X44444Y195484D01*
X42638Y197838D01*
X40284Y199644D01*
X37542Y200780D01*
X35850Y201003D01*
D02*
G37*
G36*
X58750D02*
X57058Y200780D01*
X54316Y199644D01*
X51962Y197838D01*
X50156Y195484D01*
X49020Y192742D01*
X48797Y191050D01*
X58750D01*
Y201003D01*
D02*
G37*
G36*
X33350D02*
X31658Y200780D01*
X28916Y199644D01*
X26562Y197838D01*
X24756Y195484D01*
X23620Y192742D01*
X23397Y191050D01*
X33350D01*
Y201003D01*
D02*
G37*
G36*
X575400Y200784D02*
X572557Y200410D01*
X569908Y199312D01*
X567633Y197567D01*
X565888Y195292D01*
X564790Y192643D01*
X564416Y189800D01*
X564790Y186957D01*
X565888Y184308D01*
X567633Y182033D01*
X569908Y180288D01*
X572557Y179190D01*
X575400Y178816D01*
X578243Y179190D01*
X580892Y180288D01*
X583167Y182033D01*
X584912Y184308D01*
X586010Y186957D01*
X586384Y189800D01*
X586010Y192643D01*
X584912Y195292D01*
X583167Y197567D01*
X580892Y199312D01*
X578243Y200410D01*
X575400Y200784D01*
D02*
G37*
G36*
X550000D02*
X547157Y200410D01*
X544508Y199312D01*
X542233Y197567D01*
X540488Y195292D01*
X539390Y192643D01*
X539016Y189800D01*
X539390Y186957D01*
X540488Y184308D01*
X542233Y182033D01*
X544508Y180288D01*
X547157Y179190D01*
X550000Y178816D01*
X552843Y179190D01*
X555492Y180288D01*
X557767Y182033D01*
X559512Y184308D01*
X560610Y186957D01*
X560984Y189800D01*
X560610Y192643D01*
X559512Y195292D01*
X557767Y197567D01*
X555492Y199312D01*
X552843Y200410D01*
X550000Y200784D01*
D02*
G37*
G36*
X45803Y188550D02*
X35850D01*
Y178597D01*
X37542Y178820D01*
X40284Y179956D01*
X42638Y181762D01*
X44444Y184116D01*
X45580Y186858D01*
X45803Y188550D01*
D02*
G37*
G36*
X71203D02*
X61250D01*
Y178597D01*
X62942Y178820D01*
X65684Y179956D01*
X68038Y181762D01*
X69844Y184116D01*
X70980Y186858D01*
X71203Y188550D01*
D02*
G37*
G36*
X58750D02*
X48797D01*
X49020Y186858D01*
X50156Y184116D01*
X51962Y181762D01*
X54316Y179956D01*
X57058Y178820D01*
X58750Y178597D01*
Y188550D01*
D02*
G37*
G36*
X33350D02*
X23397D01*
X23620Y186858D01*
X24756Y184116D01*
X26562Y181762D01*
X28916Y179956D01*
X31658Y178820D01*
X33350Y178597D01*
Y188550D01*
D02*
G37*
G36*
X576650Y175603D02*
Y165650D01*
X586603D01*
X586380Y167342D01*
X585244Y170084D01*
X583438Y172438D01*
X581084Y174244D01*
X578342Y175380D01*
X576650Y175603D01*
D02*
G37*
G36*
X574150D02*
X572458Y175380D01*
X569716Y174244D01*
X567362Y172438D01*
X565556Y170084D01*
X564420Y167342D01*
X564197Y165650D01*
X574150D01*
Y175603D01*
D02*
G37*
G36*
X550000Y175384D02*
X547157Y175010D01*
X544508Y173912D01*
X542233Y172167D01*
X540488Y169892D01*
X539390Y167243D01*
X539016Y164400D01*
X539390Y161557D01*
X540488Y158908D01*
X542233Y156633D01*
X544508Y154888D01*
X547157Y153790D01*
X550000Y153416D01*
X552843Y153790D01*
X555492Y154888D01*
X557767Y156633D01*
X559512Y158908D01*
X560610Y161557D01*
X560984Y164400D01*
X560610Y167243D01*
X559512Y169892D01*
X557767Y172167D01*
X555492Y173912D01*
X552843Y175010D01*
X550000Y175384D01*
D02*
G37*
G36*
X34600D02*
X31757Y175010D01*
X29108Y173912D01*
X26833Y172167D01*
X25088Y169892D01*
X23990Y167243D01*
X23616Y164400D01*
X23990Y161557D01*
X25088Y158908D01*
X26833Y156633D01*
X29108Y154888D01*
X31757Y153790D01*
X34600Y153416D01*
X37443Y153790D01*
X40092Y154888D01*
X42367Y156633D01*
X44112Y158908D01*
X45210Y161557D01*
X45584Y164400D01*
X45210Y167243D01*
X44112Y169892D01*
X42367Y172167D01*
X40092Y173912D01*
X37443Y175010D01*
X34600Y175384D01*
D02*
G37*
G36*
X65000Y175405D02*
X55000D01*
X52702Y174948D01*
X50753Y173647D01*
X49452Y171698D01*
X48995Y169400D01*
Y159400D01*
X49452Y157102D01*
X50753Y155154D01*
X52702Y153852D01*
X55000Y153395D01*
X65000D01*
X67298Y153852D01*
X69247Y155154D01*
X70548Y157102D01*
X71005Y159400D01*
Y169400D01*
X70548Y171698D01*
X69247Y173647D01*
X67298Y174948D01*
X65000Y175405D01*
D02*
G37*
G36*
X574150Y163150D02*
X564197D01*
X564420Y161458D01*
X565556Y158716D01*
X567362Y156362D01*
X569716Y154556D01*
X572458Y153420D01*
X574150Y153197D01*
Y163150D01*
D02*
G37*
G36*
X586603D02*
X576650D01*
Y153197D01*
X578342Y153420D01*
X581084Y154556D01*
X583438Y156362D01*
X585244Y158716D01*
X586380Y161458D01*
X586603Y163150D01*
D02*
G37*
G36*
X184000Y63760D02*
X181604Y63284D01*
X179573Y61927D01*
X178216Y59896D01*
X177740Y57500D01*
X178216Y55104D01*
X179573Y53073D01*
X181604Y51716D01*
X184000Y51240D01*
X186396Y51716D01*
X188427Y53073D01*
X189784Y55104D01*
X190260Y57500D01*
X189784Y59896D01*
X188427Y61927D01*
X186396Y63284D01*
X184000Y63760D01*
D02*
G37*
G36*
X426000Y66214D02*
X423745Y65918D01*
X421643Y65047D01*
X419838Y63662D01*
X418453Y61857D01*
X417582Y59756D01*
X417285Y57500D01*
X417582Y55244D01*
X418453Y53143D01*
X419838Y51338D01*
X421643Y49953D01*
X423745Y49082D01*
X426000Y48786D01*
X428256Y49082D01*
X430357Y49953D01*
X432162Y51338D01*
X433547Y53143D01*
X434418Y55244D01*
X434715Y57500D01*
X434418Y59756D01*
X433547Y61857D01*
X432162Y63662D01*
X430357Y65047D01*
X428256Y65918D01*
X426000Y66214D01*
D02*
G37*
G36*
X491250Y68259D02*
Y41250D01*
X518259D01*
X518008Y44436D01*
X516969Y48763D01*
X515267Y52874D01*
X512942Y56668D01*
X510052Y60052D01*
X506668Y62942D01*
X502874Y65267D01*
X498763Y66969D01*
X494436Y68008D01*
X491250Y68259D01*
D02*
G37*
G36*
X488750D02*
X485564Y68008D01*
X481237Y66969D01*
X477126Y65267D01*
X473332Y62942D01*
X469948Y60052D01*
X467058Y56668D01*
X464733Y52874D01*
X463031Y48763D01*
X461992Y44436D01*
X461741Y41250D01*
X488750D01*
Y68259D01*
D02*
G37*
G36*
X41250D02*
Y41250D01*
X68259D01*
X68008Y44436D01*
X66969Y48763D01*
X65267Y52874D01*
X62942Y56668D01*
X60052Y60052D01*
X56668Y62942D01*
X52874Y65267D01*
X48763Y66969D01*
X44436Y68008D01*
X41250Y68259D01*
D02*
G37*
G36*
X38750D02*
X35564Y68008D01*
X31237Y66969D01*
X27126Y65267D01*
X23332Y62942D01*
X19948Y60052D01*
X17058Y56668D01*
X14733Y52874D01*
X13031Y48763D01*
X11992Y44436D01*
X11741Y41250D01*
X38750D01*
Y68259D01*
D02*
G37*
G36*
X518259Y38750D02*
X491250D01*
Y11741D01*
X494436Y11992D01*
X498763Y13031D01*
X502874Y14733D01*
X506668Y17058D01*
X510052Y19948D01*
X512942Y23332D01*
X515267Y27126D01*
X516969Y31237D01*
X518008Y35564D01*
X518259Y38750D01*
D02*
G37*
G36*
X488750D02*
X461741D01*
X461992Y35564D01*
X463031Y31237D01*
X464733Y27126D01*
X467058Y23332D01*
X469948Y19948D01*
X473332Y17058D01*
X477126Y14733D01*
X481237Y13031D01*
X485564Y11992D01*
X488750Y11741D01*
Y38750D01*
D02*
G37*
G36*
X68259D02*
X41250D01*
Y11741D01*
X44436Y11992D01*
X48763Y13031D01*
X52874Y14733D01*
X56668Y17058D01*
X60052Y19948D01*
X62942Y23332D01*
X65267Y27126D01*
X66969Y31237D01*
X68008Y35564D01*
X68259Y38750D01*
D02*
G37*
G36*
X38750D02*
X11741D01*
X11992Y35564D01*
X13031Y31237D01*
X14733Y27126D01*
X17058Y23332D01*
X19948Y19948D01*
X23332Y17058D01*
X27126Y14733D01*
X31237Y13031D01*
X35564Y11992D01*
X38750Y11741D01*
Y38750D01*
D02*
G37*
%LPD*%
D11*
X585000Y810000D02*
Y825000D01*
Y810000D02*
X605000D01*
Y825000D01*
X585000D02*
X605000D01*
D62*
X570000Y750000D02*
D03*
X490000Y40000D02*
D03*
X40000D02*
D03*
Y920000D02*
D03*
D64*
X524600Y694000D02*
D03*
X550000Y240600D02*
D03*
X575400D02*
D03*
Y164400D02*
D03*
Y316800D02*
D03*
X550000Y342200D02*
D03*
X575400Y393000D02*
D03*
Y469200D02*
D03*
X550000D02*
D03*
X60000Y443800D02*
D03*
X34600D02*
D03*
X60000Y469200D02*
D03*
Y520000D02*
D03*
X34600D02*
D03*
Y393000D02*
D03*
Y316800D02*
D03*
X60000D02*
D03*
X34600Y189800D02*
D03*
X60000D02*
D03*
X502000Y544400D02*
D03*
D66*
X432200Y857100D02*
D03*
X552600D02*
D03*
D67*
X480000Y830000D02*
D03*
D68*
X389750Y652750D02*
D03*
X432500Y404000D02*
D03*
X525000Y109750D02*
D03*
Y30250D02*
D03*
X438500Y30000D02*
D03*
X171500D02*
D03*
X184000Y89000D02*
D03*
X426000D02*
D03*
X28250Y829750D02*
D03*
X28500Y548500D02*
D03*
X77400Y708000D02*
D03*
X38500Y681000D02*
D03*
X71500Y663100D02*
D03*
X181000Y619750D02*
D03*
X181750Y677000D02*
D03*
X554000Y671500D02*
D03*
X484500Y704000D02*
D03*
X533250Y562750D02*
D03*
X512500Y566250D02*
D03*
X525750Y562750D02*
D03*
X518250D02*
D03*
X522000Y622000D02*
D03*
X522000Y613000D02*
D03*
Y568000D02*
D03*
Y577000D02*
D03*
Y595000D02*
D03*
Y586000D02*
D03*
X522000Y604000D02*
D03*
X423000Y505500D02*
D03*
X367000Y536500D02*
D03*
X387000Y423500D02*
D03*
X363000D02*
D03*
X187000D02*
D03*
X323000D02*
D03*
X283000D02*
D03*
X243000D02*
D03*
X191000Y536500D02*
D03*
X327000D02*
D03*
X295000D02*
D03*
X263000D02*
D03*
M02*
