G04*
G04 #@! TF.GenerationSoftware,Altium Limited,Altium Designer,19.0.15 (446)*
G04*
G04 Layer_Color=8388736*
%FSLAX44Y44*%
%MOMM*%
G71*
G01*
G75*
%ADD22R,2.4000X6.4000*%
%ADD23R,0.6500X2.0500*%
%ADD24R,1.0000X1.0500*%
%ADD25R,1.4500X1.3500*%
%ADD26R,1.9500X1.4500*%
%ADD27R,1.5500X0.8500*%
%ADD28R,1.1000X0.6000*%
%ADD29R,2.5500X4.9500*%
%ADD30R,1.2500X1.4500*%
%ADD31R,0.7000X0.6000*%
%ADD32R,0.7100X0.6700*%
%ADD33R,0.6000X0.7000*%
G04:AMPARAMS|DCode=34|XSize=0.81mm|YSize=2.45mm|CornerRadius=0.215mm|HoleSize=0mm|Usage=FLASHONLY|Rotation=270.000|XOffset=0mm|YOffset=0mm|HoleType=Round|Shape=RoundedRectangle|*
%AMROUNDEDRECTD34*
21,1,0.8100,2.0200,0,0,270.0*
21,1,0.3800,2.4500,0,0,270.0*
1,1,0.4300,-1.0100,-0.1900*
1,1,0.4300,-1.0100,0.1900*
1,1,0.4300,1.0100,0.1900*
1,1,0.4300,1.0100,-0.1900*
%
%ADD34ROUNDEDRECTD34*%
%ADD35R,1.3500X1.6000*%
%ADD36R,3.2500X4.2500*%
%ADD37R,0.9500X1.1500*%
%ADD38R,2.3500X3.2500*%
%ADD39R,1.2500X2.7500*%
%ADD40R,1.2500X1.9500*%
%ADD41C,5.4500*%
G04:AMPARAMS|DCode=42|XSize=2.05mm|YSize=2.05mm|CornerRadius=0.525mm|HoleSize=0mm|Usage=FLASHONLY|Rotation=90.000|XOffset=0mm|YOffset=0mm|HoleType=Round|Shape=RoundedRectangle|*
%AMROUNDEDRECTD42*
21,1,2.0500,1.0000,0,0,90.0*
21,1,1.0000,2.0500,0,0,90.0*
1,1,1.0500,0.5000,0.5000*
1,1,1.0500,0.5000,-0.5000*
1,1,1.0500,-0.5000,-0.5000*
1,1,1.0500,-0.5000,0.5000*
%
%ADD42ROUNDEDRECTD42*%
%ADD43C,2.0500*%
G04:AMPARAMS|DCode=44|XSize=2.05mm|YSize=2.05mm|CornerRadius=0.525mm|HoleSize=0mm|Usage=FLASHONLY|Rotation=180.000|XOffset=0mm|YOffset=0mm|HoleType=Round|Shape=RoundedRectangle|*
%AMROUNDEDRECTD44*
21,1,2.0500,1.0000,0,0,180.0*
21,1,1.0000,2.0500,0,0,180.0*
1,1,1.0500,-0.5000,0.5000*
1,1,1.0500,0.5000,0.5000*
1,1,1.0500,0.5000,-0.5000*
1,1,1.0500,-0.5000,-0.5000*
%
%ADD44ROUNDEDRECTD44*%
%ADD45C,4.0500*%
%ADD46C,1.6500*%
%ADD47C,0.0500*%
D22*
X595000Y825000D02*
D03*
D23*
X371000Y439000D02*
D03*
X379000D02*
D03*
X423000Y521000D02*
D03*
X419000Y439000D02*
D03*
X415000Y521000D02*
D03*
X411000Y439000D02*
D03*
X407000Y521000D02*
D03*
X403000Y439000D02*
D03*
X399000Y521000D02*
D03*
X395000Y439000D02*
D03*
X391000Y521000D02*
D03*
X387000Y439000D02*
D03*
X383000Y521000D02*
D03*
X375000D02*
D03*
X367000D02*
D03*
X363000Y439000D02*
D03*
X327000Y521000D02*
D03*
X323000Y439000D02*
D03*
X319000Y521000D02*
D03*
X315000Y439000D02*
D03*
X311000Y521000D02*
D03*
X307000Y439000D02*
D03*
X303000Y521000D02*
D03*
X299000Y439000D02*
D03*
X295000Y521000D02*
D03*
X291000Y439000D02*
D03*
X287000Y521000D02*
D03*
X283000Y439000D02*
D03*
X279000Y521000D02*
D03*
X275000Y439000D02*
D03*
X271000Y521000D02*
D03*
X267000Y439000D02*
D03*
X263000Y521000D02*
D03*
X259000Y439000D02*
D03*
X255000Y521000D02*
D03*
X251000Y439000D02*
D03*
X247000Y521000D02*
D03*
X243000Y439000D02*
D03*
X239000Y521000D02*
D03*
X235000Y439000D02*
D03*
X231000Y521000D02*
D03*
X227000Y439000D02*
D03*
X223000Y521000D02*
D03*
X219000Y439000D02*
D03*
X215000Y521000D02*
D03*
X211000Y439000D02*
D03*
X207000Y521000D02*
D03*
X203000Y439000D02*
D03*
X199000Y521000D02*
D03*
X195000Y439000D02*
D03*
X191000Y521000D02*
D03*
X187000Y439000D02*
D03*
D24*
X172250Y663100D02*
D03*
D25*
X170000Y620000D02*
D03*
Y677000D02*
D03*
D26*
X28500Y561500D02*
D03*
X38500Y693000D02*
D03*
D27*
X61400Y685100D02*
D03*
Y674100D02*
D03*
X59400Y663100D02*
D03*
X61400Y652100D02*
D03*
X59400Y641100D02*
D03*
X61400Y630100D02*
D03*
X65400Y619100D02*
D03*
X61400Y608100D02*
D03*
D28*
X508750Y649500D02*
D03*
Y640000D02*
D03*
Y630500D02*
D03*
X535250D02*
D03*
Y640000D02*
D03*
Y649500D02*
D03*
D29*
X449000Y649000D02*
D03*
X485000D02*
D03*
D30*
X496500Y577000D02*
D03*
X513500D02*
D03*
X496500Y595000D02*
D03*
X513500D02*
D03*
X496500Y613000D02*
D03*
X513500D02*
D03*
X547500Y577000D02*
D03*
X530500D02*
D03*
X547500Y595000D02*
D03*
X530500D02*
D03*
X547500Y613000D02*
D03*
X530500D02*
D03*
X415500Y415000D02*
D03*
X432500D02*
D03*
D31*
X537500Y662000D02*
D03*
X528500D02*
D03*
X415500Y541000D02*
D03*
X424500D02*
D03*
D32*
X537400Y671000D02*
D03*
X528600D02*
D03*
X70400Y708000D02*
D03*
X61600D02*
D03*
D33*
X547000Y671500D02*
D03*
Y662500D02*
D03*
X502000Y698500D02*
D03*
Y689500D02*
D03*
X186000Y663500D02*
D03*
Y654500D02*
D03*
X447000Y708500D02*
D03*
Y699500D02*
D03*
X481000Y514500D02*
D03*
Y523500D02*
D03*
D34*
X406000Y602000D02*
D03*
X367000D02*
D03*
X406000Y614700D02*
D03*
X367000D02*
D03*
X406000Y627400D02*
D03*
X367000D02*
D03*
X406000Y640100D02*
D03*
X367000D02*
D03*
X406000Y652800D02*
D03*
X367000D02*
D03*
D35*
X537500Y30250D02*
D03*
Y109750D02*
D03*
X582500D02*
D03*
Y30250D02*
D03*
D36*
X53500Y830000D02*
D03*
X346500D02*
D03*
D37*
X459500Y704000D02*
D03*
X474500D02*
D03*
D38*
X451500Y515000D02*
D03*
X158500D02*
D03*
D39*
X438500Y89000D02*
D03*
X413500D02*
D03*
X196500D02*
D03*
X171500D02*
D03*
D40*
X426000Y30000D02*
D03*
X184000D02*
D03*
D41*
X570000Y750000D02*
D03*
X490000Y40000D02*
D03*
X40000D02*
D03*
Y920000D02*
D03*
D42*
X575000Y569600D02*
D03*
X550000Y520000D02*
D03*
X60000Y164400D02*
D03*
X502000Y493600D02*
D03*
D43*
X575000Y595000D02*
D03*
Y620400D02*
D03*
X550000Y694000D02*
D03*
X524600D02*
D03*
X550000Y266000D02*
D03*
X575400D02*
D03*
X550000Y240600D02*
D03*
X575400D02*
D03*
X550000Y215200D02*
D03*
X575400D02*
D03*
X550000Y189800D02*
D03*
X575400D02*
D03*
X550000Y164400D02*
D03*
X575400D02*
D03*
Y291400D02*
D03*
X550000D02*
D03*
X575400Y316800D02*
D03*
X550000D02*
D03*
X575400Y342200D02*
D03*
X550000D02*
D03*
X575400Y367600D02*
D03*
X550000D02*
D03*
X575400Y393000D02*
D03*
X550000D02*
D03*
X575400Y418400D02*
D03*
X550000D02*
D03*
X575400Y443800D02*
D03*
X550000D02*
D03*
X575400Y469200D02*
D03*
X550000D02*
D03*
X575400Y494600D02*
D03*
X550000D02*
D03*
X575400Y520000D02*
D03*
X60000Y418400D02*
D03*
X34600D02*
D03*
X60000Y443800D02*
D03*
X34600D02*
D03*
X60000Y469200D02*
D03*
X34600D02*
D03*
X60000Y494600D02*
D03*
X34600D02*
D03*
X60000Y520000D02*
D03*
X34600D02*
D03*
Y393000D02*
D03*
X60000D02*
D03*
X34600Y367600D02*
D03*
X60000D02*
D03*
X34600Y342200D02*
D03*
X60000D02*
D03*
X34600Y316800D02*
D03*
X60000D02*
D03*
X34600Y291400D02*
D03*
X60000D02*
D03*
X34600Y266000D02*
D03*
X60000D02*
D03*
X34600Y240600D02*
D03*
X60000D02*
D03*
X34600Y215200D02*
D03*
X60000D02*
D03*
X34600Y189800D02*
D03*
X60000D02*
D03*
X34600Y164400D02*
D03*
X502000Y519000D02*
D03*
Y544400D02*
D03*
D44*
X575400Y694000D02*
D03*
D45*
X432200Y857100D02*
D03*
X552600D02*
D03*
D46*
X480000Y830000D02*
D03*
X504900D02*
D03*
Y810000D02*
D03*
X479900D02*
D03*
D47*
X430000Y480000D02*
D03*
X180000D02*
D03*
X426000Y57500D02*
D03*
X184000D02*
D03*
M02*
