M48
;Layer_Color=9474304
;FILE_FORMAT=4:4
METRIC,LZ
;TYPE=PLATED
T1F00S00C0.2000
T2F00S00C2.6000
%
T01
X00064Y000365
X00076754Y00036252
X00083254
X00088Y0003025
X00087182Y0006075
X0009375Y0006925
X0009475Y00079
X0009625Y000895
X0006575Y0008875
X000625Y000825
X0006525Y0007275
X0006Y0006525
X00058Y00045
X0007275Y0004825
X00110946Y000525
X00128Y00031
X001405Y00034
X00147757Y00040502
X00156Y000375
X0016Y00031
X0016375Y0004425
X0018Y0003775
X0018925Y0003975
X00192Y00031
X00195Y0004625
X002043Y0003795
X0022Y000345
X00228Y00041
X00243Y000415
X00251762Y00037252
X0026125Y00038
X00264Y00031
X0028425Y0003875
X0029425
Y000455
Y000555
Y000655
Y000755
Y000855
Y000955
Y001055
Y001155
Y001255
Y001355
Y001455
Y001555
Y001655
Y001755
Y001855
X00263Y001825
X002464Y0017775
X002316Y00172
X00219Y0015275
X00222655Y00141845
X0022325Y001255
X002265Y00119
X00233Y00118
X0022825Y001125
X0022425Y0008725
X0021775Y0009325
X0022925Y00078
X0024525Y0008
X00256012Y00083254
X0026125Y000915
X0028005
X0027725Y00062123
X00236111Y0003325
X00168587Y00069163
X00176Y00079
X00184Y000895
X0017975Y001045
X00172Y0010475
X00171Y000965
X001825Y0011025
X0019525Y0012075
X0019575Y00127
X001955Y00143
X0020275Y001455
X00209Y001385
X00205375Y00166375
X0017025Y001485
X0016375Y0013725
X00157Y0013575
X0016175Y0017675
X00157235Y001835
X001575Y00191
X0014125
X00139229Y00179032
X00139518Y0017225
X0011073Y0017173
X00104909Y00172996
X00100124Y00182337
X00094303Y00183603
X00093053Y00189408
X0009525Y0015925
X00097421Y00151829
X00101501Y00147749
X0010175Y0014
X00112114Y0014275
X0008975Y00151
X0006525Y00173156
X0006975Y0009475
X0011734Y0010125
X001445Y000835
X0015025Y00074
X0026075Y00128038
X0026735Y0014425
X0028005
X00037Y001423
X000445Y001296
X0004Y001169
X0000575Y001165
Y001065
Y000965
Y000865
Y000765
Y000665
X000135Y0006375
X000225Y0007675
X00021Y00096
X0003825Y00068
X0004725Y0007125
X0005325Y0006725
X00052Y0004625
X00046002Y00044002
X00044Y0003725
X0003625Y00041
X00036Y0003025
X0002675Y0003275
X0001575Y0003875
X0000575
Y001665
Y001765
Y001865
X0003725Y00181
X00037Y00172778
X00043Y001755
X0004075Y0016625
X00045124Y001995
X0000575Y001965
Y002065
Y002165
Y002265
Y002365
Y002465
Y002565
Y002665
Y002765
Y002865
Y002965
Y003065
Y003165
Y003265
Y003365
X000115Y003375
X0000575Y003465
Y003565
Y003665
X0001575
X0002575
X0003575
X0004575
X00034841Y003525
X000355Y00321
X000265
X000175
X000445
X000535Y00297
X000485Y00284083
X00031251Y00282264
X00025Y00284071
X000225Y0029675
X000335Y0027625
X000435Y00258479
X00055Y0027125
X000705Y002855
X000755Y00298478
X000775Y003375
X0009275Y0035325
X00100572Y0032675
X0012125Y0031125
X00115571Y00304207
X0014325Y0031075
X0015125Y00312031
X00166597Y00321
X0017275Y0035325
X001465Y0034925
X00149Y00385
X00189
X00229
X002375Y0038325
Y0039325
Y0040325
Y0037325
X0024425Y003655
Y003555
Y003455
X0025425
X0026425
X0027425
X0028425
X0029425
Y003355
Y003255
Y003155
Y003055
Y002955
Y002855
Y002755
Y002655
Y002555
Y002455
Y002355
Y002255
Y002155
Y002055
Y001955
X0026Y0021922
X0023625Y00203
X00233919Y0019525
X0024123Y00248889
X0023525Y002555
X00187805Y00255876
X00181984Y00257142
X00180734Y00262947
X00174913Y00264213
X00173663Y00270018
X00163056Y00280625
X00157235Y00281891
X00155985Y00287696
X00144031Y00287712
X00129889Y0027357
X00128623Y00267749
X00122818Y00266499
X00121552Y00260678
X00115747Y00259428
X00103874Y00243
X00098069Y0024175
X00075111Y002365
X00068Y00231
X001385Y0022125
X00137Y001975
X0015575Y0019775
X00152448Y0024225
X0015225Y0026225
X0017825Y0023525
X002065Y0029025
X00230389Y00311568
X00225793Y00322186
X00214055Y003315
X00213Y0035325
X0025225Y00331574
X002825Y002895
X0005375Y00321
X0005575Y003665
X000625Y0037325
Y0038325
Y0039325
Y0040325
Y0041325
Y0042325
X00109Y00385
T02
X00029Y004
X00271
M30
